%TF.GenerationSoftware,KiCad,Pcbnew,9.0.2*%
%TF.CreationDate,2025-06-30T16:53:14+07:00*%
%TF.ProjectId,GW11LR,47573131-4c52-42e6-9b69-6361645f7063,rev?*%
%TF.SameCoordinates,Original*%
%TF.FileFunction,Paste,Bot*%
%TF.FilePolarity,Positive*%
%FSLAX46Y46*%
G04 Gerber Fmt 4.6, Leading zero omitted, Abs format (unit mm)*
G04 Created by KiCad (PCBNEW 9.0.2) date 2025-06-30 16:53:14*
%MOMM*%
%LPD*%
G01*
G04 APERTURE LIST*
G04 Aperture macros list*
%AMRoundRect*
0 Rectangle with rounded corners*
0 $1 Rounding radius*
0 $2 $3 $4 $5 $6 $7 $8 $9 X,Y pos of 4 corners*
0 Add a 4 corners polygon primitive as box body*
4,1,4,$2,$3,$4,$5,$6,$7,$8,$9,$2,$3,0*
0 Add four circle primitives for the rounded corners*
1,1,$1+$1,$2,$3*
1,1,$1+$1,$4,$5*
1,1,$1+$1,$6,$7*
1,1,$1+$1,$8,$9*
0 Add four rect primitives between the rounded corners*
20,1,$1+$1,$2,$3,$4,$5,0*
20,1,$1+$1,$4,$5,$6,$7,0*
20,1,$1+$1,$6,$7,$8,$9,0*
20,1,$1+$1,$8,$9,$2,$3,0*%
G04 Aperture macros list end*
%ADD10RoundRect,0.135000X-0.185000X0.135000X-0.185000X-0.135000X0.185000X-0.135000X0.185000X0.135000X0*%
%ADD11RoundRect,0.135000X0.185000X-0.135000X0.185000X0.135000X-0.185000X0.135000X-0.185000X-0.135000X0*%
%ADD12RoundRect,0.140000X0.140000X0.170000X-0.140000X0.170000X-0.140000X-0.170000X0.140000X-0.170000X0*%
%ADD13RoundRect,0.218750X0.256250X-0.218750X0.256250X0.218750X-0.256250X0.218750X-0.256250X-0.218750X0*%
%ADD14R,1.100000X0.600000*%
%ADD15RoundRect,0.140000X-0.140000X-0.170000X0.140000X-0.170000X0.140000X0.170000X-0.140000X0.170000X0*%
%ADD16RoundRect,0.250000X-0.325000X-0.650000X0.325000X-0.650000X0.325000X0.650000X-0.325000X0.650000X0*%
%ADD17RoundRect,0.135000X0.135000X0.185000X-0.135000X0.185000X-0.135000X-0.185000X0.135000X-0.185000X0*%
%ADD18RoundRect,0.250000X-0.250000X-0.475000X0.250000X-0.475000X0.250000X0.475000X-0.250000X0.475000X0*%
%ADD19RoundRect,0.250000X-0.250000X0.275000X-0.250000X-0.275000X0.250000X-0.275000X0.250000X0.275000X0*%
%ADD20RoundRect,0.250000X-0.275000X0.850000X-0.275000X-0.850000X0.275000X-0.850000X0.275000X0.850000X0*%
%ADD21RoundRect,0.175000X-0.175000X0.175000X-0.175000X-0.175000X0.175000X-0.175000X0.175000X0.175000X0*%
%ADD22R,1.000000X1.400000*%
%ADD23R,0.750000X2.000000*%
%ADD24O,0.750000X2.000000*%
%ADD25O,2.000000X0.750000*%
%ADD26RoundRect,0.218750X-0.256250X0.218750X-0.256250X-0.218750X0.256250X-0.218750X0.256250X0.218750X0*%
%ADD27RoundRect,0.150000X-0.587500X-0.150000X0.587500X-0.150000X0.587500X0.150000X-0.587500X0.150000X0*%
%ADD28RoundRect,0.135000X-0.135000X-0.185000X0.135000X-0.185000X0.135000X0.185000X-0.135000X0.185000X0*%
%ADD29RoundRect,0.147500X0.147500X0.172500X-0.147500X0.172500X-0.147500X-0.172500X0.147500X-0.172500X0*%
%ADD30RoundRect,0.140000X0.170000X-0.140000X0.170000X0.140000X-0.170000X0.140000X-0.170000X-0.140000X0*%
%ADD31RoundRect,0.150000X0.150000X-0.587500X0.150000X0.587500X-0.150000X0.587500X-0.150000X-0.587500X0*%
%ADD32RoundRect,0.250000X0.275000X0.250000X-0.275000X0.250000X-0.275000X-0.250000X0.275000X-0.250000X0*%
%ADD33RoundRect,0.250000X0.850000X0.275000X-0.850000X0.275000X-0.850000X-0.275000X0.850000X-0.275000X0*%
G04 APERTURE END LIST*
D10*
%TO.C,R41*%
X191775000Y-116415000D03*
X191775000Y-117435000D03*
%TD*%
%TO.C,R46*%
X137025000Y-121765000D03*
X137025000Y-122785000D03*
%TD*%
D11*
%TO.C,R47*%
X130700000Y-120760000D03*
X130700000Y-119740000D03*
%TD*%
D12*
%TO.C,C26*%
X190730000Y-102250000D03*
X189770000Y-102250000D03*
%TD*%
D13*
%TO.C,D8*%
X193125000Y-124487500D03*
X193125000Y-122912500D03*
%TD*%
D14*
%TO.C,U5*%
X149975000Y-89450000D03*
X149975000Y-90400000D03*
X149975000Y-91350000D03*
X147275000Y-91350000D03*
X147275000Y-90400000D03*
X147275000Y-89450000D03*
%TD*%
D10*
%TO.C,R36*%
X191775000Y-123190000D03*
X191775000Y-124210000D03*
%TD*%
%TO.C,R45*%
X130700000Y-121765000D03*
X130700000Y-122785000D03*
%TD*%
D15*
%TO.C,C27*%
X144910000Y-89400000D03*
X145870000Y-89400000D03*
%TD*%
D16*
%TO.C,C23*%
X190150000Y-85250000D03*
X193100000Y-85250000D03*
%TD*%
D17*
%TO.C,R4*%
X189872500Y-93287500D03*
X188852500Y-93287500D03*
%TD*%
D10*
%TO.C,R34*%
X178400000Y-114525000D03*
X178400000Y-115545000D03*
%TD*%
D18*
%TO.C,C8*%
X147535000Y-93175000D03*
X149435000Y-93175000D03*
%TD*%
D13*
%TO.C,D9*%
X193125000Y-121087500D03*
X193125000Y-119512500D03*
%TD*%
D16*
%TO.C,C18*%
X151075000Y-85250000D03*
X154025000Y-85250000D03*
%TD*%
D19*
%TO.C,J1*%
X190750000Y-103875000D03*
D20*
X192225000Y-105400000D03*
X189275000Y-105400000D03*
%TD*%
D21*
%TO.C,D10*%
X171500000Y-110675000D03*
X171500000Y-112875000D03*
%TD*%
D10*
%TO.C,R24*%
X181525000Y-114525000D03*
X181525000Y-115545000D03*
%TD*%
D13*
%TO.C,D12*%
X193125000Y-117687500D03*
X193125000Y-116112500D03*
%TD*%
D10*
%TO.C,R35*%
X179425000Y-114525000D03*
X179425000Y-115545000D03*
%TD*%
%TO.C,R40*%
X191775000Y-119790000D03*
X191775000Y-120810000D03*
%TD*%
D11*
%TO.C,R33*%
X180475000Y-115535000D03*
X180475000Y-114515000D03*
%TD*%
D22*
%TO.C,L2*%
X151550000Y-90425000D03*
X154750000Y-90425000D03*
%TD*%
D10*
%TO.C,R3*%
X191875000Y-109590000D03*
X191875000Y-110610000D03*
%TD*%
D23*
%TO.C,U1*%
X181500000Y-108750000D03*
D24*
X180500000Y-108750000D03*
X179500000Y-108750000D03*
X178500000Y-108750000D03*
X177500000Y-108750000D03*
X172500000Y-108750000D03*
X171500000Y-108750000D03*
X170500000Y-108750000D03*
X169500000Y-108750000D03*
X168500000Y-108750000D03*
X167500000Y-108750000D03*
X165500000Y-108750000D03*
X164500000Y-108750000D03*
X163500000Y-108750000D03*
X162500000Y-108750000D03*
D25*
X157000000Y-87250000D03*
X157000000Y-86250000D03*
X157000000Y-85250000D03*
X157000000Y-84250000D03*
D24*
X162500000Y-78750000D03*
X164500000Y-78750000D03*
X172500000Y-78750000D03*
X174500000Y-78750000D03*
X178500000Y-78750000D03*
X179500000Y-78750000D03*
X181500000Y-78750000D03*
D25*
X187000000Y-84250000D03*
X187000000Y-85250000D03*
X187000000Y-86250000D03*
X187000000Y-87250000D03*
X187000000Y-88250000D03*
X187000000Y-100250000D03*
X187000000Y-101250000D03*
X187000000Y-102250000D03*
X187000000Y-103250000D03*
D24*
X161500000Y-108750000D03*
X161500000Y-78750000D03*
%TD*%
D26*
%TO.C,D1*%
X193125000Y-109312500D03*
X193125000Y-110887500D03*
%TD*%
D27*
%TO.C,Q1*%
X191200000Y-94375000D03*
X191200000Y-92475000D03*
X193075000Y-93425000D03*
%TD*%
D28*
%TO.C,R29*%
X191725000Y-101175000D03*
X192745000Y-101175000D03*
%TD*%
D11*
%TO.C,R48*%
X137025000Y-120760000D03*
X137025000Y-119740000D03*
%TD*%
D18*
%TO.C,C17*%
X152200000Y-87475000D03*
X154100000Y-87475000D03*
%TD*%
D17*
%TO.C,R16*%
X145900000Y-91500000D03*
X144880000Y-91500000D03*
%TD*%
D29*
%TO.C,L4*%
X192720000Y-102250000D03*
X191750000Y-102250000D03*
%TD*%
D17*
%TO.C,R5*%
X189872500Y-94362500D03*
X188852500Y-94362500D03*
%TD*%
D13*
%TO.C,D3*%
X193125000Y-114287500D03*
X193125000Y-112712500D03*
%TD*%
D12*
%TO.C,C28*%
X192735000Y-100125000D03*
X191775000Y-100125000D03*
%TD*%
D30*
%TO.C,C21*%
X188750000Y-85250000D03*
X188750000Y-84290000D03*
%TD*%
D31*
%TO.C,Q5*%
X179412500Y-113012500D03*
X177512500Y-113012500D03*
X178462500Y-111137500D03*
%TD*%
D10*
%TO.C,R1*%
X191775000Y-113015000D03*
X191775000Y-114035000D03*
%TD*%
D28*
%TO.C,R12*%
X144880000Y-90450000D03*
X145900000Y-90450000D03*
%TD*%
D32*
%TO.C,J2*%
X152180000Y-78775000D03*
D33*
X150655000Y-80250000D03*
X150655000Y-77300000D03*
%TD*%
D30*
%TO.C,C20*%
X155400000Y-85230000D03*
X155400000Y-84270000D03*
%TD*%
M02*
