%TF.GenerationSoftware,KiCad,Pcbnew,9.0.2*%
%TF.CreationDate,2025-06-30T16:53:14+07:00*%
%TF.ProjectId,GW11LR,47573131-4c52-42e6-9b69-6361645f7063,rev?*%
%TF.SameCoordinates,Original*%
%TF.FileFunction,Legend,Top*%
%TF.FilePolarity,Positive*%
%FSLAX46Y46*%
G04 Gerber Fmt 4.6, Leading zero omitted, Abs format (unit mm)*
G04 Created by KiCad (PCBNEW 9.0.2) date 2025-06-30 16:53:14*
%MOMM*%
%LPD*%
G01*
G04 APERTURE LIST*
%ADD10C,0.150000*%
%ADD11C,0.100000*%
%ADD12C,0.120000*%
%ADD13C,0.250000*%
%ADD14C,0.400000*%
%ADD15C,0.200000*%
G04 APERTURE END LIST*
D10*
G36*
X139798176Y-109125501D02*
G01*
X139798176Y-108271823D01*
X139910855Y-108271823D01*
X139910855Y-109026680D01*
X140330064Y-109026680D01*
X140330064Y-109125501D01*
X139798176Y-109125501D01*
G37*
G36*
X140895629Y-108262176D02*
G01*
X140950145Y-108272853D01*
X141001330Y-108290386D01*
X141049680Y-108314849D01*
X141094262Y-108345808D01*
X141132914Y-108382031D01*
X141166079Y-108423846D01*
X141193966Y-108471800D01*
X141221131Y-108540483D01*
X141237858Y-108616165D01*
X141243636Y-108700115D01*
X141237572Y-108785101D01*
X141219993Y-108861842D01*
X141191371Y-108931648D01*
X141162083Y-108980243D01*
X141127813Y-109021812D01*
X141088378Y-109057017D01*
X141043348Y-109086263D01*
X140977809Y-109115439D01*
X140909221Y-109132896D01*
X140836624Y-109138787D01*
X140777017Y-109135019D01*
X140721747Y-109123994D01*
X140670172Y-109105928D01*
X140621751Y-109080761D01*
X140577145Y-109048967D01*
X140538641Y-109012201D01*
X140505784Y-108970166D01*
X140478347Y-108922358D01*
X140451245Y-108854063D01*
X140435053Y-108783529D01*
X140429722Y-108711481D01*
X140545715Y-108711481D01*
X140551476Y-108788332D01*
X140567709Y-108853146D01*
X140593421Y-108908009D01*
X140628446Y-108954537D01*
X140672706Y-108993537D01*
X140721361Y-109020938D01*
X140775353Y-109037562D01*
X140836053Y-109043288D01*
X140897950Y-109037465D01*
X140952572Y-109020618D01*
X141001378Y-108992942D01*
X141045372Y-108953654D01*
X141079755Y-108906836D01*
X141105327Y-108850232D01*
X141121673Y-108781862D01*
X141127532Y-108699233D01*
X141123347Y-108630486D01*
X141111414Y-108570272D01*
X141092395Y-108517369D01*
X141064939Y-108468820D01*
X141030819Y-108428978D01*
X140989630Y-108396854D01*
X140942969Y-108373171D01*
X140892672Y-108358901D01*
X140837766Y-108354035D01*
X140779525Y-108359282D01*
X140726480Y-108374641D01*
X140677542Y-108400102D01*
X140631924Y-108436403D01*
X140603352Y-108470108D01*
X140579888Y-108512560D01*
X140561832Y-108565461D01*
X140550011Y-108630943D01*
X140545715Y-108711481D01*
X140429722Y-108711481D01*
X140429611Y-108709976D01*
X140434756Y-108624056D01*
X140449369Y-108549420D01*
X140472551Y-108484455D01*
X140503869Y-108427794D01*
X140543380Y-108378377D01*
X140591337Y-108335398D01*
X140643908Y-108302253D01*
X140701748Y-108278353D01*
X140765791Y-108263630D01*
X140837195Y-108258536D01*
X140895629Y-108262176D01*
G37*
G36*
X141844496Y-108274917D02*
G01*
X141900777Y-108283030D01*
X141941142Y-108294660D01*
X141977731Y-108313607D01*
X142009081Y-108340197D01*
X142035758Y-108375315D01*
X142055415Y-108415078D01*
X142067206Y-108457390D01*
X142071207Y-108502993D01*
X142067396Y-108547119D01*
X142056334Y-108586620D01*
X142038180Y-108622370D01*
X142012558Y-108655012D01*
X141981666Y-108681440D01*
X141942339Y-108703617D01*
X141892936Y-108721248D01*
X141831422Y-108733591D01*
X141872781Y-108756485D01*
X141899309Y-108776462D01*
X141946204Y-108826602D01*
X141992836Y-108891061D01*
X142140859Y-109125501D01*
X141999220Y-109125501D01*
X141886541Y-108946129D01*
X141805263Y-108827378D01*
X141772946Y-108790305D01*
X141748068Y-108769715D01*
X141722222Y-108755592D01*
X141696685Y-108746774D01*
X141633988Y-108742674D01*
X141503352Y-108742674D01*
X141503352Y-109125501D01*
X141390673Y-109125501D01*
X141390673Y-108647175D01*
X141503352Y-108647175D01*
X141745473Y-108647175D01*
X141818333Y-108642663D01*
X141866248Y-108631345D01*
X141893488Y-108618315D01*
X141915293Y-108601432D01*
X141932422Y-108580534D01*
X141949417Y-108544022D01*
X141955051Y-108504654D01*
X141950068Y-108466628D01*
X141935604Y-108434206D01*
X141911195Y-108405989D01*
X141879565Y-108385917D01*
X141834859Y-108372433D01*
X141772773Y-108367322D01*
X141503352Y-108367322D01*
X141503352Y-108647175D01*
X141390673Y-108647175D01*
X141390673Y-108271823D01*
X141768102Y-108271823D01*
X141844496Y-108274917D01*
G37*
G36*
X142950784Y-109125501D02*
G01*
X142822431Y-109125501D01*
X142723143Y-108866408D01*
X142367202Y-108866408D01*
X142273727Y-109125501D01*
X142154094Y-109125501D01*
X142288936Y-108773400D01*
X142399744Y-108773400D01*
X142688317Y-108773400D01*
X142599462Y-108537715D01*
X142562335Y-108434867D01*
X142539100Y-108361249D01*
X142519589Y-108442522D01*
X142493219Y-108523805D01*
X142399744Y-108773400D01*
X142288936Y-108773400D01*
X142481022Y-108271823D01*
X142602368Y-108271823D01*
X142950784Y-109125501D01*
G37*
D11*
X138300000Y-108035000D02*
X139550000Y-108035000D01*
X139550000Y-109285000D01*
X138300000Y-109285000D01*
X138300000Y-108035000D01*
G36*
X138300000Y-108035000D02*
G01*
X139550000Y-108035000D01*
X139550000Y-109285000D01*
X138300000Y-109285000D01*
X138300000Y-108035000D01*
G37*
D10*
G36*
X135027005Y-108274176D02*
G01*
X135076716Y-108279920D01*
X135135731Y-108295592D01*
X135181817Y-108319624D01*
X135207768Y-108341272D01*
X135230471Y-108368363D01*
X135250016Y-108401629D01*
X135264258Y-108437534D01*
X135272910Y-108475975D01*
X135275863Y-108517473D01*
X135271369Y-108570586D01*
X135258324Y-108618224D01*
X135236929Y-108661407D01*
X135206782Y-108700893D01*
X135178588Y-108725264D01*
X135141666Y-108745578D01*
X135094099Y-108761459D01*
X135033509Y-108772011D01*
X134957135Y-108775891D01*
X134738785Y-108775891D01*
X134738785Y-109125501D01*
X134626159Y-109125501D01*
X134626159Y-108677071D01*
X134738785Y-108677071D01*
X134958848Y-108677071D01*
X135015197Y-108673841D01*
X135058078Y-108665204D01*
X135090217Y-108652407D01*
X135113878Y-108636172D01*
X135138828Y-108606078D01*
X135154248Y-108568430D01*
X135159759Y-108520951D01*
X135156598Y-108485928D01*
X135147526Y-108455513D01*
X135132770Y-108428825D01*
X135112695Y-108406022D01*
X135089167Y-108389320D01*
X135061613Y-108378221D01*
X135027180Y-108373014D01*
X134956512Y-108370644D01*
X134738785Y-108370644D01*
X134738785Y-108677071D01*
X134626159Y-108677071D01*
X134626159Y-108271823D01*
X134947222Y-108271823D01*
X135027005Y-108274176D01*
G37*
G36*
X135850977Y-108262176D02*
G01*
X135905494Y-108272853D01*
X135956678Y-108290386D01*
X136005028Y-108314849D01*
X136049611Y-108345808D01*
X136088263Y-108382031D01*
X136121427Y-108423846D01*
X136149315Y-108471800D01*
X136176480Y-108540483D01*
X136193207Y-108616165D01*
X136198985Y-108700115D01*
X136192921Y-108785101D01*
X136175341Y-108861842D01*
X136146720Y-108931648D01*
X136117432Y-108980243D01*
X136083162Y-109021812D01*
X136043727Y-109057017D01*
X135998696Y-109086263D01*
X135933157Y-109115439D01*
X135864569Y-109132896D01*
X135791972Y-109138787D01*
X135732365Y-109135019D01*
X135677095Y-109123994D01*
X135625521Y-109105928D01*
X135577100Y-109080761D01*
X135532493Y-109048967D01*
X135493989Y-109012201D01*
X135461133Y-108970166D01*
X135433696Y-108922358D01*
X135406594Y-108854063D01*
X135390402Y-108783529D01*
X135385071Y-108711481D01*
X135501064Y-108711481D01*
X135506825Y-108788332D01*
X135523057Y-108853146D01*
X135548770Y-108908009D01*
X135583795Y-108954537D01*
X135628055Y-108993537D01*
X135676709Y-109020938D01*
X135730701Y-109037562D01*
X135791401Y-109043288D01*
X135853299Y-109037465D01*
X135907921Y-109020618D01*
X135956727Y-108992942D01*
X136000721Y-108953654D01*
X136035103Y-108906836D01*
X136060676Y-108850232D01*
X136077022Y-108781862D01*
X136082881Y-108699233D01*
X136078696Y-108630486D01*
X136066762Y-108570272D01*
X136047743Y-108517369D01*
X136020287Y-108468820D01*
X135986167Y-108428978D01*
X135944978Y-108396854D01*
X135898318Y-108373171D01*
X135848020Y-108358901D01*
X135793114Y-108354035D01*
X135734874Y-108359282D01*
X135681829Y-108374641D01*
X135632891Y-108400102D01*
X135587272Y-108436403D01*
X135558701Y-108470108D01*
X135535237Y-108512560D01*
X135517181Y-108565461D01*
X135505360Y-108630943D01*
X135501064Y-108711481D01*
X135385071Y-108711481D01*
X135384960Y-108709976D01*
X135390104Y-108624056D01*
X135404718Y-108549420D01*
X135427900Y-108484455D01*
X135459218Y-108427794D01*
X135498728Y-108378377D01*
X135546686Y-108335398D01*
X135599257Y-108302253D01*
X135657097Y-108278353D01*
X135721139Y-108263630D01*
X135792543Y-108258536D01*
X135850977Y-108262176D01*
G37*
G36*
X136346593Y-109125501D02*
G01*
X136346593Y-108271823D01*
X136962094Y-108271823D01*
X136962094Y-108370644D01*
X136459271Y-108370644D01*
X136459271Y-108633888D01*
X136930175Y-108633888D01*
X136930175Y-108732709D01*
X136459271Y-108732709D01*
X136459271Y-109026680D01*
X136981869Y-109026680D01*
X136981869Y-109125501D01*
X136346593Y-109125501D01*
G37*
D11*
X133160000Y-108035000D02*
X134410000Y-108035000D01*
X134410000Y-109285000D01*
X133160000Y-109285000D01*
X133160000Y-108035000D01*
G36*
X133160000Y-108035000D02*
G01*
X134410000Y-108035000D01*
X134410000Y-109285000D01*
X133160000Y-109285000D01*
X133160000Y-108035000D01*
G37*
X127895000Y-108035000D02*
X129145000Y-108035000D01*
X129145000Y-109285000D01*
X127895000Y-109285000D01*
X127895000Y-108035000D01*
G36*
X127895000Y-108035000D02*
G01*
X129145000Y-108035000D01*
X129145000Y-109285000D01*
X127895000Y-109285000D01*
X127895000Y-108035000D01*
G37*
D10*
G36*
X129840857Y-108826547D02*
G01*
X129955819Y-108826547D01*
X129955819Y-108922046D01*
X129840857Y-108922046D01*
X129840857Y-109125501D01*
X129736327Y-109125501D01*
X129736327Y-108922046D01*
X129367047Y-108922046D01*
X129367047Y-108826547D01*
X129469812Y-108826547D01*
X129736327Y-108826547D01*
X129736327Y-108442891D01*
X129469812Y-108826547D01*
X129367047Y-108826547D01*
X129755478Y-108275145D01*
X129840857Y-108275145D01*
X129840857Y-108826547D01*
G37*
G36*
X130503017Y-108789178D02*
G01*
X130503017Y-108690357D01*
X130863630Y-108689787D01*
X130863630Y-109005919D01*
X130806542Y-109047105D01*
X130749513Y-109080070D01*
X130692302Y-109105415D01*
X130632745Y-109124009D01*
X130572504Y-109135089D01*
X130511166Y-109138787D01*
X130428880Y-109132634D01*
X130353285Y-109114647D01*
X130283214Y-109085069D01*
X130234759Y-109054953D01*
X130193185Y-109019265D01*
X130157875Y-108977727D01*
X130128495Y-108929780D01*
X130099768Y-108860351D01*
X130082241Y-108785053D01*
X130076230Y-108702710D01*
X130082096Y-108621077D01*
X130099423Y-108544064D01*
X130128184Y-108470762D01*
X130157688Y-108419409D01*
X130192300Y-108376144D01*
X130232161Y-108340118D01*
X130277712Y-108310801D01*
X130344565Y-108282249D01*
X130418991Y-108264640D01*
X130502446Y-108258536D01*
X130563436Y-108262004D01*
X130618834Y-108272043D01*
X130669362Y-108288276D01*
X130716825Y-108311468D01*
X130755425Y-108339102D01*
X130786348Y-108371163D01*
X130811339Y-108408331D01*
X130832969Y-108454025D01*
X130850862Y-108509688D01*
X130749239Y-108537559D01*
X130726587Y-108477215D01*
X130701593Y-108435676D01*
X130680697Y-108413300D01*
X130653927Y-108393513D01*
X130620315Y-108376353D01*
X130565416Y-108359776D01*
X130503017Y-108354035D01*
X130451914Y-108356875D01*
X130407722Y-108364914D01*
X130369474Y-108377598D01*
X130317654Y-108405520D01*
X130278595Y-108439569D01*
X130247792Y-108480001D01*
X130224877Y-108523857D01*
X130206989Y-108577476D01*
X130196098Y-108634478D01*
X130192386Y-108695444D01*
X130197187Y-108770705D01*
X130210606Y-108833648D01*
X130231572Y-108886286D01*
X130261961Y-108933437D01*
X130299745Y-108971103D01*
X130345652Y-109000262D01*
X130396690Y-109020951D01*
X130449529Y-109033317D01*
X130504782Y-109037475D01*
X130553006Y-109034374D01*
X130600478Y-109025066D01*
X130647563Y-109009397D01*
X130711947Y-108978592D01*
X130753287Y-108949450D01*
X130753287Y-108789178D01*
X130503017Y-108789178D01*
G37*
D11*
X127725000Y-103025000D02*
X143125000Y-103025000D01*
X143125000Y-107825000D01*
X127725000Y-107825000D01*
X127725000Y-103025000D01*
D10*
X130763095Y-104582580D02*
X130763095Y-103482580D01*
X131444048Y-104582580D02*
X131339286Y-104530200D01*
X131339286Y-104530200D02*
X131286905Y-104477819D01*
X131286905Y-104477819D02*
X131234524Y-104373057D01*
X131234524Y-104373057D02*
X131234524Y-104058771D01*
X131234524Y-104058771D02*
X131286905Y-103954009D01*
X131286905Y-103954009D02*
X131339286Y-103901628D01*
X131339286Y-103901628D02*
X131444048Y-103849247D01*
X131444048Y-103849247D02*
X131601191Y-103849247D01*
X131601191Y-103849247D02*
X131705953Y-103901628D01*
X131705953Y-103901628D02*
X131758334Y-103954009D01*
X131758334Y-103954009D02*
X131810715Y-104058771D01*
X131810715Y-104058771D02*
X131810715Y-104373057D01*
X131810715Y-104373057D02*
X131758334Y-104477819D01*
X131758334Y-104477819D02*
X131705953Y-104530200D01*
X131705953Y-104530200D02*
X131601191Y-104582580D01*
X131601191Y-104582580D02*
X131444048Y-104582580D01*
X132125000Y-103482580D02*
X132753572Y-103482580D01*
X132439286Y-104582580D02*
X132439286Y-103482580D01*
X134534524Y-103534961D02*
X134429762Y-103482580D01*
X134429762Y-103482580D02*
X134272619Y-103482580D01*
X134272619Y-103482580D02*
X134115476Y-103534961D01*
X134115476Y-103534961D02*
X134010714Y-103639723D01*
X134010714Y-103639723D02*
X133958333Y-103744485D01*
X133958333Y-103744485D02*
X133905952Y-103954009D01*
X133905952Y-103954009D02*
X133905952Y-104111152D01*
X133905952Y-104111152D02*
X133958333Y-104320676D01*
X133958333Y-104320676D02*
X134010714Y-104425438D01*
X134010714Y-104425438D02*
X134115476Y-104530200D01*
X134115476Y-104530200D02*
X134272619Y-104582580D01*
X134272619Y-104582580D02*
X134377381Y-104582580D01*
X134377381Y-104582580D02*
X134534524Y-104530200D01*
X134534524Y-104530200D02*
X134586905Y-104477819D01*
X134586905Y-104477819D02*
X134586905Y-104111152D01*
X134586905Y-104111152D02*
X134377381Y-104111152D01*
X135529762Y-104582580D02*
X135529762Y-104006390D01*
X135529762Y-104006390D02*
X135477381Y-103901628D01*
X135477381Y-103901628D02*
X135372619Y-103849247D01*
X135372619Y-103849247D02*
X135163095Y-103849247D01*
X135163095Y-103849247D02*
X135058333Y-103901628D01*
X135529762Y-104530200D02*
X135425000Y-104582580D01*
X135425000Y-104582580D02*
X135163095Y-104582580D01*
X135163095Y-104582580D02*
X135058333Y-104530200D01*
X135058333Y-104530200D02*
X135005952Y-104425438D01*
X135005952Y-104425438D02*
X135005952Y-104320676D01*
X135005952Y-104320676D02*
X135058333Y-104215914D01*
X135058333Y-104215914D02*
X135163095Y-104163533D01*
X135163095Y-104163533D02*
X135425000Y-104163533D01*
X135425000Y-104163533D02*
X135529762Y-104111152D01*
X135896428Y-103849247D02*
X136315476Y-103849247D01*
X136053571Y-103482580D02*
X136053571Y-104425438D01*
X136053571Y-104425438D02*
X136105952Y-104530200D01*
X136105952Y-104530200D02*
X136210714Y-104582580D01*
X136210714Y-104582580D02*
X136315476Y-104582580D01*
X137101190Y-104530200D02*
X136996428Y-104582580D01*
X136996428Y-104582580D02*
X136786904Y-104582580D01*
X136786904Y-104582580D02*
X136682142Y-104530200D01*
X136682142Y-104530200D02*
X136629761Y-104425438D01*
X136629761Y-104425438D02*
X136629761Y-104006390D01*
X136629761Y-104006390D02*
X136682142Y-103901628D01*
X136682142Y-103901628D02*
X136786904Y-103849247D01*
X136786904Y-103849247D02*
X136996428Y-103849247D01*
X136996428Y-103849247D02*
X137101190Y-103901628D01*
X137101190Y-103901628D02*
X137153571Y-104006390D01*
X137153571Y-104006390D02*
X137153571Y-104111152D01*
X137153571Y-104111152D02*
X136629761Y-104215914D01*
X137520237Y-103849247D02*
X137729761Y-104582580D01*
X137729761Y-104582580D02*
X137939285Y-104058771D01*
X137939285Y-104058771D02*
X138148809Y-104582580D01*
X138148809Y-104582580D02*
X138358333Y-103849247D01*
X139248809Y-104582580D02*
X139248809Y-104006390D01*
X139248809Y-104006390D02*
X139196428Y-103901628D01*
X139196428Y-103901628D02*
X139091666Y-103849247D01*
X139091666Y-103849247D02*
X138882142Y-103849247D01*
X138882142Y-103849247D02*
X138777380Y-103901628D01*
X139248809Y-104530200D02*
X139144047Y-104582580D01*
X139144047Y-104582580D02*
X138882142Y-104582580D01*
X138882142Y-104582580D02*
X138777380Y-104530200D01*
X138777380Y-104530200D02*
X138724999Y-104425438D01*
X138724999Y-104425438D02*
X138724999Y-104320676D01*
X138724999Y-104320676D02*
X138777380Y-104215914D01*
X138777380Y-104215914D02*
X138882142Y-104163533D01*
X138882142Y-104163533D02*
X139144047Y-104163533D01*
X139144047Y-104163533D02*
X139248809Y-104111152D01*
X139667856Y-103849247D02*
X139929761Y-104582580D01*
X140191666Y-103849247D02*
X139929761Y-104582580D01*
X139929761Y-104582580D02*
X139824999Y-104844485D01*
X139824999Y-104844485D02*
X139772618Y-104896866D01*
X139772618Y-104896866D02*
X139667856Y-104949247D01*
D11*
X153407419Y-64853258D02*
X153383609Y-64900877D01*
X153383609Y-64900877D02*
X153383609Y-64972306D01*
X153383609Y-64972306D02*
X153407419Y-65043734D01*
X153407419Y-65043734D02*
X153455038Y-65091353D01*
X153455038Y-65091353D02*
X153502657Y-65115163D01*
X153502657Y-65115163D02*
X153597895Y-65138972D01*
X153597895Y-65138972D02*
X153669323Y-65138972D01*
X153669323Y-65138972D02*
X153764561Y-65115163D01*
X153764561Y-65115163D02*
X153812180Y-65091353D01*
X153812180Y-65091353D02*
X153859800Y-65043734D01*
X153859800Y-65043734D02*
X153883609Y-64972306D01*
X153883609Y-64972306D02*
X153883609Y-64924687D01*
X153883609Y-64924687D02*
X153859800Y-64853258D01*
X153859800Y-64853258D02*
X153835990Y-64829449D01*
X153835990Y-64829449D02*
X153669323Y-64829449D01*
X153669323Y-64829449D02*
X153669323Y-64924687D01*
X153883609Y-64615163D02*
X153383609Y-64615163D01*
X153383609Y-64615163D02*
X153883609Y-64329449D01*
X153883609Y-64329449D02*
X153383609Y-64329449D01*
X153883609Y-64091353D02*
X153383609Y-64091353D01*
X153383609Y-64091353D02*
X153383609Y-63972305D01*
X153383609Y-63972305D02*
X153407419Y-63900877D01*
X153407419Y-63900877D02*
X153455038Y-63853258D01*
X153455038Y-63853258D02*
X153502657Y-63829448D01*
X153502657Y-63829448D02*
X153597895Y-63805639D01*
X153597895Y-63805639D02*
X153669323Y-63805639D01*
X153669323Y-63805639D02*
X153764561Y-63829448D01*
X153764561Y-63829448D02*
X153812180Y-63853258D01*
X153812180Y-63853258D02*
X153859800Y-63900877D01*
X153859800Y-63900877D02*
X153883609Y-63972305D01*
X153883609Y-63972305D02*
X153883609Y-64091353D01*
X172764836Y-63263609D02*
X172764836Y-62763609D01*
X172764836Y-62763609D02*
X172955312Y-62763609D01*
X172955312Y-62763609D02*
X173002931Y-62787419D01*
X173002931Y-62787419D02*
X173026741Y-62811228D01*
X173026741Y-62811228D02*
X173050550Y-62858847D01*
X173050550Y-62858847D02*
X173050550Y-62930276D01*
X173050550Y-62930276D02*
X173026741Y-62977895D01*
X173026741Y-62977895D02*
X173002931Y-63001704D01*
X173002931Y-63001704D02*
X172955312Y-63025514D01*
X172955312Y-63025514D02*
X172764836Y-63025514D01*
X173264836Y-63263609D02*
X173264836Y-62763609D01*
X173264836Y-62763609D02*
X173455312Y-62763609D01*
X173455312Y-62763609D02*
X173502931Y-62787419D01*
X173502931Y-62787419D02*
X173526741Y-62811228D01*
X173526741Y-62811228D02*
X173550550Y-62858847D01*
X173550550Y-62858847D02*
X173550550Y-62930276D01*
X173550550Y-62930276D02*
X173526741Y-62977895D01*
X173526741Y-62977895D02*
X173502931Y-63001704D01*
X173502931Y-63001704D02*
X173455312Y-63025514D01*
X173455312Y-63025514D02*
X173264836Y-63025514D01*
X173741027Y-63239800D02*
X173812455Y-63263609D01*
X173812455Y-63263609D02*
X173931503Y-63263609D01*
X173931503Y-63263609D02*
X173979122Y-63239800D01*
X173979122Y-63239800D02*
X174002931Y-63215990D01*
X174002931Y-63215990D02*
X174026741Y-63168371D01*
X174026741Y-63168371D02*
X174026741Y-63120752D01*
X174026741Y-63120752D02*
X174002931Y-63073133D01*
X174002931Y-63073133D02*
X173979122Y-63049323D01*
X173979122Y-63049323D02*
X173931503Y-63025514D01*
X173931503Y-63025514D02*
X173836265Y-63001704D01*
X173836265Y-63001704D02*
X173788646Y-62977895D01*
X173788646Y-62977895D02*
X173764836Y-62954085D01*
X173764836Y-62954085D02*
X173741027Y-62906466D01*
X173741027Y-62906466D02*
X173741027Y-62858847D01*
X173741027Y-62858847D02*
X173764836Y-62811228D01*
X173764836Y-62811228D02*
X173788646Y-62787419D01*
X173788646Y-62787419D02*
X173836265Y-62763609D01*
X173836265Y-62763609D02*
X173955312Y-62763609D01*
X173955312Y-62763609D02*
X174026741Y-62787419D01*
X178754836Y-118893133D02*
X179135789Y-118893133D01*
X178945312Y-119083609D02*
X178945312Y-118702657D01*
X179635789Y-119083609D02*
X179350075Y-119083609D01*
X179492932Y-119083609D02*
X179492932Y-118583609D01*
X179492932Y-118583609D02*
X179445313Y-118655038D01*
X179445313Y-118655038D02*
X179397694Y-118702657D01*
X179397694Y-118702657D02*
X179350075Y-118726466D01*
X179778646Y-118583609D02*
X179945312Y-119083609D01*
X179945312Y-119083609D02*
X180111979Y-118583609D01*
X180350074Y-118797895D02*
X180302455Y-118774085D01*
X180302455Y-118774085D02*
X180278645Y-118750276D01*
X180278645Y-118750276D02*
X180254836Y-118702657D01*
X180254836Y-118702657D02*
X180254836Y-118678847D01*
X180254836Y-118678847D02*
X180278645Y-118631228D01*
X180278645Y-118631228D02*
X180302455Y-118607419D01*
X180302455Y-118607419D02*
X180350074Y-118583609D01*
X180350074Y-118583609D02*
X180445312Y-118583609D01*
X180445312Y-118583609D02*
X180492931Y-118607419D01*
X180492931Y-118607419D02*
X180516740Y-118631228D01*
X180516740Y-118631228D02*
X180540550Y-118678847D01*
X180540550Y-118678847D02*
X180540550Y-118702657D01*
X180540550Y-118702657D02*
X180516740Y-118750276D01*
X180516740Y-118750276D02*
X180492931Y-118774085D01*
X180492931Y-118774085D02*
X180445312Y-118797895D01*
X180445312Y-118797895D02*
X180350074Y-118797895D01*
X180350074Y-118797895D02*
X180302455Y-118821704D01*
X180302455Y-118821704D02*
X180278645Y-118845514D01*
X180278645Y-118845514D02*
X180254836Y-118893133D01*
X180254836Y-118893133D02*
X180254836Y-118988371D01*
X180254836Y-118988371D02*
X180278645Y-119035990D01*
X180278645Y-119035990D02*
X180302455Y-119059800D01*
X180302455Y-119059800D02*
X180350074Y-119083609D01*
X180350074Y-119083609D02*
X180445312Y-119083609D01*
X180445312Y-119083609D02*
X180492931Y-119059800D01*
X180492931Y-119059800D02*
X180516740Y-119035990D01*
X180516740Y-119035990D02*
X180540550Y-118988371D01*
X180540550Y-118988371D02*
X180540550Y-118893133D01*
X180540550Y-118893133D02*
X180516740Y-118845514D01*
X180516740Y-118845514D02*
X180492931Y-118821704D01*
X180492931Y-118821704D02*
X180445312Y-118797895D01*
X126226741Y-64767419D02*
X126179122Y-64743609D01*
X126179122Y-64743609D02*
X126107693Y-64743609D01*
X126107693Y-64743609D02*
X126036265Y-64767419D01*
X126036265Y-64767419D02*
X125988646Y-64815038D01*
X125988646Y-64815038D02*
X125964836Y-64862657D01*
X125964836Y-64862657D02*
X125941027Y-64957895D01*
X125941027Y-64957895D02*
X125941027Y-65029323D01*
X125941027Y-65029323D02*
X125964836Y-65124561D01*
X125964836Y-65124561D02*
X125988646Y-65172180D01*
X125988646Y-65172180D02*
X126036265Y-65219800D01*
X126036265Y-65219800D02*
X126107693Y-65243609D01*
X126107693Y-65243609D02*
X126155312Y-65243609D01*
X126155312Y-65243609D02*
X126226741Y-65219800D01*
X126226741Y-65219800D02*
X126250550Y-65195990D01*
X126250550Y-65195990D02*
X126250550Y-65029323D01*
X126250550Y-65029323D02*
X126155312Y-65029323D01*
X126464836Y-65243609D02*
X126464836Y-64743609D01*
X126464836Y-64743609D02*
X126750550Y-65243609D01*
X126750550Y-65243609D02*
X126750550Y-64743609D01*
X126988646Y-65243609D02*
X126988646Y-64743609D01*
X126988646Y-64743609D02*
X127107694Y-64743609D01*
X127107694Y-64743609D02*
X127179122Y-64767419D01*
X127179122Y-64767419D02*
X127226741Y-64815038D01*
X127226741Y-64815038D02*
X127250551Y-64862657D01*
X127250551Y-64862657D02*
X127274360Y-64957895D01*
X127274360Y-64957895D02*
X127274360Y-65029323D01*
X127274360Y-65029323D02*
X127250551Y-65124561D01*
X127250551Y-65124561D02*
X127226741Y-65172180D01*
X127226741Y-65172180D02*
X127179122Y-65219800D01*
X127179122Y-65219800D02*
X127107694Y-65243609D01*
X127107694Y-65243609D02*
X126988646Y-65243609D01*
X132173408Y-64803609D02*
X132459122Y-64803609D01*
X132316265Y-65303609D02*
X132316265Y-64803609D01*
X132578169Y-64803609D02*
X132911502Y-65303609D01*
X132911502Y-64803609D02*
X132578169Y-65303609D01*
X133101978Y-65303609D02*
X133101978Y-64803609D01*
X133101978Y-64803609D02*
X133221026Y-64803609D01*
X133221026Y-64803609D02*
X133292454Y-64827419D01*
X133292454Y-64827419D02*
X133340073Y-64875038D01*
X133340073Y-64875038D02*
X133363883Y-64922657D01*
X133363883Y-64922657D02*
X133387692Y-65017895D01*
X133387692Y-65017895D02*
X133387692Y-65089323D01*
X133387692Y-65089323D02*
X133363883Y-65184561D01*
X133363883Y-65184561D02*
X133340073Y-65232180D01*
X133340073Y-65232180D02*
X133292454Y-65279800D01*
X133292454Y-65279800D02*
X133221026Y-65303609D01*
X133221026Y-65303609D02*
X133101978Y-65303609D01*
X170870550Y-63245990D02*
X170846741Y-63269800D01*
X170846741Y-63269800D02*
X170775312Y-63293609D01*
X170775312Y-63293609D02*
X170727693Y-63293609D01*
X170727693Y-63293609D02*
X170656265Y-63269800D01*
X170656265Y-63269800D02*
X170608646Y-63222180D01*
X170608646Y-63222180D02*
X170584836Y-63174561D01*
X170584836Y-63174561D02*
X170561027Y-63079323D01*
X170561027Y-63079323D02*
X170561027Y-63007895D01*
X170561027Y-63007895D02*
X170584836Y-62912657D01*
X170584836Y-62912657D02*
X170608646Y-62865038D01*
X170608646Y-62865038D02*
X170656265Y-62817419D01*
X170656265Y-62817419D02*
X170727693Y-62793609D01*
X170727693Y-62793609D02*
X170775312Y-62793609D01*
X170775312Y-62793609D02*
X170846741Y-62817419D01*
X170846741Y-62817419D02*
X170870550Y-62841228D01*
X171061027Y-63269800D02*
X171132455Y-63293609D01*
X171132455Y-63293609D02*
X171251503Y-63293609D01*
X171251503Y-63293609D02*
X171299122Y-63269800D01*
X171299122Y-63269800D02*
X171322931Y-63245990D01*
X171322931Y-63245990D02*
X171346741Y-63198371D01*
X171346741Y-63198371D02*
X171346741Y-63150752D01*
X171346741Y-63150752D02*
X171322931Y-63103133D01*
X171322931Y-63103133D02*
X171299122Y-63079323D01*
X171299122Y-63079323D02*
X171251503Y-63055514D01*
X171251503Y-63055514D02*
X171156265Y-63031704D01*
X171156265Y-63031704D02*
X171108646Y-63007895D01*
X171108646Y-63007895D02*
X171084836Y-62984085D01*
X171084836Y-62984085D02*
X171061027Y-62936466D01*
X171061027Y-62936466D02*
X171061027Y-62888847D01*
X171061027Y-62888847D02*
X171084836Y-62841228D01*
X171084836Y-62841228D02*
X171108646Y-62817419D01*
X171108646Y-62817419D02*
X171156265Y-62793609D01*
X171156265Y-62793609D02*
X171275312Y-62793609D01*
X171275312Y-62793609D02*
X171346741Y-62817419D01*
X171822931Y-63293609D02*
X171537217Y-63293609D01*
X171680074Y-63293609D02*
X171680074Y-62793609D01*
X171680074Y-62793609D02*
X171632455Y-62865038D01*
X171632455Y-62865038D02*
X171584836Y-62912657D01*
X171584836Y-62912657D02*
X171537217Y-62936466D01*
D10*
X132146428Y-106113177D02*
X131863094Y-105708415D01*
X131660713Y-106113177D02*
X131660713Y-105263177D01*
X131660713Y-105263177D02*
X131984523Y-105263177D01*
X131984523Y-105263177D02*
X132065475Y-105303653D01*
X132065475Y-105303653D02*
X132105952Y-105344129D01*
X132105952Y-105344129D02*
X132146428Y-105425081D01*
X132146428Y-105425081D02*
X132146428Y-105546510D01*
X132146428Y-105546510D02*
X132105952Y-105627462D01*
X132105952Y-105627462D02*
X132065475Y-105667939D01*
X132065475Y-105667939D02*
X131984523Y-105708415D01*
X131984523Y-105708415D02*
X131660713Y-105708415D01*
X132834523Y-106072701D02*
X132753571Y-106113177D01*
X132753571Y-106113177D02*
X132591666Y-106113177D01*
X132591666Y-106113177D02*
X132510713Y-106072701D01*
X132510713Y-106072701D02*
X132470237Y-105991748D01*
X132470237Y-105991748D02*
X132470237Y-105667939D01*
X132470237Y-105667939D02*
X132510713Y-105586986D01*
X132510713Y-105586986D02*
X132591666Y-105546510D01*
X132591666Y-105546510D02*
X132753571Y-105546510D01*
X132753571Y-105546510D02*
X132834523Y-105586986D01*
X132834523Y-105586986D02*
X132874999Y-105667939D01*
X132874999Y-105667939D02*
X132874999Y-105748891D01*
X132874999Y-105748891D02*
X132470237Y-105829843D01*
X133158332Y-105546510D02*
X133360713Y-106113177D01*
X133360713Y-106113177D02*
X133563094Y-105546510D01*
X133886903Y-106113177D02*
X133886903Y-105546510D01*
X133886903Y-105263177D02*
X133846427Y-105303653D01*
X133846427Y-105303653D02*
X133886903Y-105344129D01*
X133886903Y-105344129D02*
X133927380Y-105303653D01*
X133927380Y-105303653D02*
X133886903Y-105263177D01*
X133886903Y-105263177D02*
X133886903Y-105344129D01*
X134251189Y-106072701D02*
X134332142Y-106113177D01*
X134332142Y-106113177D02*
X134494046Y-106113177D01*
X134494046Y-106113177D02*
X134574999Y-106072701D01*
X134574999Y-106072701D02*
X134615475Y-105991748D01*
X134615475Y-105991748D02*
X134615475Y-105951272D01*
X134615475Y-105951272D02*
X134574999Y-105870320D01*
X134574999Y-105870320D02*
X134494046Y-105829843D01*
X134494046Y-105829843D02*
X134372618Y-105829843D01*
X134372618Y-105829843D02*
X134291665Y-105789367D01*
X134291665Y-105789367D02*
X134251189Y-105708415D01*
X134251189Y-105708415D02*
X134251189Y-105667939D01*
X134251189Y-105667939D02*
X134291665Y-105586986D01*
X134291665Y-105586986D02*
X134372618Y-105546510D01*
X134372618Y-105546510D02*
X134494046Y-105546510D01*
X134494046Y-105546510D02*
X134574999Y-105586986D01*
X134979760Y-106113177D02*
X134979760Y-105546510D01*
X134979760Y-105263177D02*
X134939284Y-105303653D01*
X134939284Y-105303653D02*
X134979760Y-105344129D01*
X134979760Y-105344129D02*
X135020237Y-105303653D01*
X135020237Y-105303653D02*
X134979760Y-105263177D01*
X134979760Y-105263177D02*
X134979760Y-105344129D01*
X135505951Y-106113177D02*
X135424999Y-106072701D01*
X135424999Y-106072701D02*
X135384522Y-106032224D01*
X135384522Y-106032224D02*
X135344046Y-105951272D01*
X135344046Y-105951272D02*
X135344046Y-105708415D01*
X135344046Y-105708415D02*
X135384522Y-105627462D01*
X135384522Y-105627462D02*
X135424999Y-105586986D01*
X135424999Y-105586986D02*
X135505951Y-105546510D01*
X135505951Y-105546510D02*
X135627380Y-105546510D01*
X135627380Y-105546510D02*
X135708332Y-105586986D01*
X135708332Y-105586986D02*
X135748808Y-105627462D01*
X135748808Y-105627462D02*
X135789284Y-105708415D01*
X135789284Y-105708415D02*
X135789284Y-105951272D01*
X135789284Y-105951272D02*
X135748808Y-106032224D01*
X135748808Y-106032224D02*
X135708332Y-106072701D01*
X135708332Y-106072701D02*
X135627380Y-106113177D01*
X135627380Y-106113177D02*
X135505951Y-106113177D01*
X136153570Y-105546510D02*
X136153570Y-106113177D01*
X136153570Y-105627462D02*
X136194047Y-105586986D01*
X136194047Y-105586986D02*
X136274999Y-105546510D01*
X136274999Y-105546510D02*
X136396428Y-105546510D01*
X136396428Y-105546510D02*
X136477380Y-105586986D01*
X136477380Y-105586986D02*
X136517856Y-105667939D01*
X136517856Y-105667939D02*
X136517856Y-106113177D01*
X138015476Y-106113177D02*
X137529761Y-106113177D01*
X137772618Y-106113177D02*
X137772618Y-105263177D01*
X137772618Y-105263177D02*
X137691666Y-105384605D01*
X137691666Y-105384605D02*
X137610714Y-105465558D01*
X137610714Y-105465558D02*
X137529761Y-105506034D01*
X138379761Y-106032224D02*
X138420238Y-106072701D01*
X138420238Y-106072701D02*
X138379761Y-106113177D01*
X138379761Y-106113177D02*
X138339285Y-106072701D01*
X138339285Y-106072701D02*
X138379761Y-106032224D01*
X138379761Y-106032224D02*
X138379761Y-106113177D01*
X138703571Y-105263177D02*
X139229762Y-105263177D01*
X139229762Y-105263177D02*
X138946428Y-105586986D01*
X138946428Y-105586986D02*
X139067857Y-105586986D01*
X139067857Y-105586986D02*
X139148809Y-105627462D01*
X139148809Y-105627462D02*
X139189285Y-105667939D01*
X139189285Y-105667939D02*
X139229762Y-105748891D01*
X139229762Y-105748891D02*
X139229762Y-105951272D01*
X139229762Y-105951272D02*
X139189285Y-106032224D01*
X139189285Y-106032224D02*
X139148809Y-106072701D01*
X139148809Y-106072701D02*
X139067857Y-106113177D01*
X139067857Y-106113177D02*
X138825000Y-106113177D01*
X138825000Y-106113177D02*
X138744047Y-106072701D01*
X138744047Y-106072701D02*
X138703571Y-106032224D01*
G36*
X130570897Y-106842874D02*
G01*
X130610747Y-106861585D01*
X130647250Y-106893975D01*
X130667914Y-106923687D01*
X130683589Y-106960851D01*
X130693786Y-107007084D01*
X130697491Y-107064368D01*
X130693785Y-107124763D01*
X130683712Y-107172281D01*
X130668471Y-107209353D01*
X130648703Y-107237979D01*
X130613217Y-107268984D01*
X130573500Y-107287126D01*
X130527980Y-107293306D01*
X130482090Y-107287068D01*
X130442358Y-107268808D01*
X130407153Y-107237667D01*
X130387745Y-107208989D01*
X130372688Y-107171470D01*
X130362683Y-107122967D01*
X130358988Y-107060890D01*
X130362591Y-107004453D01*
X130372506Y-106958915D01*
X130387731Y-106922326D01*
X130407776Y-106893093D01*
X130443329Y-106861215D01*
X130482315Y-106842787D01*
X130526215Y-106836572D01*
X130570897Y-106842874D01*
G37*
G36*
X129064796Y-106840415D02*
G01*
X129098622Y-106851537D01*
X129128726Y-106869865D01*
X129155753Y-106896051D01*
X129173455Y-106923449D01*
X129186944Y-106960834D01*
X129195251Y-107010961D01*
X128850935Y-107010961D01*
X128859719Y-106960104D01*
X128877886Y-106918420D01*
X128905224Y-106884062D01*
X128940337Y-106857754D01*
X128980192Y-106842003D01*
X129026259Y-106836572D01*
X129064796Y-106840415D01*
G37*
G36*
X131906513Y-106840415D02*
G01*
X131940338Y-106851537D01*
X131970443Y-106869865D01*
X131997470Y-106896051D01*
X132015172Y-106923449D01*
X132028660Y-106960834D01*
X132036967Y-107010961D01*
X131692652Y-107010961D01*
X131701436Y-106960104D01*
X131719603Y-106918420D01*
X131746941Y-106884062D01*
X131782053Y-106857754D01*
X131821908Y-106842003D01*
X131867976Y-106836572D01*
X131906513Y-106840415D01*
G37*
G36*
X132541813Y-106840248D02*
G01*
X132572761Y-106851046D01*
X132601223Y-106869169D01*
X132627711Y-106895532D01*
X132647360Y-106925783D01*
X132662622Y-106965179D01*
X132672760Y-107015902D01*
X132676499Y-107080561D01*
X132672902Y-107138872D01*
X132663074Y-107185293D01*
X132648111Y-107222003D01*
X132628594Y-107250798D01*
X132593660Y-107282273D01*
X132555342Y-107300459D01*
X132512178Y-107306593D01*
X132469483Y-107300291D01*
X132430664Y-107281378D01*
X132394310Y-107248203D01*
X132373914Y-107218065D01*
X132358322Y-107179893D01*
X132348109Y-107131894D01*
X132344380Y-107071894D01*
X132347972Y-107009249D01*
X132357698Y-106960233D01*
X132372314Y-106922282D01*
X132391092Y-106893248D01*
X132425418Y-106861345D01*
X132463717Y-106842845D01*
X132507559Y-106836572D01*
X132541813Y-106840248D01*
G37*
G36*
X133572506Y-106842811D02*
G01*
X133610634Y-106861395D01*
X133645657Y-106893767D01*
X133665039Y-106923150D01*
X133680017Y-106961085D01*
X133689921Y-107009572D01*
X133693563Y-107071011D01*
X133689856Y-107130569D01*
X133679675Y-107178501D01*
X133664084Y-107216882D01*
X133643633Y-107247425D01*
X133616522Y-107274106D01*
X133588103Y-107292274D01*
X133557908Y-107302982D01*
X133525194Y-107306593D01*
X133485498Y-107301636D01*
X133450745Y-107287145D01*
X133419665Y-107262646D01*
X133391651Y-107226353D01*
X133376421Y-107191943D01*
X133365643Y-107140694D01*
X133361444Y-107066963D01*
X133365088Y-107010306D01*
X133375169Y-106964041D01*
X133390747Y-106926362D01*
X133411374Y-106895791D01*
X133438488Y-106869085D01*
X133466908Y-106850901D01*
X133497102Y-106840185D01*
X133529813Y-106836572D01*
X133572506Y-106842811D01*
G37*
G36*
X140032092Y-106613901D02*
G01*
X140082390Y-106628171D01*
X140129050Y-106651854D01*
X140170239Y-106683978D01*
X140204359Y-106723820D01*
X140231815Y-106772369D01*
X140250834Y-106825272D01*
X140262768Y-106885486D01*
X140266953Y-106954233D01*
X140261094Y-107036862D01*
X140244748Y-107105232D01*
X140219175Y-107161836D01*
X140184793Y-107208654D01*
X140140799Y-107247942D01*
X140091993Y-107275618D01*
X140037371Y-107292465D01*
X139975473Y-107298288D01*
X139914773Y-107292562D01*
X139860781Y-107275938D01*
X139812127Y-107248537D01*
X139767867Y-107209537D01*
X139732842Y-107163009D01*
X139707129Y-107108146D01*
X139690897Y-107043332D01*
X139685136Y-106966481D01*
X139689432Y-106885943D01*
X139701253Y-106820461D01*
X139719309Y-106767560D01*
X139742773Y-106725108D01*
X139771344Y-106691403D01*
X139816963Y-106655102D01*
X139865901Y-106629641D01*
X139918946Y-106614282D01*
X139977186Y-106609035D01*
X140032092Y-106613901D01*
G37*
G36*
X128285859Y-106628129D02*
G01*
X128332774Y-106634472D01*
X128363891Y-106643238D01*
X128402278Y-106664010D01*
X128437654Y-106695658D01*
X128470393Y-106740190D01*
X128488127Y-106776443D01*
X128501891Y-106821771D01*
X128510949Y-106878004D01*
X128514250Y-106947226D01*
X128511489Y-107011955D01*
X128503785Y-107066655D01*
X128491880Y-107112688D01*
X128474247Y-107156720D01*
X128453384Y-107192554D01*
X128429494Y-107221370D01*
X128397257Y-107246225D01*
X128353147Y-107265902D01*
X128300604Y-107277183D01*
X128221057Y-107281680D01*
X128039298Y-107281680D01*
X128039298Y-106625644D01*
X128218151Y-106625644D01*
X128285859Y-106628129D01*
G37*
G36*
X143035108Y-107724072D02*
G01*
X127832228Y-107724072D01*
X127832228Y-107281680D01*
X127926672Y-107281680D01*
X127926672Y-107380501D01*
X128233825Y-107380501D01*
X128308690Y-107376643D01*
X128370534Y-107365968D01*
X128426923Y-107347455D01*
X128472157Y-107323149D01*
X128511703Y-107290541D01*
X128549647Y-107245712D01*
X128580919Y-107192098D01*
X128607724Y-107121408D01*
X128618508Y-107076824D01*
X128737115Y-107076824D01*
X128742697Y-107151911D01*
X128758343Y-107214497D01*
X128782981Y-107266784D01*
X128816369Y-107310485D01*
X128858512Y-107346266D01*
X128907363Y-107372067D01*
X128964234Y-107388134D01*
X129030930Y-107393787D01*
X129084584Y-107390201D01*
X129131202Y-107379991D01*
X129171862Y-107363709D01*
X129207447Y-107341522D01*
X129248050Y-107302712D01*
X129279554Y-107254307D01*
X129302116Y-107194537D01*
X129299177Y-107194174D01*
X129391179Y-107194174D01*
X129403460Y-107242789D01*
X129421121Y-107283061D01*
X129443801Y-107316292D01*
X129471575Y-107343443D01*
X129503930Y-107364114D01*
X129544103Y-107379842D01*
X129593732Y-107390076D01*
X129654787Y-107393787D01*
X129702634Y-107390840D01*
X129745772Y-107382325D01*
X129750952Y-107380501D01*
X130028168Y-107380501D01*
X130132645Y-107380501D01*
X130132645Y-107068416D01*
X130251552Y-107068416D01*
X130256144Y-107131963D01*
X130269446Y-107189220D01*
X130291095Y-107241191D01*
X130321204Y-107288687D01*
X130359403Y-107328655D01*
X130403987Y-107356943D01*
X130456218Y-107374376D01*
X130518067Y-107380501D01*
X130567259Y-107375375D01*
X130611403Y-107360382D01*
X130651674Y-107335357D01*
X130688823Y-107299171D01*
X130686651Y-107392242D01*
X130681245Y-107432662D01*
X130668823Y-107465361D01*
X130651081Y-107492004D01*
X130627839Y-107513524D01*
X130600003Y-107528738D01*
X130563448Y-107538737D01*
X130515783Y-107542434D01*
X130471692Y-107538818D01*
X130436899Y-107528895D01*
X130409489Y-107513524D01*
X130393255Y-107497259D01*
X130381366Y-107475069D01*
X130374092Y-107445326D01*
X130272468Y-107430326D01*
X130276081Y-107479324D01*
X130288475Y-107519450D01*
X130308987Y-107552586D01*
X130338072Y-107579958D01*
X130372904Y-107600832D01*
X130413513Y-107616329D01*
X130460921Y-107626150D01*
X130516354Y-107629628D01*
X130577491Y-107625400D01*
X130629126Y-107613506D01*
X130672837Y-107594750D01*
X130712005Y-107568236D01*
X130742656Y-107536738D01*
X130765741Y-107499822D01*
X130780245Y-107458063D01*
X130790857Y-107392799D01*
X130795066Y-107295745D01*
X130795066Y-106762664D01*
X130952639Y-106762664D01*
X130952639Y-107380501D01*
X131057169Y-107380501D01*
X131057169Y-107042829D01*
X131061079Y-106981527D01*
X131071393Y-106936548D01*
X131086508Y-106904205D01*
X131105645Y-106881570D01*
X131139954Y-106857978D01*
X131177987Y-106843888D01*
X131220918Y-106839063D01*
X131260653Y-106843963D01*
X131293788Y-106858007D01*
X131320325Y-106880333D01*
X131337022Y-106908663D01*
X131345639Y-106944515D01*
X131349219Y-107004421D01*
X131349219Y-107380501D01*
X131453749Y-107380501D01*
X131453749Y-107076824D01*
X131578832Y-107076824D01*
X131584414Y-107151911D01*
X131600060Y-107214497D01*
X131624697Y-107266784D01*
X131658086Y-107310485D01*
X131700229Y-107346266D01*
X131749079Y-107372067D01*
X131805950Y-107388134D01*
X131872647Y-107393787D01*
X131926301Y-107390201D01*
X131972918Y-107379991D01*
X132013578Y-107363709D01*
X132049164Y-107341522D01*
X132089767Y-107302712D01*
X132121270Y-107254307D01*
X132143833Y-107194537D01*
X132035825Y-107181198D01*
X132016908Y-107223047D01*
X131995358Y-107254227D01*
X131971364Y-107276697D01*
X131942960Y-107293062D01*
X131910570Y-107303098D01*
X131873218Y-107306593D01*
X131824010Y-107300483D01*
X131781589Y-107282738D01*
X131744294Y-107252926D01*
X131722379Y-107224788D01*
X131705276Y-107190450D01*
X131693208Y-107148733D01*
X131686839Y-107098156D01*
X132146687Y-107098156D01*
X132147268Y-107072153D01*
X132236944Y-107072153D01*
X132240937Y-107134495D01*
X132252414Y-107189994D01*
X132270888Y-107239640D01*
X132297121Y-107285324D01*
X132328965Y-107322851D01*
X132366698Y-107353148D01*
X132409424Y-107375792D01*
X132454355Y-107389250D01*
X132502317Y-107393787D01*
X132557084Y-107387793D01*
X132602922Y-107370709D01*
X132641787Y-107342764D01*
X132674786Y-107302700D01*
X132674786Y-107380501D01*
X132771738Y-107380501D01*
X132771738Y-107066963D01*
X133265634Y-107066963D01*
X133265634Y-107380501D01*
X133362586Y-107380501D01*
X133362586Y-107301351D01*
X133397336Y-107342468D01*
X133436744Y-107370806D01*
X133481720Y-107387878D01*
X133533913Y-107393787D01*
X133586765Y-107388393D01*
X133635039Y-107372517D01*
X133679868Y-107345892D01*
X133722005Y-107307319D01*
X133754807Y-107262205D01*
X133779222Y-107207676D01*
X133794833Y-107141834D01*
X133800428Y-107062292D01*
X133795690Y-106996948D01*
X133781847Y-106936897D01*
X133759225Y-106881601D01*
X133730465Y-106836779D01*
X133693428Y-106800110D01*
X133646851Y-106772317D01*
X133617512Y-106762664D01*
X133868004Y-106762664D01*
X134102028Y-107380501D01*
X134092738Y-107406555D01*
X134071348Y-107463798D01*
X134060767Y-107485809D01*
X134045437Y-107504859D01*
X134026511Y-107518974D01*
X134003500Y-107527552D01*
X133970769Y-107530808D01*
X133944353Y-107528683D01*
X133910978Y-107521517D01*
X133922604Y-107617224D01*
X133959162Y-107626733D01*
X133989973Y-107629628D01*
X134022522Y-107626800D01*
X134050896Y-107618680D01*
X134075870Y-107605494D01*
X134108598Y-107575995D01*
X134139761Y-107529770D01*
X134161708Y-107483101D01*
X134198410Y-107389791D01*
X134201885Y-107380501D01*
X134861037Y-107380501D01*
X134973716Y-107380501D01*
X134973716Y-107084869D01*
X135113072Y-106948368D01*
X135416125Y-107380501D01*
X135564771Y-107380501D01*
X135630271Y-107380501D01*
X136276550Y-107380501D01*
X136276550Y-107281680D01*
X135630271Y-107281680D01*
X135630271Y-107380501D01*
X135564771Y-107380501D01*
X135288548Y-107004318D01*
X135700546Y-107004318D01*
X136206275Y-107004318D01*
X136206275Y-106905497D01*
X135700546Y-106905497D01*
X135700546Y-107004318D01*
X135288548Y-107004318D01*
X135192014Y-106872851D01*
X135447119Y-106625644D01*
X135645997Y-106625644D01*
X136260876Y-106625644D01*
X136260876Y-106526823D01*
X136345371Y-106526823D01*
X136675154Y-107380501D01*
X136790739Y-107380501D01*
X137244100Y-107380501D01*
X137356726Y-107380501D01*
X137554264Y-107380501D01*
X137662271Y-107380501D01*
X137662271Y-106709672D01*
X138109403Y-107380501D01*
X138224936Y-107380501D01*
X138748104Y-107380501D01*
X138860731Y-107380501D01*
X138860731Y-106977744D01*
X139303192Y-106977744D01*
X139303192Y-107380501D01*
X139415818Y-107380501D01*
X139415818Y-106964976D01*
X139569032Y-106964976D01*
X139569143Y-106966481D01*
X139574473Y-107038529D01*
X139590666Y-107109063D01*
X139617768Y-107177358D01*
X139645205Y-107225166D01*
X139678061Y-107267201D01*
X139716565Y-107303967D01*
X139761172Y-107335761D01*
X139809593Y-107360928D01*
X139861167Y-107378994D01*
X139916437Y-107390019D01*
X139976044Y-107393787D01*
X140048641Y-107387896D01*
X140077696Y-107380501D01*
X140443003Y-107380501D01*
X140557965Y-107380501D01*
X140787889Y-106760692D01*
X140812355Y-106690454D01*
X140833199Y-106620298D01*
X140877939Y-106760692D01*
X141099143Y-107380501D01*
X141221683Y-107380501D01*
X141321905Y-107380501D01*
X141429912Y-107380501D01*
X141429912Y-106709672D01*
X141877044Y-107380501D01*
X141992577Y-107380501D01*
X141992577Y-106957710D01*
X142153265Y-106957710D01*
X142159275Y-107040053D01*
X142176803Y-107115351D01*
X142205530Y-107184780D01*
X142234909Y-107232727D01*
X142270220Y-107274265D01*
X142311794Y-107309953D01*
X142360248Y-107340069D01*
X142430319Y-107369647D01*
X142505915Y-107387634D01*
X142588200Y-107393787D01*
X142649538Y-107390089D01*
X142709779Y-107379009D01*
X142769337Y-107360415D01*
X142826548Y-107335070D01*
X142883576Y-107302105D01*
X142940664Y-107260919D01*
X142940664Y-106944787D01*
X142580052Y-106945357D01*
X142580052Y-107044178D01*
X142830321Y-107044178D01*
X142830321Y-107204450D01*
X142788982Y-107233592D01*
X142724598Y-107264397D01*
X142677512Y-107280066D01*
X142630040Y-107289374D01*
X142581816Y-107292475D01*
X142526564Y-107288317D01*
X142473724Y-107275951D01*
X142422686Y-107255262D01*
X142376779Y-107226103D01*
X142338996Y-107188437D01*
X142308606Y-107141286D01*
X142287640Y-107088648D01*
X142274221Y-107025705D01*
X142269421Y-106950444D01*
X142273132Y-106889478D01*
X142284023Y-106832476D01*
X142301911Y-106778857D01*
X142324826Y-106735001D01*
X142355629Y-106694569D01*
X142394688Y-106660520D01*
X142446509Y-106632598D01*
X142484757Y-106619914D01*
X142528948Y-106611875D01*
X142580052Y-106609035D01*
X142642450Y-106614776D01*
X142697349Y-106631353D01*
X142730962Y-106648513D01*
X142757731Y-106668300D01*
X142778627Y-106690676D01*
X142803622Y-106732215D01*
X142826273Y-106792559D01*
X142927896Y-106764688D01*
X142910003Y-106709025D01*
X142888373Y-106663331D01*
X142863383Y-106626163D01*
X142832459Y-106594102D01*
X142793859Y-106566468D01*
X142746396Y-106543276D01*
X142695868Y-106527043D01*
X142640470Y-106517004D01*
X142579481Y-106513536D01*
X142496025Y-106519640D01*
X142421599Y-106537249D01*
X142354747Y-106565801D01*
X142309195Y-106595118D01*
X142269334Y-106631144D01*
X142234723Y-106674409D01*
X142205218Y-106725762D01*
X142176458Y-106799064D01*
X142159131Y-106876077D01*
X142153265Y-106957710D01*
X141992577Y-106957710D01*
X141992577Y-106526823D01*
X141884570Y-106526823D01*
X141884570Y-107197080D01*
X141437490Y-106526823D01*
X141321905Y-106526823D01*
X141321905Y-107380501D01*
X141221683Y-107380501D01*
X140891848Y-106526823D01*
X140775744Y-106526823D01*
X140443003Y-107380501D01*
X140077696Y-107380501D01*
X140117229Y-107370439D01*
X140182768Y-107341263D01*
X140227799Y-107312017D01*
X140267234Y-107276812D01*
X140301504Y-107235243D01*
X140330792Y-107186648D01*
X140359413Y-107116842D01*
X140376993Y-107040101D01*
X140383057Y-106955115D01*
X140377279Y-106871165D01*
X140360552Y-106795483D01*
X140333387Y-106726800D01*
X140305499Y-106678846D01*
X140272335Y-106637031D01*
X140233683Y-106600808D01*
X140189100Y-106569849D01*
X140140750Y-106545386D01*
X140089566Y-106527853D01*
X140035049Y-106517176D01*
X139976615Y-106513536D01*
X139905211Y-106518630D01*
X139841169Y-106533353D01*
X139783329Y-106557253D01*
X139730758Y-106590398D01*
X139682800Y-106633377D01*
X139643290Y-106682794D01*
X139611972Y-106739455D01*
X139588790Y-106804420D01*
X139574176Y-106879056D01*
X139569032Y-106964976D01*
X139415818Y-106964976D01*
X139415818Y-106526823D01*
X139303192Y-106526823D01*
X139303192Y-106878923D01*
X138860731Y-106878923D01*
X138860731Y-106526823D01*
X138748104Y-106526823D01*
X138748104Y-107380501D01*
X138224936Y-107380501D01*
X138224936Y-106526823D01*
X138116929Y-106526823D01*
X138116929Y-107197080D01*
X137669848Y-106526823D01*
X137554264Y-106526823D01*
X137554264Y-107380501D01*
X137356726Y-107380501D01*
X137356726Y-106526823D01*
X137244100Y-106526823D01*
X137244100Y-107380501D01*
X136790739Y-107380501D01*
X137123999Y-106526823D01*
X137009037Y-106526823D01*
X136779113Y-107147203D01*
X136733232Y-107287026D01*
X136688545Y-107147203D01*
X136467288Y-106526823D01*
X136345371Y-106526823D01*
X136260876Y-106526823D01*
X135645997Y-106526823D01*
X135645997Y-106625644D01*
X135447119Y-106625644D01*
X135549097Y-106526823D01*
X135396402Y-106526823D01*
X134973716Y-106950703D01*
X134973716Y-106526823D01*
X134861037Y-106526823D01*
X134861037Y-107380501D01*
X134201885Y-107380501D01*
X134433005Y-106762664D01*
X134328475Y-106762664D01*
X134196645Y-107122082D01*
X134173462Y-107191359D01*
X134153670Y-107262632D01*
X134132445Y-107188861D01*
X134108983Y-107119799D01*
X133980682Y-106762664D01*
X133868004Y-106762664D01*
X133617512Y-106762664D01*
X133594646Y-106755141D01*
X133539103Y-106749377D01*
X133489778Y-106754693D01*
X133445951Y-106770205D01*
X133406340Y-106796091D01*
X133370164Y-106833613D01*
X133370164Y-106526823D01*
X133265634Y-106526823D01*
X133265634Y-107066963D01*
X132771738Y-107066963D01*
X132771738Y-106526823D01*
X132667779Y-106526823D01*
X132667779Y-106834703D01*
X132636668Y-106800510D01*
X132596934Y-106773044D01*
X132551062Y-106755467D01*
X132497646Y-106749377D01*
X132448149Y-106753907D01*
X132402581Y-106767233D01*
X132360055Y-106789445D01*
X132322900Y-106819596D01*
X132292215Y-106857631D01*
X132267722Y-106904718D01*
X132250893Y-106955666D01*
X132240519Y-107011241D01*
X132236959Y-107071894D01*
X132236944Y-107072153D01*
X132147268Y-107072153D01*
X132147310Y-107070285D01*
X132141759Y-106993936D01*
X132126227Y-106930455D01*
X132101834Y-106877587D01*
X132068887Y-106833561D01*
X132027023Y-106796839D01*
X131980142Y-106770823D01*
X131927230Y-106754902D01*
X131866834Y-106749377D01*
X131804394Y-106755041D01*
X131749876Y-106771333D01*
X131701756Y-106797902D01*
X131658968Y-106835326D01*
X131625291Y-106880281D01*
X131600366Y-106934234D01*
X131584501Y-106998984D01*
X131583629Y-107010961D01*
X131578832Y-107076824D01*
X131453749Y-107076824D01*
X131453749Y-107000996D01*
X131451959Y-106933821D01*
X131447936Y-106899321D01*
X131434886Y-106856994D01*
X131415394Y-106822039D01*
X131387374Y-106793436D01*
X131345430Y-106769463D01*
X131297038Y-106754512D01*
X131242976Y-106749377D01*
X131192615Y-106753661D01*
X131148844Y-106765936D01*
X131110460Y-106785813D01*
X131076585Y-106813558D01*
X131046737Y-106850066D01*
X131046737Y-106762664D01*
X130952639Y-106762664D01*
X130795066Y-106762664D01*
X130698684Y-106762664D01*
X130698684Y-106838336D01*
X130660024Y-106798720D01*
X130617774Y-106771376D01*
X130571109Y-106754990D01*
X130518690Y-106749377D01*
X130465338Y-106754102D01*
X130418208Y-106767750D01*
X130376116Y-106790068D01*
X130339355Y-106820466D01*
X130308549Y-106858559D01*
X130283472Y-106905445D01*
X130265914Y-106956075D01*
X130255208Y-107010195D01*
X130252025Y-107060890D01*
X130251552Y-107068416D01*
X130132645Y-107068416D01*
X130132645Y-106762664D01*
X130028168Y-106762664D01*
X130028168Y-107380501D01*
X129750952Y-107380501D01*
X129784853Y-107368563D01*
X129820972Y-107348904D01*
X129849992Y-107325179D01*
X129872826Y-107297250D01*
X129889922Y-107265411D01*
X129899950Y-107232817D01*
X129903292Y-107198897D01*
X129900310Y-107164092D01*
X129891862Y-107134652D01*
X129878328Y-107109574D01*
X129849009Y-107078183D01*
X129809506Y-107054766D01*
X129756973Y-107035788D01*
X129654787Y-107006342D01*
X129562454Y-106979768D01*
X129537926Y-106966761D01*
X129522386Y-106952053D01*
X129512797Y-106934848D01*
X129509619Y-106915670D01*
X129512852Y-106895929D01*
X129522706Y-106877687D01*
X129540396Y-106860239D01*
X129562400Y-106848235D01*
X129595360Y-106839838D01*
X129643161Y-106836572D01*
X129683001Y-106839983D01*
X129713798Y-106849279D01*
X129737519Y-106863612D01*
X129756573Y-106883587D01*
X129770016Y-106908262D01*
X129777898Y-106938714D01*
X129880092Y-106924753D01*
X129865404Y-106868250D01*
X129844073Y-106827956D01*
X129824509Y-106806396D01*
X129797978Y-106787228D01*
X129763054Y-106770553D01*
X129705466Y-106754957D01*
X129635636Y-106749377D01*
X129588433Y-106752576D01*
X129545327Y-106761885D01*
X129506044Y-106776519D01*
X129478841Y-106792403D01*
X129449749Y-106818641D01*
X129427458Y-106850845D01*
X129413328Y-106887355D01*
X129408566Y-106927244D01*
X129414344Y-106970760D01*
X129431507Y-107010079D01*
X129459340Y-107043072D01*
X129498875Y-107068779D01*
X129552541Y-107089240D01*
X129658265Y-107119020D01*
X129735403Y-107141048D01*
X129765130Y-107154106D01*
X129782473Y-107169493D01*
X129792481Y-107187579D01*
X129795908Y-107209329D01*
X129792177Y-107233851D01*
X129780920Y-107256310D01*
X129761030Y-107277528D01*
X129736079Y-107292662D01*
X129701484Y-107302780D01*
X129654216Y-107306593D01*
X129607678Y-107302449D01*
X129571338Y-107291090D01*
X129542991Y-107273427D01*
X129520494Y-107248856D01*
X129504272Y-107217545D01*
X129494515Y-107177877D01*
X129391179Y-107194174D01*
X129299177Y-107194174D01*
X129194109Y-107181198D01*
X129175191Y-107223047D01*
X129153641Y-107254227D01*
X129129647Y-107276697D01*
X129101243Y-107293062D01*
X129068853Y-107303098D01*
X129031501Y-107306593D01*
X128982293Y-107300483D01*
X128939872Y-107282738D01*
X128902577Y-107252926D01*
X128880662Y-107224788D01*
X128863559Y-107190450D01*
X128851491Y-107148733D01*
X128845122Y-107098156D01*
X129304971Y-107098156D01*
X129305593Y-107070285D01*
X129300042Y-106993936D01*
X129284511Y-106930455D01*
X129260117Y-106877587D01*
X129227170Y-106833561D01*
X129185306Y-106796839D01*
X129138425Y-106770823D01*
X129085513Y-106754902D01*
X129025117Y-106749377D01*
X128962677Y-106755041D01*
X128908159Y-106771333D01*
X128860040Y-106797902D01*
X128817251Y-106835326D01*
X128783575Y-106880281D01*
X128758649Y-106934234D01*
X128742784Y-106998984D01*
X128741912Y-107010961D01*
X128737115Y-107076824D01*
X128618508Y-107076824D01*
X128619960Y-107070819D01*
X128627692Y-107013626D01*
X128630405Y-106948991D01*
X128626448Y-106873447D01*
X128615105Y-106806145D01*
X128596981Y-106746055D01*
X128570535Y-106689640D01*
X128540554Y-106646404D01*
X130028168Y-106646404D01*
X130132645Y-106646404D01*
X130132645Y-106526823D01*
X130028168Y-106526823D01*
X130028168Y-106646404D01*
X128540554Y-106646404D01*
X128537040Y-106641337D01*
X128496292Y-106600212D01*
X128459993Y-106574072D01*
X128418621Y-106553680D01*
X128371416Y-106539072D01*
X128313283Y-106530386D01*
X128219864Y-106526823D01*
X127926672Y-106526823D01*
X127926672Y-107281680D01*
X127832228Y-107281680D01*
X127832228Y-106419092D01*
X143035108Y-106419092D01*
X143035108Y-107724072D01*
G37*
D11*
X160035990Y-64710401D02*
X160059800Y-64734210D01*
X160059800Y-64734210D02*
X160083609Y-64805639D01*
X160083609Y-64805639D02*
X160083609Y-64853258D01*
X160083609Y-64853258D02*
X160059800Y-64924686D01*
X160059800Y-64924686D02*
X160012180Y-64972305D01*
X160012180Y-64972305D02*
X159964561Y-64996115D01*
X159964561Y-64996115D02*
X159869323Y-65019924D01*
X159869323Y-65019924D02*
X159797895Y-65019924D01*
X159797895Y-65019924D02*
X159702657Y-64996115D01*
X159702657Y-64996115D02*
X159655038Y-64972305D01*
X159655038Y-64972305D02*
X159607419Y-64924686D01*
X159607419Y-64924686D02*
X159583609Y-64853258D01*
X159583609Y-64853258D02*
X159583609Y-64805639D01*
X159583609Y-64805639D02*
X159607419Y-64734210D01*
X159607419Y-64734210D02*
X159631228Y-64710401D01*
X160083609Y-64258020D02*
X160083609Y-64496115D01*
X160083609Y-64496115D02*
X159583609Y-64496115D01*
X160083609Y-64091353D02*
X159583609Y-64091353D01*
X160083609Y-63805639D02*
X159797895Y-64019924D01*
X159583609Y-63805639D02*
X159869323Y-64091353D01*
X158533609Y-65400877D02*
X158033609Y-65400877D01*
X158033609Y-65400877D02*
X158390752Y-65234210D01*
X158390752Y-65234210D02*
X158033609Y-65067544D01*
X158033609Y-65067544D02*
X158533609Y-65067544D01*
X158533609Y-64829448D02*
X158033609Y-64829448D01*
X158509800Y-64615162D02*
X158533609Y-64543734D01*
X158533609Y-64543734D02*
X158533609Y-64424686D01*
X158533609Y-64424686D02*
X158509800Y-64377067D01*
X158509800Y-64377067D02*
X158485990Y-64353258D01*
X158485990Y-64353258D02*
X158438371Y-64329448D01*
X158438371Y-64329448D02*
X158390752Y-64329448D01*
X158390752Y-64329448D02*
X158343133Y-64353258D01*
X158343133Y-64353258D02*
X158319323Y-64377067D01*
X158319323Y-64377067D02*
X158295514Y-64424686D01*
X158295514Y-64424686D02*
X158271704Y-64519924D01*
X158271704Y-64519924D02*
X158247895Y-64567543D01*
X158247895Y-64567543D02*
X158224085Y-64591353D01*
X158224085Y-64591353D02*
X158176466Y-64615162D01*
X158176466Y-64615162D02*
X158128847Y-64615162D01*
X158128847Y-64615162D02*
X158081228Y-64591353D01*
X158081228Y-64591353D02*
X158057419Y-64567543D01*
X158057419Y-64567543D02*
X158033609Y-64519924D01*
X158033609Y-64519924D02*
X158033609Y-64400877D01*
X158033609Y-64400877D02*
X158057419Y-64329448D01*
X158033609Y-64019925D02*
X158033609Y-63924687D01*
X158033609Y-63924687D02*
X158057419Y-63877068D01*
X158057419Y-63877068D02*
X158105038Y-63829449D01*
X158105038Y-63829449D02*
X158200276Y-63805639D01*
X158200276Y-63805639D02*
X158366942Y-63805639D01*
X158366942Y-63805639D02*
X158462180Y-63829449D01*
X158462180Y-63829449D02*
X158509800Y-63877068D01*
X158509800Y-63877068D02*
X158533609Y-63924687D01*
X158533609Y-63924687D02*
X158533609Y-64019925D01*
X158533609Y-64019925D02*
X158509800Y-64067544D01*
X158509800Y-64067544D02*
X158462180Y-64115163D01*
X158462180Y-64115163D02*
X158366942Y-64138972D01*
X158366942Y-64138972D02*
X158200276Y-64138972D01*
X158200276Y-64138972D02*
X158105038Y-64115163D01*
X158105038Y-64115163D02*
X158057419Y-64067544D01*
X158057419Y-64067544D02*
X158033609Y-64019925D01*
X149214836Y-97063133D02*
X149595789Y-97063133D01*
X149405312Y-97253609D02*
X149405312Y-96872657D01*
X149786265Y-96753609D02*
X150095789Y-96753609D01*
X150095789Y-96753609D02*
X149929122Y-96944085D01*
X149929122Y-96944085D02*
X150000551Y-96944085D01*
X150000551Y-96944085D02*
X150048170Y-96967895D01*
X150048170Y-96967895D02*
X150071979Y-96991704D01*
X150071979Y-96991704D02*
X150095789Y-97039323D01*
X150095789Y-97039323D02*
X150095789Y-97158371D01*
X150095789Y-97158371D02*
X150071979Y-97205990D01*
X150071979Y-97205990D02*
X150048170Y-97229800D01*
X150048170Y-97229800D02*
X150000551Y-97253609D01*
X150000551Y-97253609D02*
X149857694Y-97253609D01*
X149857694Y-97253609D02*
X149810075Y-97229800D01*
X149810075Y-97229800D02*
X149786265Y-97205990D01*
X150238646Y-96753609D02*
X150405312Y-97253609D01*
X150405312Y-97253609D02*
X150571979Y-96753609D01*
X150691026Y-96753609D02*
X151000550Y-96753609D01*
X151000550Y-96753609D02*
X150833883Y-96944085D01*
X150833883Y-96944085D02*
X150905312Y-96944085D01*
X150905312Y-96944085D02*
X150952931Y-96967895D01*
X150952931Y-96967895D02*
X150976740Y-96991704D01*
X150976740Y-96991704D02*
X151000550Y-97039323D01*
X151000550Y-97039323D02*
X151000550Y-97158371D01*
X151000550Y-97158371D02*
X150976740Y-97205990D01*
X150976740Y-97205990D02*
X150952931Y-97229800D01*
X150952931Y-97229800D02*
X150905312Y-97253609D01*
X150905312Y-97253609D02*
X150762455Y-97253609D01*
X150762455Y-97253609D02*
X150714836Y-97229800D01*
X150714836Y-97229800D02*
X150691026Y-97205990D01*
X156983609Y-65400877D02*
X156483609Y-65400877D01*
X156483609Y-65400877D02*
X156840752Y-65234210D01*
X156840752Y-65234210D02*
X156483609Y-65067544D01*
X156483609Y-65067544D02*
X156983609Y-65067544D01*
X156483609Y-64734210D02*
X156483609Y-64638972D01*
X156483609Y-64638972D02*
X156507419Y-64591353D01*
X156507419Y-64591353D02*
X156555038Y-64543734D01*
X156555038Y-64543734D02*
X156650276Y-64519924D01*
X156650276Y-64519924D02*
X156816942Y-64519924D01*
X156816942Y-64519924D02*
X156912180Y-64543734D01*
X156912180Y-64543734D02*
X156959800Y-64591353D01*
X156959800Y-64591353D02*
X156983609Y-64638972D01*
X156983609Y-64638972D02*
X156983609Y-64734210D01*
X156983609Y-64734210D02*
X156959800Y-64781829D01*
X156959800Y-64781829D02*
X156912180Y-64829448D01*
X156912180Y-64829448D02*
X156816942Y-64853257D01*
X156816942Y-64853257D02*
X156650276Y-64853257D01*
X156650276Y-64853257D02*
X156555038Y-64829448D01*
X156555038Y-64829448D02*
X156507419Y-64781829D01*
X156507419Y-64781829D02*
X156483609Y-64734210D01*
X156959800Y-64329447D02*
X156983609Y-64258019D01*
X156983609Y-64258019D02*
X156983609Y-64138971D01*
X156983609Y-64138971D02*
X156959800Y-64091352D01*
X156959800Y-64091352D02*
X156935990Y-64067543D01*
X156935990Y-64067543D02*
X156888371Y-64043733D01*
X156888371Y-64043733D02*
X156840752Y-64043733D01*
X156840752Y-64043733D02*
X156793133Y-64067543D01*
X156793133Y-64067543D02*
X156769323Y-64091352D01*
X156769323Y-64091352D02*
X156745514Y-64138971D01*
X156745514Y-64138971D02*
X156721704Y-64234209D01*
X156721704Y-64234209D02*
X156697895Y-64281828D01*
X156697895Y-64281828D02*
X156674085Y-64305638D01*
X156674085Y-64305638D02*
X156626466Y-64329447D01*
X156626466Y-64329447D02*
X156578847Y-64329447D01*
X156578847Y-64329447D02*
X156531228Y-64305638D01*
X156531228Y-64305638D02*
X156507419Y-64281828D01*
X156507419Y-64281828D02*
X156483609Y-64234209D01*
X156483609Y-64234209D02*
X156483609Y-64115162D01*
X156483609Y-64115162D02*
X156507419Y-64043733D01*
X156983609Y-63829448D02*
X156483609Y-63829448D01*
X155385990Y-64758019D02*
X155409800Y-64781828D01*
X155409800Y-64781828D02*
X155433609Y-64853257D01*
X155433609Y-64853257D02*
X155433609Y-64900876D01*
X155433609Y-64900876D02*
X155409800Y-64972304D01*
X155409800Y-64972304D02*
X155362180Y-65019923D01*
X155362180Y-65019923D02*
X155314561Y-65043733D01*
X155314561Y-65043733D02*
X155219323Y-65067542D01*
X155219323Y-65067542D02*
X155147895Y-65067542D01*
X155147895Y-65067542D02*
X155052657Y-65043733D01*
X155052657Y-65043733D02*
X155005038Y-65019923D01*
X155005038Y-65019923D02*
X154957419Y-64972304D01*
X154957419Y-64972304D02*
X154933609Y-64900876D01*
X154933609Y-64900876D02*
X154933609Y-64853257D01*
X154933609Y-64853257D02*
X154957419Y-64781828D01*
X154957419Y-64781828D02*
X154981228Y-64758019D01*
X155409800Y-64567542D02*
X155433609Y-64496114D01*
X155433609Y-64496114D02*
X155433609Y-64377066D01*
X155433609Y-64377066D02*
X155409800Y-64329447D01*
X155409800Y-64329447D02*
X155385990Y-64305638D01*
X155385990Y-64305638D02*
X155338371Y-64281828D01*
X155338371Y-64281828D02*
X155290752Y-64281828D01*
X155290752Y-64281828D02*
X155243133Y-64305638D01*
X155243133Y-64305638D02*
X155219323Y-64329447D01*
X155219323Y-64329447D02*
X155195514Y-64377066D01*
X155195514Y-64377066D02*
X155171704Y-64472304D01*
X155171704Y-64472304D02*
X155147895Y-64519923D01*
X155147895Y-64519923D02*
X155124085Y-64543733D01*
X155124085Y-64543733D02*
X155076466Y-64567542D01*
X155076466Y-64567542D02*
X155028847Y-64567542D01*
X155028847Y-64567542D02*
X154981228Y-64543733D01*
X154981228Y-64543733D02*
X154957419Y-64519923D01*
X154957419Y-64519923D02*
X154933609Y-64472304D01*
X154933609Y-64472304D02*
X154933609Y-64353257D01*
X154933609Y-64353257D02*
X154957419Y-64281828D01*
X154933609Y-63972305D02*
X154933609Y-63924686D01*
X154933609Y-63924686D02*
X154957419Y-63877067D01*
X154957419Y-63877067D02*
X154981228Y-63853257D01*
X154981228Y-63853257D02*
X155028847Y-63829448D01*
X155028847Y-63829448D02*
X155124085Y-63805638D01*
X155124085Y-63805638D02*
X155243133Y-63805638D01*
X155243133Y-63805638D02*
X155338371Y-63829448D01*
X155338371Y-63829448D02*
X155385990Y-63853257D01*
X155385990Y-63853257D02*
X155409800Y-63877067D01*
X155409800Y-63877067D02*
X155433609Y-63924686D01*
X155433609Y-63924686D02*
X155433609Y-63972305D01*
X155433609Y-63972305D02*
X155409800Y-64019924D01*
X155409800Y-64019924D02*
X155385990Y-64043733D01*
X155385990Y-64043733D02*
X155338371Y-64067543D01*
X155338371Y-64067543D02*
X155243133Y-64091352D01*
X155243133Y-64091352D02*
X155124085Y-64091352D01*
X155124085Y-64091352D02*
X155028847Y-64067543D01*
X155028847Y-64067543D02*
X154981228Y-64043733D01*
X154981228Y-64043733D02*
X154957419Y-64019924D01*
X154957419Y-64019924D02*
X154933609Y-63972305D01*
X128840550Y-65243609D02*
X128673884Y-65005514D01*
X128554836Y-65243609D02*
X128554836Y-64743609D01*
X128554836Y-64743609D02*
X128745312Y-64743609D01*
X128745312Y-64743609D02*
X128792931Y-64767419D01*
X128792931Y-64767419D02*
X128816741Y-64791228D01*
X128816741Y-64791228D02*
X128840550Y-64838847D01*
X128840550Y-64838847D02*
X128840550Y-64910276D01*
X128840550Y-64910276D02*
X128816741Y-64957895D01*
X128816741Y-64957895D02*
X128792931Y-64981704D01*
X128792931Y-64981704D02*
X128745312Y-65005514D01*
X128745312Y-65005514D02*
X128554836Y-65005514D01*
X129007217Y-64743609D02*
X129340550Y-65243609D01*
X129340550Y-64743609D02*
X129007217Y-65243609D01*
X129531026Y-65243609D02*
X129531026Y-64743609D01*
X129531026Y-64743609D02*
X129650074Y-64743609D01*
X129650074Y-64743609D02*
X129721502Y-64767419D01*
X129721502Y-64767419D02*
X129769121Y-64815038D01*
X129769121Y-64815038D02*
X129792931Y-64862657D01*
X129792931Y-64862657D02*
X129816740Y-64957895D01*
X129816740Y-64957895D02*
X129816740Y-65029323D01*
X129816740Y-65029323D02*
X129792931Y-65124561D01*
X129792931Y-65124561D02*
X129769121Y-65172180D01*
X129769121Y-65172180D02*
X129721502Y-65219800D01*
X129721502Y-65219800D02*
X129650074Y-65243609D01*
X129650074Y-65243609D02*
X129531026Y-65243609D01*
D10*
X150357735Y-124792143D02*
X150393450Y-124827857D01*
X150393450Y-124827857D02*
X150429164Y-124935000D01*
X150429164Y-124935000D02*
X150429164Y-125006428D01*
X150429164Y-125006428D02*
X150393450Y-125113571D01*
X150393450Y-125113571D02*
X150322021Y-125185000D01*
X150322021Y-125185000D02*
X150250592Y-125220714D01*
X150250592Y-125220714D02*
X150107735Y-125256428D01*
X150107735Y-125256428D02*
X150000592Y-125256428D01*
X150000592Y-125256428D02*
X149857735Y-125220714D01*
X149857735Y-125220714D02*
X149786307Y-125185000D01*
X149786307Y-125185000D02*
X149714878Y-125113571D01*
X149714878Y-125113571D02*
X149679164Y-125006428D01*
X149679164Y-125006428D02*
X149679164Y-124935000D01*
X149679164Y-124935000D02*
X149714878Y-124827857D01*
X149714878Y-124827857D02*
X149750592Y-124792143D01*
X149679164Y-124542143D02*
X149679164Y-124077857D01*
X149679164Y-124077857D02*
X149964878Y-124327857D01*
X149964878Y-124327857D02*
X149964878Y-124220714D01*
X149964878Y-124220714D02*
X150000592Y-124149286D01*
X150000592Y-124149286D02*
X150036307Y-124113571D01*
X150036307Y-124113571D02*
X150107735Y-124077857D01*
X150107735Y-124077857D02*
X150286307Y-124077857D01*
X150286307Y-124077857D02*
X150357735Y-124113571D01*
X150357735Y-124113571D02*
X150393450Y-124149286D01*
X150393450Y-124149286D02*
X150429164Y-124220714D01*
X150429164Y-124220714D02*
X150429164Y-124435000D01*
X150429164Y-124435000D02*
X150393450Y-124506428D01*
X150393450Y-124506428D02*
X150357735Y-124542143D01*
X150429164Y-123720714D02*
X150429164Y-123577857D01*
X150429164Y-123577857D02*
X150393450Y-123506428D01*
X150393450Y-123506428D02*
X150357735Y-123470714D01*
X150357735Y-123470714D02*
X150250592Y-123399285D01*
X150250592Y-123399285D02*
X150107735Y-123363571D01*
X150107735Y-123363571D02*
X149822021Y-123363571D01*
X149822021Y-123363571D02*
X149750592Y-123399285D01*
X149750592Y-123399285D02*
X149714878Y-123435000D01*
X149714878Y-123435000D02*
X149679164Y-123506428D01*
X149679164Y-123506428D02*
X149679164Y-123649285D01*
X149679164Y-123649285D02*
X149714878Y-123720714D01*
X149714878Y-123720714D02*
X149750592Y-123756428D01*
X149750592Y-123756428D02*
X149822021Y-123792142D01*
X149822021Y-123792142D02*
X150000592Y-123792142D01*
X150000592Y-123792142D02*
X150072021Y-123756428D01*
X150072021Y-123756428D02*
X150107735Y-123720714D01*
X150107735Y-123720714D02*
X150143450Y-123649285D01*
X150143450Y-123649285D02*
X150143450Y-123506428D01*
X150143450Y-123506428D02*
X150107735Y-123435000D01*
X150107735Y-123435000D02*
X150072021Y-123399285D01*
X150072021Y-123399285D02*
X150000592Y-123363571D01*
X171087856Y-125179164D02*
X170837856Y-124822021D01*
X170659285Y-125179164D02*
X170659285Y-124429164D01*
X170659285Y-124429164D02*
X170944999Y-124429164D01*
X170944999Y-124429164D02*
X171016428Y-124464878D01*
X171016428Y-124464878D02*
X171052142Y-124500592D01*
X171052142Y-124500592D02*
X171087856Y-124572021D01*
X171087856Y-124572021D02*
X171087856Y-124679164D01*
X171087856Y-124679164D02*
X171052142Y-124750592D01*
X171052142Y-124750592D02*
X171016428Y-124786307D01*
X171016428Y-124786307D02*
X170944999Y-124822021D01*
X170944999Y-124822021D02*
X170659285Y-124822021D01*
X171802142Y-125179164D02*
X171373571Y-125179164D01*
X171587856Y-125179164D02*
X171587856Y-124429164D01*
X171587856Y-124429164D02*
X171516428Y-124536307D01*
X171516428Y-124536307D02*
X171444999Y-124607735D01*
X171444999Y-124607735D02*
X171373571Y-124643450D01*
X172516428Y-125179164D02*
X172087857Y-125179164D01*
X172302142Y-125179164D02*
X172302142Y-124429164D01*
X172302142Y-124429164D02*
X172230714Y-124536307D01*
X172230714Y-124536307D02*
X172159285Y-124607735D01*
X172159285Y-124607735D02*
X172087857Y-124643450D01*
X158267856Y-126877735D02*
X158232142Y-126913450D01*
X158232142Y-126913450D02*
X158124999Y-126949164D01*
X158124999Y-126949164D02*
X158053571Y-126949164D01*
X158053571Y-126949164D02*
X157946428Y-126913450D01*
X157946428Y-126913450D02*
X157874999Y-126842021D01*
X157874999Y-126842021D02*
X157839285Y-126770592D01*
X157839285Y-126770592D02*
X157803571Y-126627735D01*
X157803571Y-126627735D02*
X157803571Y-126520592D01*
X157803571Y-126520592D02*
X157839285Y-126377735D01*
X157839285Y-126377735D02*
X157874999Y-126306307D01*
X157874999Y-126306307D02*
X157946428Y-126234878D01*
X157946428Y-126234878D02*
X158053571Y-126199164D01*
X158053571Y-126199164D02*
X158124999Y-126199164D01*
X158124999Y-126199164D02*
X158232142Y-126234878D01*
X158232142Y-126234878D02*
X158267856Y-126270592D01*
X158982142Y-126949164D02*
X158553571Y-126949164D01*
X158767856Y-126949164D02*
X158767856Y-126199164D01*
X158767856Y-126199164D02*
X158696428Y-126306307D01*
X158696428Y-126306307D02*
X158624999Y-126377735D01*
X158624999Y-126377735D02*
X158553571Y-126413450D01*
X159625000Y-126449164D02*
X159625000Y-126949164D01*
X159446428Y-126163450D02*
X159267857Y-126699164D01*
X159267857Y-126699164D02*
X159732142Y-126699164D01*
X166507856Y-63197735D02*
X166472142Y-63233450D01*
X166472142Y-63233450D02*
X166364999Y-63269164D01*
X166364999Y-63269164D02*
X166293571Y-63269164D01*
X166293571Y-63269164D02*
X166186428Y-63233450D01*
X166186428Y-63233450D02*
X166114999Y-63162021D01*
X166114999Y-63162021D02*
X166079285Y-63090592D01*
X166079285Y-63090592D02*
X166043571Y-62947735D01*
X166043571Y-62947735D02*
X166043571Y-62840592D01*
X166043571Y-62840592D02*
X166079285Y-62697735D01*
X166079285Y-62697735D02*
X166114999Y-62626307D01*
X166114999Y-62626307D02*
X166186428Y-62554878D01*
X166186428Y-62554878D02*
X166293571Y-62519164D01*
X166293571Y-62519164D02*
X166364999Y-62519164D01*
X166364999Y-62519164D02*
X166472142Y-62554878D01*
X166472142Y-62554878D02*
X166507856Y-62590592D01*
X167222142Y-63269164D02*
X166793571Y-63269164D01*
X167007856Y-63269164D02*
X167007856Y-62519164D01*
X167007856Y-62519164D02*
X166936428Y-62626307D01*
X166936428Y-62626307D02*
X166864999Y-62697735D01*
X166864999Y-62697735D02*
X166793571Y-62733450D01*
X167507857Y-62590592D02*
X167543571Y-62554878D01*
X167543571Y-62554878D02*
X167615000Y-62519164D01*
X167615000Y-62519164D02*
X167793571Y-62519164D01*
X167793571Y-62519164D02*
X167865000Y-62554878D01*
X167865000Y-62554878D02*
X167900714Y-62590592D01*
X167900714Y-62590592D02*
X167936428Y-62662021D01*
X167936428Y-62662021D02*
X167936428Y-62733450D01*
X167936428Y-62733450D02*
X167900714Y-62840592D01*
X167900714Y-62840592D02*
X167472142Y-63269164D01*
X167472142Y-63269164D02*
X167936428Y-63269164D01*
X127657735Y-111252143D02*
X127693450Y-111287857D01*
X127693450Y-111287857D02*
X127729164Y-111395000D01*
X127729164Y-111395000D02*
X127729164Y-111466428D01*
X127729164Y-111466428D02*
X127693450Y-111573571D01*
X127693450Y-111573571D02*
X127622021Y-111645000D01*
X127622021Y-111645000D02*
X127550592Y-111680714D01*
X127550592Y-111680714D02*
X127407735Y-111716428D01*
X127407735Y-111716428D02*
X127300592Y-111716428D01*
X127300592Y-111716428D02*
X127157735Y-111680714D01*
X127157735Y-111680714D02*
X127086307Y-111645000D01*
X127086307Y-111645000D02*
X127014878Y-111573571D01*
X127014878Y-111573571D02*
X126979164Y-111466428D01*
X126979164Y-111466428D02*
X126979164Y-111395000D01*
X126979164Y-111395000D02*
X127014878Y-111287857D01*
X127014878Y-111287857D02*
X127050592Y-111252143D01*
X127729164Y-110537857D02*
X127729164Y-110966428D01*
X127729164Y-110752143D02*
X126979164Y-110752143D01*
X126979164Y-110752143D02*
X127086307Y-110823571D01*
X127086307Y-110823571D02*
X127157735Y-110895000D01*
X127157735Y-110895000D02*
X127193450Y-110966428D01*
X126979164Y-110287857D02*
X126979164Y-109823571D01*
X126979164Y-109823571D02*
X127264878Y-110073571D01*
X127264878Y-110073571D02*
X127264878Y-109966428D01*
X127264878Y-109966428D02*
X127300592Y-109895000D01*
X127300592Y-109895000D02*
X127336307Y-109859285D01*
X127336307Y-109859285D02*
X127407735Y-109823571D01*
X127407735Y-109823571D02*
X127586307Y-109823571D01*
X127586307Y-109823571D02*
X127657735Y-109859285D01*
X127657735Y-109859285D02*
X127693450Y-109895000D01*
X127693450Y-109895000D02*
X127729164Y-109966428D01*
X127729164Y-109966428D02*
X127729164Y-110180714D01*
X127729164Y-110180714D02*
X127693450Y-110252142D01*
X127693450Y-110252142D02*
X127657735Y-110287857D01*
X167536428Y-133869164D02*
X167536428Y-133119164D01*
X167536428Y-133119164D02*
X167714999Y-133119164D01*
X167714999Y-133119164D02*
X167822142Y-133154878D01*
X167822142Y-133154878D02*
X167893571Y-133226307D01*
X167893571Y-133226307D02*
X167929285Y-133297735D01*
X167929285Y-133297735D02*
X167964999Y-133440592D01*
X167964999Y-133440592D02*
X167964999Y-133547735D01*
X167964999Y-133547735D02*
X167929285Y-133690592D01*
X167929285Y-133690592D02*
X167893571Y-133762021D01*
X167893571Y-133762021D02*
X167822142Y-133833450D01*
X167822142Y-133833450D02*
X167714999Y-133869164D01*
X167714999Y-133869164D02*
X167536428Y-133869164D01*
X168607857Y-133369164D02*
X168607857Y-133869164D01*
X168429285Y-133083450D02*
X168250714Y-133619164D01*
X168250714Y-133619164D02*
X168714999Y-133619164D01*
X148377735Y-111282143D02*
X148413450Y-111317857D01*
X148413450Y-111317857D02*
X148449164Y-111425000D01*
X148449164Y-111425000D02*
X148449164Y-111496428D01*
X148449164Y-111496428D02*
X148413450Y-111603571D01*
X148413450Y-111603571D02*
X148342021Y-111675000D01*
X148342021Y-111675000D02*
X148270592Y-111710714D01*
X148270592Y-111710714D02*
X148127735Y-111746428D01*
X148127735Y-111746428D02*
X148020592Y-111746428D01*
X148020592Y-111746428D02*
X147877735Y-111710714D01*
X147877735Y-111710714D02*
X147806307Y-111675000D01*
X147806307Y-111675000D02*
X147734878Y-111603571D01*
X147734878Y-111603571D02*
X147699164Y-111496428D01*
X147699164Y-111496428D02*
X147699164Y-111425000D01*
X147699164Y-111425000D02*
X147734878Y-111317857D01*
X147734878Y-111317857D02*
X147770592Y-111282143D01*
X147699164Y-111032143D02*
X147699164Y-110567857D01*
X147699164Y-110567857D02*
X147984878Y-110817857D01*
X147984878Y-110817857D02*
X147984878Y-110710714D01*
X147984878Y-110710714D02*
X148020592Y-110639286D01*
X148020592Y-110639286D02*
X148056307Y-110603571D01*
X148056307Y-110603571D02*
X148127735Y-110567857D01*
X148127735Y-110567857D02*
X148306307Y-110567857D01*
X148306307Y-110567857D02*
X148377735Y-110603571D01*
X148377735Y-110603571D02*
X148413450Y-110639286D01*
X148413450Y-110639286D02*
X148449164Y-110710714D01*
X148449164Y-110710714D02*
X148449164Y-110925000D01*
X148449164Y-110925000D02*
X148413450Y-110996428D01*
X148413450Y-110996428D02*
X148377735Y-111032143D01*
X147699164Y-110317857D02*
X147699164Y-109817857D01*
X147699164Y-109817857D02*
X148449164Y-110139285D01*
X167526428Y-135879164D02*
X167526428Y-135129164D01*
X167526428Y-135129164D02*
X167704999Y-135129164D01*
X167704999Y-135129164D02*
X167812142Y-135164878D01*
X167812142Y-135164878D02*
X167883571Y-135236307D01*
X167883571Y-135236307D02*
X167919285Y-135307735D01*
X167919285Y-135307735D02*
X167954999Y-135450592D01*
X167954999Y-135450592D02*
X167954999Y-135557735D01*
X167954999Y-135557735D02*
X167919285Y-135700592D01*
X167919285Y-135700592D02*
X167883571Y-135772021D01*
X167883571Y-135772021D02*
X167812142Y-135843450D01*
X167812142Y-135843450D02*
X167704999Y-135879164D01*
X167704999Y-135879164D02*
X167526428Y-135879164D01*
X168597857Y-135129164D02*
X168454999Y-135129164D01*
X168454999Y-135129164D02*
X168383571Y-135164878D01*
X168383571Y-135164878D02*
X168347857Y-135200592D01*
X168347857Y-135200592D02*
X168276428Y-135307735D01*
X168276428Y-135307735D02*
X168240714Y-135450592D01*
X168240714Y-135450592D02*
X168240714Y-135736307D01*
X168240714Y-135736307D02*
X168276428Y-135807735D01*
X168276428Y-135807735D02*
X168312142Y-135843450D01*
X168312142Y-135843450D02*
X168383571Y-135879164D01*
X168383571Y-135879164D02*
X168526428Y-135879164D01*
X168526428Y-135879164D02*
X168597857Y-135843450D01*
X168597857Y-135843450D02*
X168633571Y-135807735D01*
X168633571Y-135807735D02*
X168669285Y-135736307D01*
X168669285Y-135736307D02*
X168669285Y-135557735D01*
X168669285Y-135557735D02*
X168633571Y-135486307D01*
X168633571Y-135486307D02*
X168597857Y-135450592D01*
X168597857Y-135450592D02*
X168526428Y-135414878D01*
X168526428Y-135414878D02*
X168383571Y-135414878D01*
X168383571Y-135414878D02*
X168312142Y-135450592D01*
X168312142Y-135450592D02*
X168276428Y-135486307D01*
X168276428Y-135486307D02*
X168240714Y-135557735D01*
X180469164Y-79522143D02*
X180112021Y-79772143D01*
X180469164Y-79950714D02*
X179719164Y-79950714D01*
X179719164Y-79950714D02*
X179719164Y-79665000D01*
X179719164Y-79665000D02*
X179754878Y-79593571D01*
X179754878Y-79593571D02*
X179790592Y-79557857D01*
X179790592Y-79557857D02*
X179862021Y-79522143D01*
X179862021Y-79522143D02*
X179969164Y-79522143D01*
X179969164Y-79522143D02*
X180040592Y-79557857D01*
X180040592Y-79557857D02*
X180076307Y-79593571D01*
X180076307Y-79593571D02*
X180112021Y-79665000D01*
X180112021Y-79665000D02*
X180112021Y-79950714D01*
X179719164Y-79272143D02*
X179719164Y-78807857D01*
X179719164Y-78807857D02*
X180004878Y-79057857D01*
X180004878Y-79057857D02*
X180004878Y-78950714D01*
X180004878Y-78950714D02*
X180040592Y-78879286D01*
X180040592Y-78879286D02*
X180076307Y-78843571D01*
X180076307Y-78843571D02*
X180147735Y-78807857D01*
X180147735Y-78807857D02*
X180326307Y-78807857D01*
X180326307Y-78807857D02*
X180397735Y-78843571D01*
X180397735Y-78843571D02*
X180433450Y-78879286D01*
X180433450Y-78879286D02*
X180469164Y-78950714D01*
X180469164Y-78950714D02*
X180469164Y-79165000D01*
X180469164Y-79165000D02*
X180433450Y-79236428D01*
X180433450Y-79236428D02*
X180397735Y-79272143D01*
X180469164Y-78093571D02*
X180469164Y-78522142D01*
X180469164Y-78307857D02*
X179719164Y-78307857D01*
X179719164Y-78307857D02*
X179826307Y-78379285D01*
X179826307Y-78379285D02*
X179897735Y-78450714D01*
X179897735Y-78450714D02*
X179933450Y-78522142D01*
X153827735Y-111232143D02*
X153863450Y-111267857D01*
X153863450Y-111267857D02*
X153899164Y-111375000D01*
X153899164Y-111375000D02*
X153899164Y-111446428D01*
X153899164Y-111446428D02*
X153863450Y-111553571D01*
X153863450Y-111553571D02*
X153792021Y-111625000D01*
X153792021Y-111625000D02*
X153720592Y-111660714D01*
X153720592Y-111660714D02*
X153577735Y-111696428D01*
X153577735Y-111696428D02*
X153470592Y-111696428D01*
X153470592Y-111696428D02*
X153327735Y-111660714D01*
X153327735Y-111660714D02*
X153256307Y-111625000D01*
X153256307Y-111625000D02*
X153184878Y-111553571D01*
X153184878Y-111553571D02*
X153149164Y-111446428D01*
X153149164Y-111446428D02*
X153149164Y-111375000D01*
X153149164Y-111375000D02*
X153184878Y-111267857D01*
X153184878Y-111267857D02*
X153220592Y-111232143D01*
X153149164Y-110982143D02*
X153149164Y-110517857D01*
X153149164Y-110517857D02*
X153434878Y-110767857D01*
X153434878Y-110767857D02*
X153434878Y-110660714D01*
X153434878Y-110660714D02*
X153470592Y-110589286D01*
X153470592Y-110589286D02*
X153506307Y-110553571D01*
X153506307Y-110553571D02*
X153577735Y-110517857D01*
X153577735Y-110517857D02*
X153756307Y-110517857D01*
X153756307Y-110517857D02*
X153827735Y-110553571D01*
X153827735Y-110553571D02*
X153863450Y-110589286D01*
X153863450Y-110589286D02*
X153899164Y-110660714D01*
X153899164Y-110660714D02*
X153899164Y-110875000D01*
X153899164Y-110875000D02*
X153863450Y-110946428D01*
X153863450Y-110946428D02*
X153827735Y-110982143D01*
X153149164Y-109839285D02*
X153149164Y-110196428D01*
X153149164Y-110196428D02*
X153506307Y-110232142D01*
X153506307Y-110232142D02*
X153470592Y-110196428D01*
X153470592Y-110196428D02*
X153434878Y-110125000D01*
X153434878Y-110125000D02*
X153434878Y-109946428D01*
X153434878Y-109946428D02*
X153470592Y-109875000D01*
X153470592Y-109875000D02*
X153506307Y-109839285D01*
X153506307Y-109839285D02*
X153577735Y-109803571D01*
X153577735Y-109803571D02*
X153756307Y-109803571D01*
X153756307Y-109803571D02*
X153827735Y-109839285D01*
X153827735Y-109839285D02*
X153863450Y-109875000D01*
X153863450Y-109875000D02*
X153899164Y-109946428D01*
X153899164Y-109946428D02*
X153899164Y-110125000D01*
X153899164Y-110125000D02*
X153863450Y-110196428D01*
X153863450Y-110196428D02*
X153827735Y-110232142D01*
X160047856Y-132909164D02*
X159797856Y-132552021D01*
X159619285Y-132909164D02*
X159619285Y-132159164D01*
X159619285Y-132159164D02*
X159904999Y-132159164D01*
X159904999Y-132159164D02*
X159976428Y-132194878D01*
X159976428Y-132194878D02*
X160012142Y-132230592D01*
X160012142Y-132230592D02*
X160047856Y-132302021D01*
X160047856Y-132302021D02*
X160047856Y-132409164D01*
X160047856Y-132409164D02*
X160012142Y-132480592D01*
X160012142Y-132480592D02*
X159976428Y-132516307D01*
X159976428Y-132516307D02*
X159904999Y-132552021D01*
X159904999Y-132552021D02*
X159619285Y-132552021D01*
X160762142Y-132909164D02*
X160333571Y-132909164D01*
X160547856Y-132909164D02*
X160547856Y-132159164D01*
X160547856Y-132159164D02*
X160476428Y-132266307D01*
X160476428Y-132266307D02*
X160404999Y-132337735D01*
X160404999Y-132337735D02*
X160333571Y-132373450D01*
X161190714Y-132480592D02*
X161119285Y-132444878D01*
X161119285Y-132444878D02*
X161083571Y-132409164D01*
X161083571Y-132409164D02*
X161047857Y-132337735D01*
X161047857Y-132337735D02*
X161047857Y-132302021D01*
X161047857Y-132302021D02*
X161083571Y-132230592D01*
X161083571Y-132230592D02*
X161119285Y-132194878D01*
X161119285Y-132194878D02*
X161190714Y-132159164D01*
X161190714Y-132159164D02*
X161333571Y-132159164D01*
X161333571Y-132159164D02*
X161405000Y-132194878D01*
X161405000Y-132194878D02*
X161440714Y-132230592D01*
X161440714Y-132230592D02*
X161476428Y-132302021D01*
X161476428Y-132302021D02*
X161476428Y-132337735D01*
X161476428Y-132337735D02*
X161440714Y-132409164D01*
X161440714Y-132409164D02*
X161405000Y-132444878D01*
X161405000Y-132444878D02*
X161333571Y-132480592D01*
X161333571Y-132480592D02*
X161190714Y-132480592D01*
X161190714Y-132480592D02*
X161119285Y-132516307D01*
X161119285Y-132516307D02*
X161083571Y-132552021D01*
X161083571Y-132552021D02*
X161047857Y-132623450D01*
X161047857Y-132623450D02*
X161047857Y-132766307D01*
X161047857Y-132766307D02*
X161083571Y-132837735D01*
X161083571Y-132837735D02*
X161119285Y-132873450D01*
X161119285Y-132873450D02*
X161190714Y-132909164D01*
X161190714Y-132909164D02*
X161333571Y-132909164D01*
X161333571Y-132909164D02*
X161405000Y-132873450D01*
X161405000Y-132873450D02*
X161440714Y-132837735D01*
X161440714Y-132837735D02*
X161476428Y-132766307D01*
X161476428Y-132766307D02*
X161476428Y-132623450D01*
X161476428Y-132623450D02*
X161440714Y-132552021D01*
X161440714Y-132552021D02*
X161405000Y-132516307D01*
X161405000Y-132516307D02*
X161333571Y-132480592D01*
X171067856Y-124079164D02*
X170817856Y-123722021D01*
X170639285Y-124079164D02*
X170639285Y-123329164D01*
X170639285Y-123329164D02*
X170924999Y-123329164D01*
X170924999Y-123329164D02*
X170996428Y-123364878D01*
X170996428Y-123364878D02*
X171032142Y-123400592D01*
X171032142Y-123400592D02*
X171067856Y-123472021D01*
X171067856Y-123472021D02*
X171067856Y-123579164D01*
X171067856Y-123579164D02*
X171032142Y-123650592D01*
X171032142Y-123650592D02*
X170996428Y-123686307D01*
X170996428Y-123686307D02*
X170924999Y-123722021D01*
X170924999Y-123722021D02*
X170639285Y-123722021D01*
X171782142Y-124079164D02*
X171353571Y-124079164D01*
X171567856Y-124079164D02*
X171567856Y-123329164D01*
X171567856Y-123329164D02*
X171496428Y-123436307D01*
X171496428Y-123436307D02*
X171424999Y-123507735D01*
X171424999Y-123507735D02*
X171353571Y-123543450D01*
X172246428Y-123329164D02*
X172317857Y-123329164D01*
X172317857Y-123329164D02*
X172389285Y-123364878D01*
X172389285Y-123364878D02*
X172425000Y-123400592D01*
X172425000Y-123400592D02*
X172460714Y-123472021D01*
X172460714Y-123472021D02*
X172496428Y-123614878D01*
X172496428Y-123614878D02*
X172496428Y-123793450D01*
X172496428Y-123793450D02*
X172460714Y-123936307D01*
X172460714Y-123936307D02*
X172425000Y-124007735D01*
X172425000Y-124007735D02*
X172389285Y-124043450D01*
X172389285Y-124043450D02*
X172317857Y-124079164D01*
X172317857Y-124079164D02*
X172246428Y-124079164D01*
X172246428Y-124079164D02*
X172175000Y-124043450D01*
X172175000Y-124043450D02*
X172139285Y-124007735D01*
X172139285Y-124007735D02*
X172103571Y-123936307D01*
X172103571Y-123936307D02*
X172067857Y-123793450D01*
X172067857Y-123793450D02*
X172067857Y-123614878D01*
X172067857Y-123614878D02*
X172103571Y-123472021D01*
X172103571Y-123472021D02*
X172139285Y-123400592D01*
X172139285Y-123400592D02*
X172175000Y-123364878D01*
X172175000Y-123364878D02*
X172246428Y-123329164D01*
X167536428Y-134879164D02*
X167536428Y-134129164D01*
X167536428Y-134129164D02*
X167714999Y-134129164D01*
X167714999Y-134129164D02*
X167822142Y-134164878D01*
X167822142Y-134164878D02*
X167893571Y-134236307D01*
X167893571Y-134236307D02*
X167929285Y-134307735D01*
X167929285Y-134307735D02*
X167964999Y-134450592D01*
X167964999Y-134450592D02*
X167964999Y-134557735D01*
X167964999Y-134557735D02*
X167929285Y-134700592D01*
X167929285Y-134700592D02*
X167893571Y-134772021D01*
X167893571Y-134772021D02*
X167822142Y-134843450D01*
X167822142Y-134843450D02*
X167714999Y-134879164D01*
X167714999Y-134879164D02*
X167536428Y-134879164D01*
X168643571Y-134129164D02*
X168286428Y-134129164D01*
X168286428Y-134129164D02*
X168250714Y-134486307D01*
X168250714Y-134486307D02*
X168286428Y-134450592D01*
X168286428Y-134450592D02*
X168357857Y-134414878D01*
X168357857Y-134414878D02*
X168536428Y-134414878D01*
X168536428Y-134414878D02*
X168607857Y-134450592D01*
X168607857Y-134450592D02*
X168643571Y-134486307D01*
X168643571Y-134486307D02*
X168679285Y-134557735D01*
X168679285Y-134557735D02*
X168679285Y-134736307D01*
X168679285Y-134736307D02*
X168643571Y-134807735D01*
X168643571Y-134807735D02*
X168607857Y-134843450D01*
X168607857Y-134843450D02*
X168536428Y-134879164D01*
X168536428Y-134879164D02*
X168357857Y-134879164D01*
X168357857Y-134879164D02*
X168286428Y-134843450D01*
X168286428Y-134843450D02*
X168250714Y-134807735D01*
X164724999Y-126307735D02*
X164689285Y-126343450D01*
X164689285Y-126343450D02*
X164582142Y-126379164D01*
X164582142Y-126379164D02*
X164510714Y-126379164D01*
X164510714Y-126379164D02*
X164403571Y-126343450D01*
X164403571Y-126343450D02*
X164332142Y-126272021D01*
X164332142Y-126272021D02*
X164296428Y-126200592D01*
X164296428Y-126200592D02*
X164260714Y-126057735D01*
X164260714Y-126057735D02*
X164260714Y-125950592D01*
X164260714Y-125950592D02*
X164296428Y-125807735D01*
X164296428Y-125807735D02*
X164332142Y-125736307D01*
X164332142Y-125736307D02*
X164403571Y-125664878D01*
X164403571Y-125664878D02*
X164510714Y-125629164D01*
X164510714Y-125629164D02*
X164582142Y-125629164D01*
X164582142Y-125629164D02*
X164689285Y-125664878D01*
X164689285Y-125664878D02*
X164724999Y-125700592D01*
X165439285Y-126379164D02*
X165010714Y-126379164D01*
X165224999Y-126379164D02*
X165224999Y-125629164D01*
X165224999Y-125629164D02*
X165153571Y-125736307D01*
X165153571Y-125736307D02*
X165082142Y-125807735D01*
X165082142Y-125807735D02*
X165010714Y-125843450D01*
X167137856Y-132797735D02*
X167102142Y-132833450D01*
X167102142Y-132833450D02*
X166994999Y-132869164D01*
X166994999Y-132869164D02*
X166923571Y-132869164D01*
X166923571Y-132869164D02*
X166816428Y-132833450D01*
X166816428Y-132833450D02*
X166744999Y-132762021D01*
X166744999Y-132762021D02*
X166709285Y-132690592D01*
X166709285Y-132690592D02*
X166673571Y-132547735D01*
X166673571Y-132547735D02*
X166673571Y-132440592D01*
X166673571Y-132440592D02*
X166709285Y-132297735D01*
X166709285Y-132297735D02*
X166744999Y-132226307D01*
X166744999Y-132226307D02*
X166816428Y-132154878D01*
X166816428Y-132154878D02*
X166923571Y-132119164D01*
X166923571Y-132119164D02*
X166994999Y-132119164D01*
X166994999Y-132119164D02*
X167102142Y-132154878D01*
X167102142Y-132154878D02*
X167137856Y-132190592D01*
X167423571Y-132190592D02*
X167459285Y-132154878D01*
X167459285Y-132154878D02*
X167530714Y-132119164D01*
X167530714Y-132119164D02*
X167709285Y-132119164D01*
X167709285Y-132119164D02*
X167780714Y-132154878D01*
X167780714Y-132154878D02*
X167816428Y-132190592D01*
X167816428Y-132190592D02*
X167852142Y-132262021D01*
X167852142Y-132262021D02*
X167852142Y-132333450D01*
X167852142Y-132333450D02*
X167816428Y-132440592D01*
X167816428Y-132440592D02*
X167387856Y-132869164D01*
X167387856Y-132869164D02*
X167852142Y-132869164D01*
X168530714Y-132119164D02*
X168173571Y-132119164D01*
X168173571Y-132119164D02*
X168137857Y-132476307D01*
X168137857Y-132476307D02*
X168173571Y-132440592D01*
X168173571Y-132440592D02*
X168245000Y-132404878D01*
X168245000Y-132404878D02*
X168423571Y-132404878D01*
X168423571Y-132404878D02*
X168495000Y-132440592D01*
X168495000Y-132440592D02*
X168530714Y-132476307D01*
X168530714Y-132476307D02*
X168566428Y-132547735D01*
X168566428Y-132547735D02*
X168566428Y-132726307D01*
X168566428Y-132726307D02*
X168530714Y-132797735D01*
X168530714Y-132797735D02*
X168495000Y-132833450D01*
X168495000Y-132833450D02*
X168423571Y-132869164D01*
X168423571Y-132869164D02*
X168245000Y-132869164D01*
X168245000Y-132869164D02*
X168173571Y-132833450D01*
X168173571Y-132833450D02*
X168137857Y-132797735D01*
X140657735Y-110975000D02*
X140693450Y-111010714D01*
X140693450Y-111010714D02*
X140729164Y-111117857D01*
X140729164Y-111117857D02*
X140729164Y-111189285D01*
X140729164Y-111189285D02*
X140693450Y-111296428D01*
X140693450Y-111296428D02*
X140622021Y-111367857D01*
X140622021Y-111367857D02*
X140550592Y-111403571D01*
X140550592Y-111403571D02*
X140407735Y-111439285D01*
X140407735Y-111439285D02*
X140300592Y-111439285D01*
X140300592Y-111439285D02*
X140157735Y-111403571D01*
X140157735Y-111403571D02*
X140086307Y-111367857D01*
X140086307Y-111367857D02*
X140014878Y-111296428D01*
X140014878Y-111296428D02*
X139979164Y-111189285D01*
X139979164Y-111189285D02*
X139979164Y-111117857D01*
X139979164Y-111117857D02*
X140014878Y-111010714D01*
X140014878Y-111010714D02*
X140050592Y-110975000D01*
X140050592Y-110689285D02*
X140014878Y-110653571D01*
X140014878Y-110653571D02*
X139979164Y-110582143D01*
X139979164Y-110582143D02*
X139979164Y-110403571D01*
X139979164Y-110403571D02*
X140014878Y-110332143D01*
X140014878Y-110332143D02*
X140050592Y-110296428D01*
X140050592Y-110296428D02*
X140122021Y-110260714D01*
X140122021Y-110260714D02*
X140193450Y-110260714D01*
X140193450Y-110260714D02*
X140300592Y-110296428D01*
X140300592Y-110296428D02*
X140729164Y-110725000D01*
X140729164Y-110725000D02*
X140729164Y-110260714D01*
X149037856Y-74899164D02*
X148787856Y-74542021D01*
X148609285Y-74899164D02*
X148609285Y-74149164D01*
X148609285Y-74149164D02*
X148894999Y-74149164D01*
X148894999Y-74149164D02*
X148966428Y-74184878D01*
X148966428Y-74184878D02*
X149002142Y-74220592D01*
X149002142Y-74220592D02*
X149037856Y-74292021D01*
X149037856Y-74292021D02*
X149037856Y-74399164D01*
X149037856Y-74399164D02*
X149002142Y-74470592D01*
X149002142Y-74470592D02*
X148966428Y-74506307D01*
X148966428Y-74506307D02*
X148894999Y-74542021D01*
X148894999Y-74542021D02*
X148609285Y-74542021D01*
X149287856Y-74149164D02*
X149752142Y-74149164D01*
X149752142Y-74149164D02*
X149502142Y-74434878D01*
X149502142Y-74434878D02*
X149609285Y-74434878D01*
X149609285Y-74434878D02*
X149680714Y-74470592D01*
X149680714Y-74470592D02*
X149716428Y-74506307D01*
X149716428Y-74506307D02*
X149752142Y-74577735D01*
X149752142Y-74577735D02*
X149752142Y-74756307D01*
X149752142Y-74756307D02*
X149716428Y-74827735D01*
X149716428Y-74827735D02*
X149680714Y-74863450D01*
X149680714Y-74863450D02*
X149609285Y-74899164D01*
X149609285Y-74899164D02*
X149394999Y-74899164D01*
X149394999Y-74899164D02*
X149323571Y-74863450D01*
X149323571Y-74863450D02*
X149287856Y-74827735D01*
X150109285Y-74899164D02*
X150252142Y-74899164D01*
X150252142Y-74899164D02*
X150323571Y-74863450D01*
X150323571Y-74863450D02*
X150359285Y-74827735D01*
X150359285Y-74827735D02*
X150430714Y-74720592D01*
X150430714Y-74720592D02*
X150466428Y-74577735D01*
X150466428Y-74577735D02*
X150466428Y-74292021D01*
X150466428Y-74292021D02*
X150430714Y-74220592D01*
X150430714Y-74220592D02*
X150395000Y-74184878D01*
X150395000Y-74184878D02*
X150323571Y-74149164D01*
X150323571Y-74149164D02*
X150180714Y-74149164D01*
X150180714Y-74149164D02*
X150109285Y-74184878D01*
X150109285Y-74184878D02*
X150073571Y-74220592D01*
X150073571Y-74220592D02*
X150037857Y-74292021D01*
X150037857Y-74292021D02*
X150037857Y-74470592D01*
X150037857Y-74470592D02*
X150073571Y-74542021D01*
X150073571Y-74542021D02*
X150109285Y-74577735D01*
X150109285Y-74577735D02*
X150180714Y-74613450D01*
X150180714Y-74613450D02*
X150323571Y-74613450D01*
X150323571Y-74613450D02*
X150395000Y-74577735D01*
X150395000Y-74577735D02*
X150430714Y-74542021D01*
X150430714Y-74542021D02*
X150466428Y-74470592D01*
X178937735Y-123422143D02*
X178973450Y-123457857D01*
X178973450Y-123457857D02*
X179009164Y-123565000D01*
X179009164Y-123565000D02*
X179009164Y-123636428D01*
X179009164Y-123636428D02*
X178973450Y-123743571D01*
X178973450Y-123743571D02*
X178902021Y-123815000D01*
X178902021Y-123815000D02*
X178830592Y-123850714D01*
X178830592Y-123850714D02*
X178687735Y-123886428D01*
X178687735Y-123886428D02*
X178580592Y-123886428D01*
X178580592Y-123886428D02*
X178437735Y-123850714D01*
X178437735Y-123850714D02*
X178366307Y-123815000D01*
X178366307Y-123815000D02*
X178294878Y-123743571D01*
X178294878Y-123743571D02*
X178259164Y-123636428D01*
X178259164Y-123636428D02*
X178259164Y-123565000D01*
X178259164Y-123565000D02*
X178294878Y-123457857D01*
X178294878Y-123457857D02*
X178330592Y-123422143D01*
X178330592Y-123136428D02*
X178294878Y-123100714D01*
X178294878Y-123100714D02*
X178259164Y-123029286D01*
X178259164Y-123029286D02*
X178259164Y-122850714D01*
X178259164Y-122850714D02*
X178294878Y-122779286D01*
X178294878Y-122779286D02*
X178330592Y-122743571D01*
X178330592Y-122743571D02*
X178402021Y-122707857D01*
X178402021Y-122707857D02*
X178473450Y-122707857D01*
X178473450Y-122707857D02*
X178580592Y-122743571D01*
X178580592Y-122743571D02*
X179009164Y-123172143D01*
X179009164Y-123172143D02*
X179009164Y-122707857D01*
X179009164Y-122350714D02*
X179009164Y-122207857D01*
X179009164Y-122207857D02*
X178973450Y-122136428D01*
X178973450Y-122136428D02*
X178937735Y-122100714D01*
X178937735Y-122100714D02*
X178830592Y-122029285D01*
X178830592Y-122029285D02*
X178687735Y-121993571D01*
X178687735Y-121993571D02*
X178402021Y-121993571D01*
X178402021Y-121993571D02*
X178330592Y-122029285D01*
X178330592Y-122029285D02*
X178294878Y-122065000D01*
X178294878Y-122065000D02*
X178259164Y-122136428D01*
X178259164Y-122136428D02*
X178259164Y-122279285D01*
X178259164Y-122279285D02*
X178294878Y-122350714D01*
X178294878Y-122350714D02*
X178330592Y-122386428D01*
X178330592Y-122386428D02*
X178402021Y-122422142D01*
X178402021Y-122422142D02*
X178580592Y-122422142D01*
X178580592Y-122422142D02*
X178652021Y-122386428D01*
X178652021Y-122386428D02*
X178687735Y-122350714D01*
X178687735Y-122350714D02*
X178723450Y-122279285D01*
X178723450Y-122279285D02*
X178723450Y-122136428D01*
X178723450Y-122136428D02*
X178687735Y-122065000D01*
X178687735Y-122065000D02*
X178652021Y-122029285D01*
X178652021Y-122029285D02*
X178580592Y-121993571D01*
X154197856Y-117777735D02*
X154162142Y-117813450D01*
X154162142Y-117813450D02*
X154054999Y-117849164D01*
X154054999Y-117849164D02*
X153983571Y-117849164D01*
X153983571Y-117849164D02*
X153876428Y-117813450D01*
X153876428Y-117813450D02*
X153804999Y-117742021D01*
X153804999Y-117742021D02*
X153769285Y-117670592D01*
X153769285Y-117670592D02*
X153733571Y-117527735D01*
X153733571Y-117527735D02*
X153733571Y-117420592D01*
X153733571Y-117420592D02*
X153769285Y-117277735D01*
X153769285Y-117277735D02*
X153804999Y-117206307D01*
X153804999Y-117206307D02*
X153876428Y-117134878D01*
X153876428Y-117134878D02*
X153983571Y-117099164D01*
X153983571Y-117099164D02*
X154054999Y-117099164D01*
X154054999Y-117099164D02*
X154162142Y-117134878D01*
X154162142Y-117134878D02*
X154197856Y-117170592D01*
X154840714Y-117349164D02*
X154840714Y-117849164D01*
X154662142Y-117063450D02*
X154483571Y-117599164D01*
X154483571Y-117599164D02*
X154947856Y-117599164D01*
X155626428Y-117849164D02*
X155197857Y-117849164D01*
X155412142Y-117849164D02*
X155412142Y-117099164D01*
X155412142Y-117099164D02*
X155340714Y-117206307D01*
X155340714Y-117206307D02*
X155269285Y-117277735D01*
X155269285Y-117277735D02*
X155197857Y-117313450D01*
X171027856Y-122987735D02*
X170992142Y-123023450D01*
X170992142Y-123023450D02*
X170884999Y-123059164D01*
X170884999Y-123059164D02*
X170813571Y-123059164D01*
X170813571Y-123059164D02*
X170706428Y-123023450D01*
X170706428Y-123023450D02*
X170634999Y-122952021D01*
X170634999Y-122952021D02*
X170599285Y-122880592D01*
X170599285Y-122880592D02*
X170563571Y-122737735D01*
X170563571Y-122737735D02*
X170563571Y-122630592D01*
X170563571Y-122630592D02*
X170599285Y-122487735D01*
X170599285Y-122487735D02*
X170634999Y-122416307D01*
X170634999Y-122416307D02*
X170706428Y-122344878D01*
X170706428Y-122344878D02*
X170813571Y-122309164D01*
X170813571Y-122309164D02*
X170884999Y-122309164D01*
X170884999Y-122309164D02*
X170992142Y-122344878D01*
X170992142Y-122344878D02*
X171027856Y-122380592D01*
X171742142Y-123059164D02*
X171313571Y-123059164D01*
X171527856Y-123059164D02*
X171527856Y-122309164D01*
X171527856Y-122309164D02*
X171456428Y-122416307D01*
X171456428Y-122416307D02*
X171384999Y-122487735D01*
X171384999Y-122487735D02*
X171313571Y-122523450D01*
X172099285Y-123059164D02*
X172242142Y-123059164D01*
X172242142Y-123059164D02*
X172313571Y-123023450D01*
X172313571Y-123023450D02*
X172349285Y-122987735D01*
X172349285Y-122987735D02*
X172420714Y-122880592D01*
X172420714Y-122880592D02*
X172456428Y-122737735D01*
X172456428Y-122737735D02*
X172456428Y-122452021D01*
X172456428Y-122452021D02*
X172420714Y-122380592D01*
X172420714Y-122380592D02*
X172385000Y-122344878D01*
X172385000Y-122344878D02*
X172313571Y-122309164D01*
X172313571Y-122309164D02*
X172170714Y-122309164D01*
X172170714Y-122309164D02*
X172099285Y-122344878D01*
X172099285Y-122344878D02*
X172063571Y-122380592D01*
X172063571Y-122380592D02*
X172027857Y-122452021D01*
X172027857Y-122452021D02*
X172027857Y-122630592D01*
X172027857Y-122630592D02*
X172063571Y-122702021D01*
X172063571Y-122702021D02*
X172099285Y-122737735D01*
X172099285Y-122737735D02*
X172170714Y-122773450D01*
X172170714Y-122773450D02*
X172313571Y-122773450D01*
X172313571Y-122773450D02*
X172385000Y-122737735D01*
X172385000Y-122737735D02*
X172420714Y-122702021D01*
X172420714Y-122702021D02*
X172456428Y-122630592D01*
X152847735Y-124922143D02*
X152883450Y-124957857D01*
X152883450Y-124957857D02*
X152919164Y-125065000D01*
X152919164Y-125065000D02*
X152919164Y-125136428D01*
X152919164Y-125136428D02*
X152883450Y-125243571D01*
X152883450Y-125243571D02*
X152812021Y-125315000D01*
X152812021Y-125315000D02*
X152740592Y-125350714D01*
X152740592Y-125350714D02*
X152597735Y-125386428D01*
X152597735Y-125386428D02*
X152490592Y-125386428D01*
X152490592Y-125386428D02*
X152347735Y-125350714D01*
X152347735Y-125350714D02*
X152276307Y-125315000D01*
X152276307Y-125315000D02*
X152204878Y-125243571D01*
X152204878Y-125243571D02*
X152169164Y-125136428D01*
X152169164Y-125136428D02*
X152169164Y-125065000D01*
X152169164Y-125065000D02*
X152204878Y-124957857D01*
X152204878Y-124957857D02*
X152240592Y-124922143D01*
X152419164Y-124279286D02*
X152919164Y-124279286D01*
X152133450Y-124457857D02*
X152669164Y-124636428D01*
X152669164Y-124636428D02*
X152669164Y-124172143D01*
X152240592Y-123922142D02*
X152204878Y-123886428D01*
X152204878Y-123886428D02*
X152169164Y-123815000D01*
X152169164Y-123815000D02*
X152169164Y-123636428D01*
X152169164Y-123636428D02*
X152204878Y-123565000D01*
X152204878Y-123565000D02*
X152240592Y-123529285D01*
X152240592Y-123529285D02*
X152312021Y-123493571D01*
X152312021Y-123493571D02*
X152383450Y-123493571D01*
X152383450Y-123493571D02*
X152490592Y-123529285D01*
X152490592Y-123529285D02*
X152919164Y-123957857D01*
X152919164Y-123957857D02*
X152919164Y-123493571D01*
X159135000Y-124109164D02*
X158777857Y-124109164D01*
X158777857Y-124109164D02*
X158777857Y-123359164D01*
X159777857Y-124109164D02*
X159349286Y-124109164D01*
X159563571Y-124109164D02*
X159563571Y-123359164D01*
X159563571Y-123359164D02*
X159492143Y-123466307D01*
X159492143Y-123466307D02*
X159420714Y-123537735D01*
X159420714Y-123537735D02*
X159349286Y-123573450D01*
X155327735Y-124892143D02*
X155363450Y-124927857D01*
X155363450Y-124927857D02*
X155399164Y-125035000D01*
X155399164Y-125035000D02*
X155399164Y-125106428D01*
X155399164Y-125106428D02*
X155363450Y-125213571D01*
X155363450Y-125213571D02*
X155292021Y-125285000D01*
X155292021Y-125285000D02*
X155220592Y-125320714D01*
X155220592Y-125320714D02*
X155077735Y-125356428D01*
X155077735Y-125356428D02*
X154970592Y-125356428D01*
X154970592Y-125356428D02*
X154827735Y-125320714D01*
X154827735Y-125320714D02*
X154756307Y-125285000D01*
X154756307Y-125285000D02*
X154684878Y-125213571D01*
X154684878Y-125213571D02*
X154649164Y-125106428D01*
X154649164Y-125106428D02*
X154649164Y-125035000D01*
X154649164Y-125035000D02*
X154684878Y-124927857D01*
X154684878Y-124927857D02*
X154720592Y-124892143D01*
X154899164Y-124249286D02*
X155399164Y-124249286D01*
X154613450Y-124427857D02*
X155149164Y-124606428D01*
X155149164Y-124606428D02*
X155149164Y-124142143D01*
X154649164Y-123927857D02*
X154649164Y-123463571D01*
X154649164Y-123463571D02*
X154934878Y-123713571D01*
X154934878Y-123713571D02*
X154934878Y-123606428D01*
X154934878Y-123606428D02*
X154970592Y-123535000D01*
X154970592Y-123535000D02*
X155006307Y-123499285D01*
X155006307Y-123499285D02*
X155077735Y-123463571D01*
X155077735Y-123463571D02*
X155256307Y-123463571D01*
X155256307Y-123463571D02*
X155327735Y-123499285D01*
X155327735Y-123499285D02*
X155363450Y-123535000D01*
X155363450Y-123535000D02*
X155399164Y-123606428D01*
X155399164Y-123606428D02*
X155399164Y-123820714D01*
X155399164Y-123820714D02*
X155363450Y-123892142D01*
X155363450Y-123892142D02*
X155327735Y-123927857D01*
X149047856Y-73499164D02*
X148797856Y-73142021D01*
X148619285Y-73499164D02*
X148619285Y-72749164D01*
X148619285Y-72749164D02*
X148904999Y-72749164D01*
X148904999Y-72749164D02*
X148976428Y-72784878D01*
X148976428Y-72784878D02*
X149012142Y-72820592D01*
X149012142Y-72820592D02*
X149047856Y-72892021D01*
X149047856Y-72892021D02*
X149047856Y-72999164D01*
X149047856Y-72999164D02*
X149012142Y-73070592D01*
X149012142Y-73070592D02*
X148976428Y-73106307D01*
X148976428Y-73106307D02*
X148904999Y-73142021D01*
X148904999Y-73142021D02*
X148619285Y-73142021D01*
X149297856Y-72749164D02*
X149762142Y-72749164D01*
X149762142Y-72749164D02*
X149512142Y-73034878D01*
X149512142Y-73034878D02*
X149619285Y-73034878D01*
X149619285Y-73034878D02*
X149690714Y-73070592D01*
X149690714Y-73070592D02*
X149726428Y-73106307D01*
X149726428Y-73106307D02*
X149762142Y-73177735D01*
X149762142Y-73177735D02*
X149762142Y-73356307D01*
X149762142Y-73356307D02*
X149726428Y-73427735D01*
X149726428Y-73427735D02*
X149690714Y-73463450D01*
X149690714Y-73463450D02*
X149619285Y-73499164D01*
X149619285Y-73499164D02*
X149404999Y-73499164D01*
X149404999Y-73499164D02*
X149333571Y-73463450D01*
X149333571Y-73463450D02*
X149297856Y-73427735D01*
X150190714Y-73070592D02*
X150119285Y-73034878D01*
X150119285Y-73034878D02*
X150083571Y-72999164D01*
X150083571Y-72999164D02*
X150047857Y-72927735D01*
X150047857Y-72927735D02*
X150047857Y-72892021D01*
X150047857Y-72892021D02*
X150083571Y-72820592D01*
X150083571Y-72820592D02*
X150119285Y-72784878D01*
X150119285Y-72784878D02*
X150190714Y-72749164D01*
X150190714Y-72749164D02*
X150333571Y-72749164D01*
X150333571Y-72749164D02*
X150405000Y-72784878D01*
X150405000Y-72784878D02*
X150440714Y-72820592D01*
X150440714Y-72820592D02*
X150476428Y-72892021D01*
X150476428Y-72892021D02*
X150476428Y-72927735D01*
X150476428Y-72927735D02*
X150440714Y-72999164D01*
X150440714Y-72999164D02*
X150405000Y-73034878D01*
X150405000Y-73034878D02*
X150333571Y-73070592D01*
X150333571Y-73070592D02*
X150190714Y-73070592D01*
X150190714Y-73070592D02*
X150119285Y-73106307D01*
X150119285Y-73106307D02*
X150083571Y-73142021D01*
X150083571Y-73142021D02*
X150047857Y-73213450D01*
X150047857Y-73213450D02*
X150047857Y-73356307D01*
X150047857Y-73356307D02*
X150083571Y-73427735D01*
X150083571Y-73427735D02*
X150119285Y-73463450D01*
X150119285Y-73463450D02*
X150190714Y-73499164D01*
X150190714Y-73499164D02*
X150333571Y-73499164D01*
X150333571Y-73499164D02*
X150405000Y-73463450D01*
X150405000Y-73463450D02*
X150440714Y-73427735D01*
X150440714Y-73427735D02*
X150476428Y-73356307D01*
X150476428Y-73356307D02*
X150476428Y-73213450D01*
X150476428Y-73213450D02*
X150440714Y-73142021D01*
X150440714Y-73142021D02*
X150405000Y-73106307D01*
X150405000Y-73106307D02*
X150333571Y-73070592D01*
X150884999Y-130789164D02*
X150634999Y-130432021D01*
X150456428Y-130789164D02*
X150456428Y-130039164D01*
X150456428Y-130039164D02*
X150742142Y-130039164D01*
X150742142Y-130039164D02*
X150813571Y-130074878D01*
X150813571Y-130074878D02*
X150849285Y-130110592D01*
X150849285Y-130110592D02*
X150884999Y-130182021D01*
X150884999Y-130182021D02*
X150884999Y-130289164D01*
X150884999Y-130289164D02*
X150849285Y-130360592D01*
X150849285Y-130360592D02*
X150813571Y-130396307D01*
X150813571Y-130396307D02*
X150742142Y-130432021D01*
X150742142Y-130432021D02*
X150456428Y-130432021D01*
X151134999Y-130039164D02*
X151634999Y-130039164D01*
X151634999Y-130039164D02*
X151313571Y-130789164D01*
X128129164Y-122902143D02*
X127772021Y-123152143D01*
X128129164Y-123330714D02*
X127379164Y-123330714D01*
X127379164Y-123330714D02*
X127379164Y-123045000D01*
X127379164Y-123045000D02*
X127414878Y-122973571D01*
X127414878Y-122973571D02*
X127450592Y-122937857D01*
X127450592Y-122937857D02*
X127522021Y-122902143D01*
X127522021Y-122902143D02*
X127629164Y-122902143D01*
X127629164Y-122902143D02*
X127700592Y-122937857D01*
X127700592Y-122937857D02*
X127736307Y-122973571D01*
X127736307Y-122973571D02*
X127772021Y-123045000D01*
X127772021Y-123045000D02*
X127772021Y-123330714D01*
X127629164Y-122259286D02*
X128129164Y-122259286D01*
X127343450Y-122437857D02*
X127879164Y-122616428D01*
X127879164Y-122616428D02*
X127879164Y-122152143D01*
X127629164Y-121545000D02*
X128129164Y-121545000D01*
X127343450Y-121723571D02*
X127879164Y-121902142D01*
X127879164Y-121902142D02*
X127879164Y-121437857D01*
X169439164Y-79532143D02*
X169082021Y-79782143D01*
X169439164Y-79960714D02*
X168689164Y-79960714D01*
X168689164Y-79960714D02*
X168689164Y-79675000D01*
X168689164Y-79675000D02*
X168724878Y-79603571D01*
X168724878Y-79603571D02*
X168760592Y-79567857D01*
X168760592Y-79567857D02*
X168832021Y-79532143D01*
X168832021Y-79532143D02*
X168939164Y-79532143D01*
X168939164Y-79532143D02*
X169010592Y-79567857D01*
X169010592Y-79567857D02*
X169046307Y-79603571D01*
X169046307Y-79603571D02*
X169082021Y-79675000D01*
X169082021Y-79675000D02*
X169082021Y-79960714D01*
X168760592Y-79246428D02*
X168724878Y-79210714D01*
X168724878Y-79210714D02*
X168689164Y-79139286D01*
X168689164Y-79139286D02*
X168689164Y-78960714D01*
X168689164Y-78960714D02*
X168724878Y-78889286D01*
X168724878Y-78889286D02*
X168760592Y-78853571D01*
X168760592Y-78853571D02*
X168832021Y-78817857D01*
X168832021Y-78817857D02*
X168903450Y-78817857D01*
X168903450Y-78817857D02*
X169010592Y-78853571D01*
X169010592Y-78853571D02*
X169439164Y-79282143D01*
X169439164Y-79282143D02*
X169439164Y-78817857D01*
X168760592Y-78532142D02*
X168724878Y-78496428D01*
X168724878Y-78496428D02*
X168689164Y-78425000D01*
X168689164Y-78425000D02*
X168689164Y-78246428D01*
X168689164Y-78246428D02*
X168724878Y-78175000D01*
X168724878Y-78175000D02*
X168760592Y-78139285D01*
X168760592Y-78139285D02*
X168832021Y-78103571D01*
X168832021Y-78103571D02*
X168903450Y-78103571D01*
X168903450Y-78103571D02*
X169010592Y-78139285D01*
X169010592Y-78139285D02*
X169439164Y-78567857D01*
X169439164Y-78567857D02*
X169439164Y-78103571D01*
X167536428Y-137009164D02*
X167536428Y-136259164D01*
X167536428Y-136259164D02*
X167714999Y-136259164D01*
X167714999Y-136259164D02*
X167822142Y-136294878D01*
X167822142Y-136294878D02*
X167893571Y-136366307D01*
X167893571Y-136366307D02*
X167929285Y-136437735D01*
X167929285Y-136437735D02*
X167964999Y-136580592D01*
X167964999Y-136580592D02*
X167964999Y-136687735D01*
X167964999Y-136687735D02*
X167929285Y-136830592D01*
X167929285Y-136830592D02*
X167893571Y-136902021D01*
X167893571Y-136902021D02*
X167822142Y-136973450D01*
X167822142Y-136973450D02*
X167714999Y-137009164D01*
X167714999Y-137009164D02*
X167536428Y-137009164D01*
X168214999Y-136259164D02*
X168714999Y-136259164D01*
X168714999Y-136259164D02*
X168393571Y-137009164D01*
X158814999Y-130809164D02*
X158564999Y-130452021D01*
X158386428Y-130809164D02*
X158386428Y-130059164D01*
X158386428Y-130059164D02*
X158672142Y-130059164D01*
X158672142Y-130059164D02*
X158743571Y-130094878D01*
X158743571Y-130094878D02*
X158779285Y-130130592D01*
X158779285Y-130130592D02*
X158814999Y-130202021D01*
X158814999Y-130202021D02*
X158814999Y-130309164D01*
X158814999Y-130309164D02*
X158779285Y-130380592D01*
X158779285Y-130380592D02*
X158743571Y-130416307D01*
X158743571Y-130416307D02*
X158672142Y-130452021D01*
X158672142Y-130452021D02*
X158386428Y-130452021D01*
X159243571Y-130380592D02*
X159172142Y-130344878D01*
X159172142Y-130344878D02*
X159136428Y-130309164D01*
X159136428Y-130309164D02*
X159100714Y-130237735D01*
X159100714Y-130237735D02*
X159100714Y-130202021D01*
X159100714Y-130202021D02*
X159136428Y-130130592D01*
X159136428Y-130130592D02*
X159172142Y-130094878D01*
X159172142Y-130094878D02*
X159243571Y-130059164D01*
X159243571Y-130059164D02*
X159386428Y-130059164D01*
X159386428Y-130059164D02*
X159457857Y-130094878D01*
X159457857Y-130094878D02*
X159493571Y-130130592D01*
X159493571Y-130130592D02*
X159529285Y-130202021D01*
X159529285Y-130202021D02*
X159529285Y-130237735D01*
X159529285Y-130237735D02*
X159493571Y-130309164D01*
X159493571Y-130309164D02*
X159457857Y-130344878D01*
X159457857Y-130344878D02*
X159386428Y-130380592D01*
X159386428Y-130380592D02*
X159243571Y-130380592D01*
X159243571Y-130380592D02*
X159172142Y-130416307D01*
X159172142Y-130416307D02*
X159136428Y-130452021D01*
X159136428Y-130452021D02*
X159100714Y-130523450D01*
X159100714Y-130523450D02*
X159100714Y-130666307D01*
X159100714Y-130666307D02*
X159136428Y-130737735D01*
X159136428Y-130737735D02*
X159172142Y-130773450D01*
X159172142Y-130773450D02*
X159243571Y-130809164D01*
X159243571Y-130809164D02*
X159386428Y-130809164D01*
X159386428Y-130809164D02*
X159457857Y-130773450D01*
X159457857Y-130773450D02*
X159493571Y-130737735D01*
X159493571Y-130737735D02*
X159529285Y-130666307D01*
X159529285Y-130666307D02*
X159529285Y-130523450D01*
X159529285Y-130523450D02*
X159493571Y-130452021D01*
X159493571Y-130452021D02*
X159457857Y-130416307D01*
X159457857Y-130416307D02*
X159386428Y-130380592D01*
X131834164Y-66057143D02*
X131477021Y-66307143D01*
X131834164Y-66485714D02*
X131084164Y-66485714D01*
X131084164Y-66485714D02*
X131084164Y-66200000D01*
X131084164Y-66200000D02*
X131119878Y-66128571D01*
X131119878Y-66128571D02*
X131155592Y-66092857D01*
X131155592Y-66092857D02*
X131227021Y-66057143D01*
X131227021Y-66057143D02*
X131334164Y-66057143D01*
X131334164Y-66057143D02*
X131405592Y-66092857D01*
X131405592Y-66092857D02*
X131441307Y-66128571D01*
X131441307Y-66128571D02*
X131477021Y-66200000D01*
X131477021Y-66200000D02*
X131477021Y-66485714D01*
X131834164Y-65342857D02*
X131834164Y-65771428D01*
X131834164Y-65557143D02*
X131084164Y-65557143D01*
X131084164Y-65557143D02*
X131191307Y-65628571D01*
X131191307Y-65628571D02*
X131262735Y-65700000D01*
X131262735Y-65700000D02*
X131298450Y-65771428D01*
X131084164Y-65092857D02*
X131084164Y-64628571D01*
X131084164Y-64628571D02*
X131369878Y-64878571D01*
X131369878Y-64878571D02*
X131369878Y-64771428D01*
X131369878Y-64771428D02*
X131405592Y-64700000D01*
X131405592Y-64700000D02*
X131441307Y-64664285D01*
X131441307Y-64664285D02*
X131512735Y-64628571D01*
X131512735Y-64628571D02*
X131691307Y-64628571D01*
X131691307Y-64628571D02*
X131762735Y-64664285D01*
X131762735Y-64664285D02*
X131798450Y-64700000D01*
X131798450Y-64700000D02*
X131834164Y-64771428D01*
X131834164Y-64771428D02*
X131834164Y-64985714D01*
X131834164Y-64985714D02*
X131798450Y-65057142D01*
X131798450Y-65057142D02*
X131762735Y-65092857D01*
X147577735Y-83525000D02*
X147613450Y-83560714D01*
X147613450Y-83560714D02*
X147649164Y-83667857D01*
X147649164Y-83667857D02*
X147649164Y-83739285D01*
X147649164Y-83739285D02*
X147613450Y-83846428D01*
X147613450Y-83846428D02*
X147542021Y-83917857D01*
X147542021Y-83917857D02*
X147470592Y-83953571D01*
X147470592Y-83953571D02*
X147327735Y-83989285D01*
X147327735Y-83989285D02*
X147220592Y-83989285D01*
X147220592Y-83989285D02*
X147077735Y-83953571D01*
X147077735Y-83953571D02*
X147006307Y-83917857D01*
X147006307Y-83917857D02*
X146934878Y-83846428D01*
X146934878Y-83846428D02*
X146899164Y-83739285D01*
X146899164Y-83739285D02*
X146899164Y-83667857D01*
X146899164Y-83667857D02*
X146934878Y-83560714D01*
X146934878Y-83560714D02*
X146970592Y-83525000D01*
X146899164Y-82882143D02*
X146899164Y-83025000D01*
X146899164Y-83025000D02*
X146934878Y-83096428D01*
X146934878Y-83096428D02*
X146970592Y-83132143D01*
X146970592Y-83132143D02*
X147077735Y-83203571D01*
X147077735Y-83203571D02*
X147220592Y-83239285D01*
X147220592Y-83239285D02*
X147506307Y-83239285D01*
X147506307Y-83239285D02*
X147577735Y-83203571D01*
X147577735Y-83203571D02*
X147613450Y-83167857D01*
X147613450Y-83167857D02*
X147649164Y-83096428D01*
X147649164Y-83096428D02*
X147649164Y-82953571D01*
X147649164Y-82953571D02*
X147613450Y-82882143D01*
X147613450Y-82882143D02*
X147577735Y-82846428D01*
X147577735Y-82846428D02*
X147506307Y-82810714D01*
X147506307Y-82810714D02*
X147327735Y-82810714D01*
X147327735Y-82810714D02*
X147256307Y-82846428D01*
X147256307Y-82846428D02*
X147220592Y-82882143D01*
X147220592Y-82882143D02*
X147184878Y-82953571D01*
X147184878Y-82953571D02*
X147184878Y-83096428D01*
X147184878Y-83096428D02*
X147220592Y-83167857D01*
X147220592Y-83167857D02*
X147256307Y-83203571D01*
X147256307Y-83203571D02*
X147327735Y-83239285D01*
X146609164Y-83582143D02*
X146252021Y-83832143D01*
X146609164Y-84010714D02*
X145859164Y-84010714D01*
X145859164Y-84010714D02*
X145859164Y-83725000D01*
X145859164Y-83725000D02*
X145894878Y-83653571D01*
X145894878Y-83653571D02*
X145930592Y-83617857D01*
X145930592Y-83617857D02*
X146002021Y-83582143D01*
X146002021Y-83582143D02*
X146109164Y-83582143D01*
X146109164Y-83582143D02*
X146180592Y-83617857D01*
X146180592Y-83617857D02*
X146216307Y-83653571D01*
X146216307Y-83653571D02*
X146252021Y-83725000D01*
X146252021Y-83725000D02*
X146252021Y-84010714D01*
X145859164Y-83332143D02*
X145859164Y-82867857D01*
X145859164Y-82867857D02*
X146144878Y-83117857D01*
X146144878Y-83117857D02*
X146144878Y-83010714D01*
X146144878Y-83010714D02*
X146180592Y-82939286D01*
X146180592Y-82939286D02*
X146216307Y-82903571D01*
X146216307Y-82903571D02*
X146287735Y-82867857D01*
X146287735Y-82867857D02*
X146466307Y-82867857D01*
X146466307Y-82867857D02*
X146537735Y-82903571D01*
X146537735Y-82903571D02*
X146573450Y-82939286D01*
X146573450Y-82939286D02*
X146609164Y-83010714D01*
X146609164Y-83010714D02*
X146609164Y-83225000D01*
X146609164Y-83225000D02*
X146573450Y-83296428D01*
X146573450Y-83296428D02*
X146537735Y-83332143D01*
X145859164Y-82617857D02*
X145859164Y-82117857D01*
X145859164Y-82117857D02*
X146609164Y-82439285D01*
X168339164Y-79532143D02*
X167982021Y-79782143D01*
X168339164Y-79960714D02*
X167589164Y-79960714D01*
X167589164Y-79960714D02*
X167589164Y-79675000D01*
X167589164Y-79675000D02*
X167624878Y-79603571D01*
X167624878Y-79603571D02*
X167660592Y-79567857D01*
X167660592Y-79567857D02*
X167732021Y-79532143D01*
X167732021Y-79532143D02*
X167839164Y-79532143D01*
X167839164Y-79532143D02*
X167910592Y-79567857D01*
X167910592Y-79567857D02*
X167946307Y-79603571D01*
X167946307Y-79603571D02*
X167982021Y-79675000D01*
X167982021Y-79675000D02*
X167982021Y-79960714D01*
X167660592Y-79246428D02*
X167624878Y-79210714D01*
X167624878Y-79210714D02*
X167589164Y-79139286D01*
X167589164Y-79139286D02*
X167589164Y-78960714D01*
X167589164Y-78960714D02*
X167624878Y-78889286D01*
X167624878Y-78889286D02*
X167660592Y-78853571D01*
X167660592Y-78853571D02*
X167732021Y-78817857D01*
X167732021Y-78817857D02*
X167803450Y-78817857D01*
X167803450Y-78817857D02*
X167910592Y-78853571D01*
X167910592Y-78853571D02*
X168339164Y-79282143D01*
X168339164Y-79282143D02*
X168339164Y-78817857D01*
X168339164Y-78103571D02*
X168339164Y-78532142D01*
X168339164Y-78317857D02*
X167589164Y-78317857D01*
X167589164Y-78317857D02*
X167696307Y-78389285D01*
X167696307Y-78389285D02*
X167767735Y-78460714D01*
X167767735Y-78460714D02*
X167803450Y-78532142D01*
X165219285Y-132119164D02*
X165219285Y-131369164D01*
X165219285Y-131369164D02*
X165397856Y-131369164D01*
X165397856Y-131369164D02*
X165504999Y-131404878D01*
X165504999Y-131404878D02*
X165576428Y-131476307D01*
X165576428Y-131476307D02*
X165612142Y-131547735D01*
X165612142Y-131547735D02*
X165647856Y-131690592D01*
X165647856Y-131690592D02*
X165647856Y-131797735D01*
X165647856Y-131797735D02*
X165612142Y-131940592D01*
X165612142Y-131940592D02*
X165576428Y-132012021D01*
X165576428Y-132012021D02*
X165504999Y-132083450D01*
X165504999Y-132083450D02*
X165397856Y-132119164D01*
X165397856Y-132119164D02*
X165219285Y-132119164D01*
X166362142Y-132119164D02*
X165933571Y-132119164D01*
X166147856Y-132119164D02*
X166147856Y-131369164D01*
X166147856Y-131369164D02*
X166076428Y-131476307D01*
X166076428Y-131476307D02*
X166004999Y-131547735D01*
X166004999Y-131547735D02*
X165933571Y-131583450D01*
X167076428Y-132119164D02*
X166647857Y-132119164D01*
X166862142Y-132119164D02*
X166862142Y-131369164D01*
X166862142Y-131369164D02*
X166790714Y-131476307D01*
X166790714Y-131476307D02*
X166719285Y-131547735D01*
X166719285Y-131547735D02*
X166647857Y-131583450D01*
X148187735Y-100722143D02*
X148223450Y-100757857D01*
X148223450Y-100757857D02*
X148259164Y-100865000D01*
X148259164Y-100865000D02*
X148259164Y-100936428D01*
X148259164Y-100936428D02*
X148223450Y-101043571D01*
X148223450Y-101043571D02*
X148152021Y-101115000D01*
X148152021Y-101115000D02*
X148080592Y-101150714D01*
X148080592Y-101150714D02*
X147937735Y-101186428D01*
X147937735Y-101186428D02*
X147830592Y-101186428D01*
X147830592Y-101186428D02*
X147687735Y-101150714D01*
X147687735Y-101150714D02*
X147616307Y-101115000D01*
X147616307Y-101115000D02*
X147544878Y-101043571D01*
X147544878Y-101043571D02*
X147509164Y-100936428D01*
X147509164Y-100936428D02*
X147509164Y-100865000D01*
X147509164Y-100865000D02*
X147544878Y-100757857D01*
X147544878Y-100757857D02*
X147580592Y-100722143D01*
X148259164Y-100007857D02*
X148259164Y-100436428D01*
X148259164Y-100222143D02*
X147509164Y-100222143D01*
X147509164Y-100222143D02*
X147616307Y-100293571D01*
X147616307Y-100293571D02*
X147687735Y-100365000D01*
X147687735Y-100365000D02*
X147723450Y-100436428D01*
X147509164Y-99329285D02*
X147509164Y-99686428D01*
X147509164Y-99686428D02*
X147866307Y-99722142D01*
X147866307Y-99722142D02*
X147830592Y-99686428D01*
X147830592Y-99686428D02*
X147794878Y-99615000D01*
X147794878Y-99615000D02*
X147794878Y-99436428D01*
X147794878Y-99436428D02*
X147830592Y-99365000D01*
X147830592Y-99365000D02*
X147866307Y-99329285D01*
X147866307Y-99329285D02*
X147937735Y-99293571D01*
X147937735Y-99293571D02*
X148116307Y-99293571D01*
X148116307Y-99293571D02*
X148187735Y-99329285D01*
X148187735Y-99329285D02*
X148223450Y-99365000D01*
X148223450Y-99365000D02*
X148259164Y-99436428D01*
X148259164Y-99436428D02*
X148259164Y-99615000D01*
X148259164Y-99615000D02*
X148223450Y-99686428D01*
X148223450Y-99686428D02*
X148187735Y-99722142D01*
X182769164Y-123432143D02*
X182412021Y-123682143D01*
X182769164Y-123860714D02*
X182019164Y-123860714D01*
X182019164Y-123860714D02*
X182019164Y-123575000D01*
X182019164Y-123575000D02*
X182054878Y-123503571D01*
X182054878Y-123503571D02*
X182090592Y-123467857D01*
X182090592Y-123467857D02*
X182162021Y-123432143D01*
X182162021Y-123432143D02*
X182269164Y-123432143D01*
X182269164Y-123432143D02*
X182340592Y-123467857D01*
X182340592Y-123467857D02*
X182376307Y-123503571D01*
X182376307Y-123503571D02*
X182412021Y-123575000D01*
X182412021Y-123575000D02*
X182412021Y-123860714D01*
X182090592Y-123146428D02*
X182054878Y-123110714D01*
X182054878Y-123110714D02*
X182019164Y-123039286D01*
X182019164Y-123039286D02*
X182019164Y-122860714D01*
X182019164Y-122860714D02*
X182054878Y-122789286D01*
X182054878Y-122789286D02*
X182090592Y-122753571D01*
X182090592Y-122753571D02*
X182162021Y-122717857D01*
X182162021Y-122717857D02*
X182233450Y-122717857D01*
X182233450Y-122717857D02*
X182340592Y-122753571D01*
X182340592Y-122753571D02*
X182769164Y-123182143D01*
X182769164Y-123182143D02*
X182769164Y-122717857D01*
X182019164Y-122039285D02*
X182019164Y-122396428D01*
X182019164Y-122396428D02*
X182376307Y-122432142D01*
X182376307Y-122432142D02*
X182340592Y-122396428D01*
X182340592Y-122396428D02*
X182304878Y-122325000D01*
X182304878Y-122325000D02*
X182304878Y-122146428D01*
X182304878Y-122146428D02*
X182340592Y-122075000D01*
X182340592Y-122075000D02*
X182376307Y-122039285D01*
X182376307Y-122039285D02*
X182447735Y-122003571D01*
X182447735Y-122003571D02*
X182626307Y-122003571D01*
X182626307Y-122003571D02*
X182697735Y-122039285D01*
X182697735Y-122039285D02*
X182733450Y-122075000D01*
X182733450Y-122075000D02*
X182769164Y-122146428D01*
X182769164Y-122146428D02*
X182769164Y-122325000D01*
X182769164Y-122325000D02*
X182733450Y-122396428D01*
X182733450Y-122396428D02*
X182697735Y-122432142D01*
X143397735Y-123345000D02*
X143433450Y-123380714D01*
X143433450Y-123380714D02*
X143469164Y-123487857D01*
X143469164Y-123487857D02*
X143469164Y-123559285D01*
X143469164Y-123559285D02*
X143433450Y-123666428D01*
X143433450Y-123666428D02*
X143362021Y-123737857D01*
X143362021Y-123737857D02*
X143290592Y-123773571D01*
X143290592Y-123773571D02*
X143147735Y-123809285D01*
X143147735Y-123809285D02*
X143040592Y-123809285D01*
X143040592Y-123809285D02*
X142897735Y-123773571D01*
X142897735Y-123773571D02*
X142826307Y-123737857D01*
X142826307Y-123737857D02*
X142754878Y-123666428D01*
X142754878Y-123666428D02*
X142719164Y-123559285D01*
X142719164Y-123559285D02*
X142719164Y-123487857D01*
X142719164Y-123487857D02*
X142754878Y-123380714D01*
X142754878Y-123380714D02*
X142790592Y-123345000D01*
X142719164Y-123095000D02*
X142719164Y-122595000D01*
X142719164Y-122595000D02*
X143469164Y-122916428D01*
X173979164Y-121912143D02*
X173622021Y-122162143D01*
X173979164Y-122340714D02*
X173229164Y-122340714D01*
X173229164Y-122340714D02*
X173229164Y-122055000D01*
X173229164Y-122055000D02*
X173264878Y-121983571D01*
X173264878Y-121983571D02*
X173300592Y-121947857D01*
X173300592Y-121947857D02*
X173372021Y-121912143D01*
X173372021Y-121912143D02*
X173479164Y-121912143D01*
X173479164Y-121912143D02*
X173550592Y-121947857D01*
X173550592Y-121947857D02*
X173586307Y-121983571D01*
X173586307Y-121983571D02*
X173622021Y-122055000D01*
X173622021Y-122055000D02*
X173622021Y-122340714D01*
X173300592Y-121626428D02*
X173264878Y-121590714D01*
X173264878Y-121590714D02*
X173229164Y-121519286D01*
X173229164Y-121519286D02*
X173229164Y-121340714D01*
X173229164Y-121340714D02*
X173264878Y-121269286D01*
X173264878Y-121269286D02*
X173300592Y-121233571D01*
X173300592Y-121233571D02*
X173372021Y-121197857D01*
X173372021Y-121197857D02*
X173443450Y-121197857D01*
X173443450Y-121197857D02*
X173550592Y-121233571D01*
X173550592Y-121233571D02*
X173979164Y-121662143D01*
X173979164Y-121662143D02*
X173979164Y-121197857D01*
X173229164Y-120947857D02*
X173229164Y-120447857D01*
X173229164Y-120447857D02*
X173979164Y-120769285D01*
X150232021Y-110957142D02*
X150589164Y-110957142D01*
X149839164Y-111207142D02*
X150232021Y-110957142D01*
X150232021Y-110957142D02*
X149839164Y-110707142D01*
X150589164Y-110064285D02*
X150589164Y-110492856D01*
X150589164Y-110278571D02*
X149839164Y-110278571D01*
X149839164Y-110278571D02*
X149946307Y-110349999D01*
X149946307Y-110349999D02*
X150017735Y-110421428D01*
X150017735Y-110421428D02*
X150053450Y-110492856D01*
X172609164Y-80032143D02*
X172252021Y-80282143D01*
X172609164Y-80460714D02*
X171859164Y-80460714D01*
X171859164Y-80460714D02*
X171859164Y-80175000D01*
X171859164Y-80175000D02*
X171894878Y-80103571D01*
X171894878Y-80103571D02*
X171930592Y-80067857D01*
X171930592Y-80067857D02*
X172002021Y-80032143D01*
X172002021Y-80032143D02*
X172109164Y-80032143D01*
X172109164Y-80032143D02*
X172180592Y-80067857D01*
X172180592Y-80067857D02*
X172216307Y-80103571D01*
X172216307Y-80103571D02*
X172252021Y-80175000D01*
X172252021Y-80175000D02*
X172252021Y-80460714D01*
X171859164Y-79782143D02*
X171859164Y-79317857D01*
X171859164Y-79317857D02*
X172144878Y-79567857D01*
X172144878Y-79567857D02*
X172144878Y-79460714D01*
X172144878Y-79460714D02*
X172180592Y-79389286D01*
X172180592Y-79389286D02*
X172216307Y-79353571D01*
X172216307Y-79353571D02*
X172287735Y-79317857D01*
X172287735Y-79317857D02*
X172466307Y-79317857D01*
X172466307Y-79317857D02*
X172537735Y-79353571D01*
X172537735Y-79353571D02*
X172573450Y-79389286D01*
X172573450Y-79389286D02*
X172609164Y-79460714D01*
X172609164Y-79460714D02*
X172609164Y-79675000D01*
X172609164Y-79675000D02*
X172573450Y-79746428D01*
X172573450Y-79746428D02*
X172537735Y-79782143D01*
X171930592Y-79032142D02*
X171894878Y-78996428D01*
X171894878Y-78996428D02*
X171859164Y-78925000D01*
X171859164Y-78925000D02*
X171859164Y-78746428D01*
X171859164Y-78746428D02*
X171894878Y-78675000D01*
X171894878Y-78675000D02*
X171930592Y-78639285D01*
X171930592Y-78639285D02*
X172002021Y-78603571D01*
X172002021Y-78603571D02*
X172073450Y-78603571D01*
X172073450Y-78603571D02*
X172180592Y-78639285D01*
X172180592Y-78639285D02*
X172609164Y-79067857D01*
X172609164Y-79067857D02*
X172609164Y-78603571D01*
X170447735Y-79572143D02*
X170483450Y-79607857D01*
X170483450Y-79607857D02*
X170519164Y-79715000D01*
X170519164Y-79715000D02*
X170519164Y-79786428D01*
X170519164Y-79786428D02*
X170483450Y-79893571D01*
X170483450Y-79893571D02*
X170412021Y-79965000D01*
X170412021Y-79965000D02*
X170340592Y-80000714D01*
X170340592Y-80000714D02*
X170197735Y-80036428D01*
X170197735Y-80036428D02*
X170090592Y-80036428D01*
X170090592Y-80036428D02*
X169947735Y-80000714D01*
X169947735Y-80000714D02*
X169876307Y-79965000D01*
X169876307Y-79965000D02*
X169804878Y-79893571D01*
X169804878Y-79893571D02*
X169769164Y-79786428D01*
X169769164Y-79786428D02*
X169769164Y-79715000D01*
X169769164Y-79715000D02*
X169804878Y-79607857D01*
X169804878Y-79607857D02*
X169840592Y-79572143D01*
X170519164Y-78857857D02*
X170519164Y-79286428D01*
X170519164Y-79072143D02*
X169769164Y-79072143D01*
X169769164Y-79072143D02*
X169876307Y-79143571D01*
X169876307Y-79143571D02*
X169947735Y-79215000D01*
X169947735Y-79215000D02*
X169983450Y-79286428D01*
X169769164Y-78393571D02*
X169769164Y-78322142D01*
X169769164Y-78322142D02*
X169804878Y-78250714D01*
X169804878Y-78250714D02*
X169840592Y-78215000D01*
X169840592Y-78215000D02*
X169912021Y-78179285D01*
X169912021Y-78179285D02*
X170054878Y-78143571D01*
X170054878Y-78143571D02*
X170233450Y-78143571D01*
X170233450Y-78143571D02*
X170376307Y-78179285D01*
X170376307Y-78179285D02*
X170447735Y-78215000D01*
X170447735Y-78215000D02*
X170483450Y-78250714D01*
X170483450Y-78250714D02*
X170519164Y-78322142D01*
X170519164Y-78322142D02*
X170519164Y-78393571D01*
X170519164Y-78393571D02*
X170483450Y-78465000D01*
X170483450Y-78465000D02*
X170447735Y-78500714D01*
X170447735Y-78500714D02*
X170376307Y-78536428D01*
X170376307Y-78536428D02*
X170233450Y-78572142D01*
X170233450Y-78572142D02*
X170054878Y-78572142D01*
X170054878Y-78572142D02*
X169912021Y-78536428D01*
X169912021Y-78536428D02*
X169840592Y-78500714D01*
X169840592Y-78500714D02*
X169804878Y-78465000D01*
X169804878Y-78465000D02*
X169769164Y-78393571D01*
X149427735Y-111242143D02*
X149463450Y-111277857D01*
X149463450Y-111277857D02*
X149499164Y-111385000D01*
X149499164Y-111385000D02*
X149499164Y-111456428D01*
X149499164Y-111456428D02*
X149463450Y-111563571D01*
X149463450Y-111563571D02*
X149392021Y-111635000D01*
X149392021Y-111635000D02*
X149320592Y-111670714D01*
X149320592Y-111670714D02*
X149177735Y-111706428D01*
X149177735Y-111706428D02*
X149070592Y-111706428D01*
X149070592Y-111706428D02*
X148927735Y-111670714D01*
X148927735Y-111670714D02*
X148856307Y-111635000D01*
X148856307Y-111635000D02*
X148784878Y-111563571D01*
X148784878Y-111563571D02*
X148749164Y-111456428D01*
X148749164Y-111456428D02*
X148749164Y-111385000D01*
X148749164Y-111385000D02*
X148784878Y-111277857D01*
X148784878Y-111277857D02*
X148820592Y-111242143D01*
X148749164Y-110992143D02*
X148749164Y-110527857D01*
X148749164Y-110527857D02*
X149034878Y-110777857D01*
X149034878Y-110777857D02*
X149034878Y-110670714D01*
X149034878Y-110670714D02*
X149070592Y-110599286D01*
X149070592Y-110599286D02*
X149106307Y-110563571D01*
X149106307Y-110563571D02*
X149177735Y-110527857D01*
X149177735Y-110527857D02*
X149356307Y-110527857D01*
X149356307Y-110527857D02*
X149427735Y-110563571D01*
X149427735Y-110563571D02*
X149463450Y-110599286D01*
X149463450Y-110599286D02*
X149499164Y-110670714D01*
X149499164Y-110670714D02*
X149499164Y-110885000D01*
X149499164Y-110885000D02*
X149463450Y-110956428D01*
X149463450Y-110956428D02*
X149427735Y-110992143D01*
X148749164Y-109885000D02*
X148749164Y-110027857D01*
X148749164Y-110027857D02*
X148784878Y-110099285D01*
X148784878Y-110099285D02*
X148820592Y-110135000D01*
X148820592Y-110135000D02*
X148927735Y-110206428D01*
X148927735Y-110206428D02*
X149070592Y-110242142D01*
X149070592Y-110242142D02*
X149356307Y-110242142D01*
X149356307Y-110242142D02*
X149427735Y-110206428D01*
X149427735Y-110206428D02*
X149463450Y-110170714D01*
X149463450Y-110170714D02*
X149499164Y-110099285D01*
X149499164Y-110099285D02*
X149499164Y-109956428D01*
X149499164Y-109956428D02*
X149463450Y-109885000D01*
X149463450Y-109885000D02*
X149427735Y-109849285D01*
X149427735Y-109849285D02*
X149356307Y-109813571D01*
X149356307Y-109813571D02*
X149177735Y-109813571D01*
X149177735Y-109813571D02*
X149106307Y-109849285D01*
X149106307Y-109849285D02*
X149070592Y-109885000D01*
X149070592Y-109885000D02*
X149034878Y-109956428D01*
X149034878Y-109956428D02*
X149034878Y-110099285D01*
X149034878Y-110099285D02*
X149070592Y-110170714D01*
X149070592Y-110170714D02*
X149106307Y-110206428D01*
X149106307Y-110206428D02*
X149177735Y-110242142D01*
X146167856Y-117077735D02*
X146132142Y-117113450D01*
X146132142Y-117113450D02*
X146024999Y-117149164D01*
X146024999Y-117149164D02*
X145953571Y-117149164D01*
X145953571Y-117149164D02*
X145846428Y-117113450D01*
X145846428Y-117113450D02*
X145774999Y-117042021D01*
X145774999Y-117042021D02*
X145739285Y-116970592D01*
X145739285Y-116970592D02*
X145703571Y-116827735D01*
X145703571Y-116827735D02*
X145703571Y-116720592D01*
X145703571Y-116720592D02*
X145739285Y-116577735D01*
X145739285Y-116577735D02*
X145774999Y-116506307D01*
X145774999Y-116506307D02*
X145846428Y-116434878D01*
X145846428Y-116434878D02*
X145953571Y-116399164D01*
X145953571Y-116399164D02*
X146024999Y-116399164D01*
X146024999Y-116399164D02*
X146132142Y-116434878D01*
X146132142Y-116434878D02*
X146167856Y-116470592D01*
X146810714Y-116649164D02*
X146810714Y-117149164D01*
X146632142Y-116363450D02*
X146453571Y-116899164D01*
X146453571Y-116899164D02*
X146917856Y-116899164D01*
X147560714Y-116399164D02*
X147203571Y-116399164D01*
X147203571Y-116399164D02*
X147167857Y-116756307D01*
X147167857Y-116756307D02*
X147203571Y-116720592D01*
X147203571Y-116720592D02*
X147275000Y-116684878D01*
X147275000Y-116684878D02*
X147453571Y-116684878D01*
X147453571Y-116684878D02*
X147525000Y-116720592D01*
X147525000Y-116720592D02*
X147560714Y-116756307D01*
X147560714Y-116756307D02*
X147596428Y-116827735D01*
X147596428Y-116827735D02*
X147596428Y-117006307D01*
X147596428Y-117006307D02*
X147560714Y-117077735D01*
X147560714Y-117077735D02*
X147525000Y-117113450D01*
X147525000Y-117113450D02*
X147453571Y-117149164D01*
X147453571Y-117149164D02*
X147275000Y-117149164D01*
X147275000Y-117149164D02*
X147203571Y-117113450D01*
X147203571Y-117113450D02*
X147167857Y-117077735D01*
X151587735Y-124922143D02*
X151623450Y-124957857D01*
X151623450Y-124957857D02*
X151659164Y-125065000D01*
X151659164Y-125065000D02*
X151659164Y-125136428D01*
X151659164Y-125136428D02*
X151623450Y-125243571D01*
X151623450Y-125243571D02*
X151552021Y-125315000D01*
X151552021Y-125315000D02*
X151480592Y-125350714D01*
X151480592Y-125350714D02*
X151337735Y-125386428D01*
X151337735Y-125386428D02*
X151230592Y-125386428D01*
X151230592Y-125386428D02*
X151087735Y-125350714D01*
X151087735Y-125350714D02*
X151016307Y-125315000D01*
X151016307Y-125315000D02*
X150944878Y-125243571D01*
X150944878Y-125243571D02*
X150909164Y-125136428D01*
X150909164Y-125136428D02*
X150909164Y-125065000D01*
X150909164Y-125065000D02*
X150944878Y-124957857D01*
X150944878Y-124957857D02*
X150980592Y-124922143D01*
X150909164Y-124672143D02*
X150909164Y-124207857D01*
X150909164Y-124207857D02*
X151194878Y-124457857D01*
X151194878Y-124457857D02*
X151194878Y-124350714D01*
X151194878Y-124350714D02*
X151230592Y-124279286D01*
X151230592Y-124279286D02*
X151266307Y-124243571D01*
X151266307Y-124243571D02*
X151337735Y-124207857D01*
X151337735Y-124207857D02*
X151516307Y-124207857D01*
X151516307Y-124207857D02*
X151587735Y-124243571D01*
X151587735Y-124243571D02*
X151623450Y-124279286D01*
X151623450Y-124279286D02*
X151659164Y-124350714D01*
X151659164Y-124350714D02*
X151659164Y-124565000D01*
X151659164Y-124565000D02*
X151623450Y-124636428D01*
X151623450Y-124636428D02*
X151587735Y-124672143D01*
X151230592Y-123779285D02*
X151194878Y-123850714D01*
X151194878Y-123850714D02*
X151159164Y-123886428D01*
X151159164Y-123886428D02*
X151087735Y-123922142D01*
X151087735Y-123922142D02*
X151052021Y-123922142D01*
X151052021Y-123922142D02*
X150980592Y-123886428D01*
X150980592Y-123886428D02*
X150944878Y-123850714D01*
X150944878Y-123850714D02*
X150909164Y-123779285D01*
X150909164Y-123779285D02*
X150909164Y-123636428D01*
X150909164Y-123636428D02*
X150944878Y-123565000D01*
X150944878Y-123565000D02*
X150980592Y-123529285D01*
X150980592Y-123529285D02*
X151052021Y-123493571D01*
X151052021Y-123493571D02*
X151087735Y-123493571D01*
X151087735Y-123493571D02*
X151159164Y-123529285D01*
X151159164Y-123529285D02*
X151194878Y-123565000D01*
X151194878Y-123565000D02*
X151230592Y-123636428D01*
X151230592Y-123636428D02*
X151230592Y-123779285D01*
X151230592Y-123779285D02*
X151266307Y-123850714D01*
X151266307Y-123850714D02*
X151302021Y-123886428D01*
X151302021Y-123886428D02*
X151373450Y-123922142D01*
X151373450Y-123922142D02*
X151516307Y-123922142D01*
X151516307Y-123922142D02*
X151587735Y-123886428D01*
X151587735Y-123886428D02*
X151623450Y-123850714D01*
X151623450Y-123850714D02*
X151659164Y-123779285D01*
X151659164Y-123779285D02*
X151659164Y-123636428D01*
X151659164Y-123636428D02*
X151623450Y-123565000D01*
X151623450Y-123565000D02*
X151587735Y-123529285D01*
X151587735Y-123529285D02*
X151516307Y-123493571D01*
X151516307Y-123493571D02*
X151373450Y-123493571D01*
X151373450Y-123493571D02*
X151302021Y-123529285D01*
X151302021Y-123529285D02*
X151266307Y-123565000D01*
X151266307Y-123565000D02*
X151230592Y-123636428D01*
X161217735Y-78925000D02*
X161253450Y-78960714D01*
X161253450Y-78960714D02*
X161289164Y-79067857D01*
X161289164Y-79067857D02*
X161289164Y-79139285D01*
X161289164Y-79139285D02*
X161253450Y-79246428D01*
X161253450Y-79246428D02*
X161182021Y-79317857D01*
X161182021Y-79317857D02*
X161110592Y-79353571D01*
X161110592Y-79353571D02*
X160967735Y-79389285D01*
X160967735Y-79389285D02*
X160860592Y-79389285D01*
X160860592Y-79389285D02*
X160717735Y-79353571D01*
X160717735Y-79353571D02*
X160646307Y-79317857D01*
X160646307Y-79317857D02*
X160574878Y-79246428D01*
X160574878Y-79246428D02*
X160539164Y-79139285D01*
X160539164Y-79139285D02*
X160539164Y-79067857D01*
X160539164Y-79067857D02*
X160574878Y-78960714D01*
X160574878Y-78960714D02*
X160610592Y-78925000D01*
X161289164Y-78567857D02*
X161289164Y-78425000D01*
X161289164Y-78425000D02*
X161253450Y-78353571D01*
X161253450Y-78353571D02*
X161217735Y-78317857D01*
X161217735Y-78317857D02*
X161110592Y-78246428D01*
X161110592Y-78246428D02*
X160967735Y-78210714D01*
X160967735Y-78210714D02*
X160682021Y-78210714D01*
X160682021Y-78210714D02*
X160610592Y-78246428D01*
X160610592Y-78246428D02*
X160574878Y-78282143D01*
X160574878Y-78282143D02*
X160539164Y-78353571D01*
X160539164Y-78353571D02*
X160539164Y-78496428D01*
X160539164Y-78496428D02*
X160574878Y-78567857D01*
X160574878Y-78567857D02*
X160610592Y-78603571D01*
X160610592Y-78603571D02*
X160682021Y-78639285D01*
X160682021Y-78639285D02*
X160860592Y-78639285D01*
X160860592Y-78639285D02*
X160932021Y-78603571D01*
X160932021Y-78603571D02*
X160967735Y-78567857D01*
X160967735Y-78567857D02*
X161003450Y-78496428D01*
X161003450Y-78496428D02*
X161003450Y-78353571D01*
X161003450Y-78353571D02*
X160967735Y-78282143D01*
X160967735Y-78282143D02*
X160932021Y-78246428D01*
X160932021Y-78246428D02*
X160860592Y-78210714D01*
X159344999Y-128917735D02*
X159309285Y-128953450D01*
X159309285Y-128953450D02*
X159202142Y-128989164D01*
X159202142Y-128989164D02*
X159130714Y-128989164D01*
X159130714Y-128989164D02*
X159023571Y-128953450D01*
X159023571Y-128953450D02*
X158952142Y-128882021D01*
X158952142Y-128882021D02*
X158916428Y-128810592D01*
X158916428Y-128810592D02*
X158880714Y-128667735D01*
X158880714Y-128667735D02*
X158880714Y-128560592D01*
X158880714Y-128560592D02*
X158916428Y-128417735D01*
X158916428Y-128417735D02*
X158952142Y-128346307D01*
X158952142Y-128346307D02*
X159023571Y-128274878D01*
X159023571Y-128274878D02*
X159130714Y-128239164D01*
X159130714Y-128239164D02*
X159202142Y-128239164D01*
X159202142Y-128239164D02*
X159309285Y-128274878D01*
X159309285Y-128274878D02*
X159344999Y-128310592D01*
X159594999Y-128239164D02*
X160059285Y-128239164D01*
X160059285Y-128239164D02*
X159809285Y-128524878D01*
X159809285Y-128524878D02*
X159916428Y-128524878D01*
X159916428Y-128524878D02*
X159987857Y-128560592D01*
X159987857Y-128560592D02*
X160023571Y-128596307D01*
X160023571Y-128596307D02*
X160059285Y-128667735D01*
X160059285Y-128667735D02*
X160059285Y-128846307D01*
X160059285Y-128846307D02*
X160023571Y-128917735D01*
X160023571Y-128917735D02*
X159987857Y-128953450D01*
X159987857Y-128953450D02*
X159916428Y-128989164D01*
X159916428Y-128989164D02*
X159702142Y-128989164D01*
X159702142Y-128989164D02*
X159630714Y-128953450D01*
X159630714Y-128953450D02*
X159594999Y-128917735D01*
X154117735Y-124942143D02*
X154153450Y-124977857D01*
X154153450Y-124977857D02*
X154189164Y-125085000D01*
X154189164Y-125085000D02*
X154189164Y-125156428D01*
X154189164Y-125156428D02*
X154153450Y-125263571D01*
X154153450Y-125263571D02*
X154082021Y-125335000D01*
X154082021Y-125335000D02*
X154010592Y-125370714D01*
X154010592Y-125370714D02*
X153867735Y-125406428D01*
X153867735Y-125406428D02*
X153760592Y-125406428D01*
X153760592Y-125406428D02*
X153617735Y-125370714D01*
X153617735Y-125370714D02*
X153546307Y-125335000D01*
X153546307Y-125335000D02*
X153474878Y-125263571D01*
X153474878Y-125263571D02*
X153439164Y-125156428D01*
X153439164Y-125156428D02*
X153439164Y-125085000D01*
X153439164Y-125085000D02*
X153474878Y-124977857D01*
X153474878Y-124977857D02*
X153510592Y-124942143D01*
X153689164Y-124299286D02*
X154189164Y-124299286D01*
X153403450Y-124477857D02*
X153939164Y-124656428D01*
X153939164Y-124656428D02*
X153939164Y-124192143D01*
X153689164Y-123585000D02*
X154189164Y-123585000D01*
X153403450Y-123763571D02*
X153939164Y-123942142D01*
X153939164Y-123942142D02*
X153939164Y-123477857D01*
X165597856Y-64767735D02*
X165562142Y-64803450D01*
X165562142Y-64803450D02*
X165454999Y-64839164D01*
X165454999Y-64839164D02*
X165383571Y-64839164D01*
X165383571Y-64839164D02*
X165276428Y-64803450D01*
X165276428Y-64803450D02*
X165204999Y-64732021D01*
X165204999Y-64732021D02*
X165169285Y-64660592D01*
X165169285Y-64660592D02*
X165133571Y-64517735D01*
X165133571Y-64517735D02*
X165133571Y-64410592D01*
X165133571Y-64410592D02*
X165169285Y-64267735D01*
X165169285Y-64267735D02*
X165204999Y-64196307D01*
X165204999Y-64196307D02*
X165276428Y-64124878D01*
X165276428Y-64124878D02*
X165383571Y-64089164D01*
X165383571Y-64089164D02*
X165454999Y-64089164D01*
X165454999Y-64089164D02*
X165562142Y-64124878D01*
X165562142Y-64124878D02*
X165597856Y-64160592D01*
X166312142Y-64839164D02*
X165883571Y-64839164D01*
X166097856Y-64839164D02*
X166097856Y-64089164D01*
X166097856Y-64089164D02*
X166026428Y-64196307D01*
X166026428Y-64196307D02*
X165954999Y-64267735D01*
X165954999Y-64267735D02*
X165883571Y-64303450D01*
X166955000Y-64089164D02*
X166812142Y-64089164D01*
X166812142Y-64089164D02*
X166740714Y-64124878D01*
X166740714Y-64124878D02*
X166705000Y-64160592D01*
X166705000Y-64160592D02*
X166633571Y-64267735D01*
X166633571Y-64267735D02*
X166597857Y-64410592D01*
X166597857Y-64410592D02*
X166597857Y-64696307D01*
X166597857Y-64696307D02*
X166633571Y-64767735D01*
X166633571Y-64767735D02*
X166669285Y-64803450D01*
X166669285Y-64803450D02*
X166740714Y-64839164D01*
X166740714Y-64839164D02*
X166883571Y-64839164D01*
X166883571Y-64839164D02*
X166955000Y-64803450D01*
X166955000Y-64803450D02*
X166990714Y-64767735D01*
X166990714Y-64767735D02*
X167026428Y-64696307D01*
X167026428Y-64696307D02*
X167026428Y-64517735D01*
X167026428Y-64517735D02*
X166990714Y-64446307D01*
X166990714Y-64446307D02*
X166955000Y-64410592D01*
X166955000Y-64410592D02*
X166883571Y-64374878D01*
X166883571Y-64374878D02*
X166740714Y-64374878D01*
X166740714Y-64374878D02*
X166669285Y-64410592D01*
X166669285Y-64410592D02*
X166633571Y-64446307D01*
X166633571Y-64446307D02*
X166597857Y-64517735D01*
X182787735Y-79562143D02*
X182823450Y-79597857D01*
X182823450Y-79597857D02*
X182859164Y-79705000D01*
X182859164Y-79705000D02*
X182859164Y-79776428D01*
X182859164Y-79776428D02*
X182823450Y-79883571D01*
X182823450Y-79883571D02*
X182752021Y-79955000D01*
X182752021Y-79955000D02*
X182680592Y-79990714D01*
X182680592Y-79990714D02*
X182537735Y-80026428D01*
X182537735Y-80026428D02*
X182430592Y-80026428D01*
X182430592Y-80026428D02*
X182287735Y-79990714D01*
X182287735Y-79990714D02*
X182216307Y-79955000D01*
X182216307Y-79955000D02*
X182144878Y-79883571D01*
X182144878Y-79883571D02*
X182109164Y-79776428D01*
X182109164Y-79776428D02*
X182109164Y-79705000D01*
X182109164Y-79705000D02*
X182144878Y-79597857D01*
X182144878Y-79597857D02*
X182180592Y-79562143D01*
X182859164Y-78847857D02*
X182859164Y-79276428D01*
X182859164Y-79062143D02*
X182109164Y-79062143D01*
X182109164Y-79062143D02*
X182216307Y-79133571D01*
X182216307Y-79133571D02*
X182287735Y-79205000D01*
X182287735Y-79205000D02*
X182323450Y-79276428D01*
X182859164Y-78133571D02*
X182859164Y-78562142D01*
X182859164Y-78347857D02*
X182109164Y-78347857D01*
X182109164Y-78347857D02*
X182216307Y-78419285D01*
X182216307Y-78419285D02*
X182287735Y-78490714D01*
X182287735Y-78490714D02*
X182323450Y-78562142D01*
X176469164Y-121922143D02*
X176112021Y-122172143D01*
X176469164Y-122350714D02*
X175719164Y-122350714D01*
X175719164Y-122350714D02*
X175719164Y-122065000D01*
X175719164Y-122065000D02*
X175754878Y-121993571D01*
X175754878Y-121993571D02*
X175790592Y-121957857D01*
X175790592Y-121957857D02*
X175862021Y-121922143D01*
X175862021Y-121922143D02*
X175969164Y-121922143D01*
X175969164Y-121922143D02*
X176040592Y-121957857D01*
X176040592Y-121957857D02*
X176076307Y-121993571D01*
X176076307Y-121993571D02*
X176112021Y-122065000D01*
X176112021Y-122065000D02*
X176112021Y-122350714D01*
X175790592Y-121636428D02*
X175754878Y-121600714D01*
X175754878Y-121600714D02*
X175719164Y-121529286D01*
X175719164Y-121529286D02*
X175719164Y-121350714D01*
X175719164Y-121350714D02*
X175754878Y-121279286D01*
X175754878Y-121279286D02*
X175790592Y-121243571D01*
X175790592Y-121243571D02*
X175862021Y-121207857D01*
X175862021Y-121207857D02*
X175933450Y-121207857D01*
X175933450Y-121207857D02*
X176040592Y-121243571D01*
X176040592Y-121243571D02*
X176469164Y-121672143D01*
X176469164Y-121672143D02*
X176469164Y-121207857D01*
X176040592Y-120779285D02*
X176004878Y-120850714D01*
X176004878Y-120850714D02*
X175969164Y-120886428D01*
X175969164Y-120886428D02*
X175897735Y-120922142D01*
X175897735Y-120922142D02*
X175862021Y-120922142D01*
X175862021Y-120922142D02*
X175790592Y-120886428D01*
X175790592Y-120886428D02*
X175754878Y-120850714D01*
X175754878Y-120850714D02*
X175719164Y-120779285D01*
X175719164Y-120779285D02*
X175719164Y-120636428D01*
X175719164Y-120636428D02*
X175754878Y-120565000D01*
X175754878Y-120565000D02*
X175790592Y-120529285D01*
X175790592Y-120529285D02*
X175862021Y-120493571D01*
X175862021Y-120493571D02*
X175897735Y-120493571D01*
X175897735Y-120493571D02*
X175969164Y-120529285D01*
X175969164Y-120529285D02*
X176004878Y-120565000D01*
X176004878Y-120565000D02*
X176040592Y-120636428D01*
X176040592Y-120636428D02*
X176040592Y-120779285D01*
X176040592Y-120779285D02*
X176076307Y-120850714D01*
X176076307Y-120850714D02*
X176112021Y-120886428D01*
X176112021Y-120886428D02*
X176183450Y-120922142D01*
X176183450Y-120922142D02*
X176326307Y-120922142D01*
X176326307Y-120922142D02*
X176397735Y-120886428D01*
X176397735Y-120886428D02*
X176433450Y-120850714D01*
X176433450Y-120850714D02*
X176469164Y-120779285D01*
X176469164Y-120779285D02*
X176469164Y-120636428D01*
X176469164Y-120636428D02*
X176433450Y-120565000D01*
X176433450Y-120565000D02*
X176397735Y-120529285D01*
X176397735Y-120529285D02*
X176326307Y-120493571D01*
X176326307Y-120493571D02*
X176183450Y-120493571D01*
X176183450Y-120493571D02*
X176112021Y-120529285D01*
X176112021Y-120529285D02*
X176076307Y-120565000D01*
X176076307Y-120565000D02*
X176040592Y-120636428D01*
X146477735Y-100692143D02*
X146513450Y-100727857D01*
X146513450Y-100727857D02*
X146549164Y-100835000D01*
X146549164Y-100835000D02*
X146549164Y-100906428D01*
X146549164Y-100906428D02*
X146513450Y-101013571D01*
X146513450Y-101013571D02*
X146442021Y-101085000D01*
X146442021Y-101085000D02*
X146370592Y-101120714D01*
X146370592Y-101120714D02*
X146227735Y-101156428D01*
X146227735Y-101156428D02*
X146120592Y-101156428D01*
X146120592Y-101156428D02*
X145977735Y-101120714D01*
X145977735Y-101120714D02*
X145906307Y-101085000D01*
X145906307Y-101085000D02*
X145834878Y-101013571D01*
X145834878Y-101013571D02*
X145799164Y-100906428D01*
X145799164Y-100906428D02*
X145799164Y-100835000D01*
X145799164Y-100835000D02*
X145834878Y-100727857D01*
X145834878Y-100727857D02*
X145870592Y-100692143D01*
X145870592Y-100406428D02*
X145834878Y-100370714D01*
X145834878Y-100370714D02*
X145799164Y-100299286D01*
X145799164Y-100299286D02*
X145799164Y-100120714D01*
X145799164Y-100120714D02*
X145834878Y-100049286D01*
X145834878Y-100049286D02*
X145870592Y-100013571D01*
X145870592Y-100013571D02*
X145942021Y-99977857D01*
X145942021Y-99977857D02*
X146013450Y-99977857D01*
X146013450Y-99977857D02*
X146120592Y-100013571D01*
X146120592Y-100013571D02*
X146549164Y-100442143D01*
X146549164Y-100442143D02*
X146549164Y-99977857D01*
X145870592Y-99692142D02*
X145834878Y-99656428D01*
X145834878Y-99656428D02*
X145799164Y-99585000D01*
X145799164Y-99585000D02*
X145799164Y-99406428D01*
X145799164Y-99406428D02*
X145834878Y-99335000D01*
X145834878Y-99335000D02*
X145870592Y-99299285D01*
X145870592Y-99299285D02*
X145942021Y-99263571D01*
X145942021Y-99263571D02*
X146013450Y-99263571D01*
X146013450Y-99263571D02*
X146120592Y-99299285D01*
X146120592Y-99299285D02*
X146549164Y-99727857D01*
X146549164Y-99727857D02*
X146549164Y-99263571D01*
X175249164Y-121932143D02*
X174892021Y-122182143D01*
X175249164Y-122360714D02*
X174499164Y-122360714D01*
X174499164Y-122360714D02*
X174499164Y-122075000D01*
X174499164Y-122075000D02*
X174534878Y-122003571D01*
X174534878Y-122003571D02*
X174570592Y-121967857D01*
X174570592Y-121967857D02*
X174642021Y-121932143D01*
X174642021Y-121932143D02*
X174749164Y-121932143D01*
X174749164Y-121932143D02*
X174820592Y-121967857D01*
X174820592Y-121967857D02*
X174856307Y-122003571D01*
X174856307Y-122003571D02*
X174892021Y-122075000D01*
X174892021Y-122075000D02*
X174892021Y-122360714D01*
X174570592Y-121646428D02*
X174534878Y-121610714D01*
X174534878Y-121610714D02*
X174499164Y-121539286D01*
X174499164Y-121539286D02*
X174499164Y-121360714D01*
X174499164Y-121360714D02*
X174534878Y-121289286D01*
X174534878Y-121289286D02*
X174570592Y-121253571D01*
X174570592Y-121253571D02*
X174642021Y-121217857D01*
X174642021Y-121217857D02*
X174713450Y-121217857D01*
X174713450Y-121217857D02*
X174820592Y-121253571D01*
X174820592Y-121253571D02*
X175249164Y-121682143D01*
X175249164Y-121682143D02*
X175249164Y-121217857D01*
X174499164Y-120575000D02*
X174499164Y-120717857D01*
X174499164Y-120717857D02*
X174534878Y-120789285D01*
X174534878Y-120789285D02*
X174570592Y-120825000D01*
X174570592Y-120825000D02*
X174677735Y-120896428D01*
X174677735Y-120896428D02*
X174820592Y-120932142D01*
X174820592Y-120932142D02*
X175106307Y-120932142D01*
X175106307Y-120932142D02*
X175177735Y-120896428D01*
X175177735Y-120896428D02*
X175213450Y-120860714D01*
X175213450Y-120860714D02*
X175249164Y-120789285D01*
X175249164Y-120789285D02*
X175249164Y-120646428D01*
X175249164Y-120646428D02*
X175213450Y-120575000D01*
X175213450Y-120575000D02*
X175177735Y-120539285D01*
X175177735Y-120539285D02*
X175106307Y-120503571D01*
X175106307Y-120503571D02*
X174927735Y-120503571D01*
X174927735Y-120503571D02*
X174856307Y-120539285D01*
X174856307Y-120539285D02*
X174820592Y-120575000D01*
X174820592Y-120575000D02*
X174784878Y-120646428D01*
X174784878Y-120646428D02*
X174784878Y-120789285D01*
X174784878Y-120789285D02*
X174820592Y-120860714D01*
X174820592Y-120860714D02*
X174856307Y-120896428D01*
X174856307Y-120896428D02*
X174927735Y-120932142D01*
X126118571Y-111999164D02*
X126547143Y-111999164D01*
X126332857Y-112749164D02*
X126332857Y-111999164D01*
X127190000Y-112749164D02*
X126761429Y-112749164D01*
X126975714Y-112749164D02*
X126975714Y-111999164D01*
X126975714Y-111999164D02*
X126904286Y-112106307D01*
X126904286Y-112106307D02*
X126832857Y-112177735D01*
X126832857Y-112177735D02*
X126761429Y-112213450D01*
X174357856Y-76939164D02*
X174107856Y-76582021D01*
X173929285Y-76939164D02*
X173929285Y-76189164D01*
X173929285Y-76189164D02*
X174214999Y-76189164D01*
X174214999Y-76189164D02*
X174286428Y-76224878D01*
X174286428Y-76224878D02*
X174322142Y-76260592D01*
X174322142Y-76260592D02*
X174357856Y-76332021D01*
X174357856Y-76332021D02*
X174357856Y-76439164D01*
X174357856Y-76439164D02*
X174322142Y-76510592D01*
X174322142Y-76510592D02*
X174286428Y-76546307D01*
X174286428Y-76546307D02*
X174214999Y-76582021D01*
X174214999Y-76582021D02*
X173929285Y-76582021D01*
X174643571Y-76260592D02*
X174679285Y-76224878D01*
X174679285Y-76224878D02*
X174750714Y-76189164D01*
X174750714Y-76189164D02*
X174929285Y-76189164D01*
X174929285Y-76189164D02*
X175000714Y-76224878D01*
X175000714Y-76224878D02*
X175036428Y-76260592D01*
X175036428Y-76260592D02*
X175072142Y-76332021D01*
X175072142Y-76332021D02*
X175072142Y-76403450D01*
X175072142Y-76403450D02*
X175036428Y-76510592D01*
X175036428Y-76510592D02*
X174607856Y-76939164D01*
X174607856Y-76939164D02*
X175072142Y-76939164D01*
X175322142Y-76189164D02*
X175786428Y-76189164D01*
X175786428Y-76189164D02*
X175536428Y-76474878D01*
X175536428Y-76474878D02*
X175643571Y-76474878D01*
X175643571Y-76474878D02*
X175715000Y-76510592D01*
X175715000Y-76510592D02*
X175750714Y-76546307D01*
X175750714Y-76546307D02*
X175786428Y-76617735D01*
X175786428Y-76617735D02*
X175786428Y-76796307D01*
X175786428Y-76796307D02*
X175750714Y-76867735D01*
X175750714Y-76867735D02*
X175715000Y-76903450D01*
X175715000Y-76903450D02*
X175643571Y-76939164D01*
X175643571Y-76939164D02*
X175429285Y-76939164D01*
X175429285Y-76939164D02*
X175357857Y-76903450D01*
X175357857Y-76903450D02*
X175322142Y-76867735D01*
D12*
%TO.C,C39*%
X149770000Y-121937836D02*
X149770000Y-121722164D01*
X150490000Y-121937836D02*
X150490000Y-121722164D01*
%TO.C,R11*%
X169340359Y-124461000D02*
X169647641Y-124461000D01*
X169340359Y-125221000D02*
X169647641Y-125221000D01*
%TO.C,TP12*%
X158975000Y-62950000D02*
G75*
G02*
X157575000Y-62950000I-700000J0D01*
G01*
X157575000Y-62950000D02*
G75*
G02*
X158975000Y-62950000I700000J0D01*
G01*
%TO.C,C14*%
X162286252Y-125865000D02*
X161763748Y-125865000D01*
X162286252Y-127335000D02*
X161763748Y-127335000D01*
%TO.C,C12*%
X161600000Y-63860000D02*
X165510000Y-63860000D01*
X165510000Y-61990000D02*
X161600000Y-61990000D01*
X165510000Y-63860000D02*
X165510000Y-61990000D01*
%TO.C,C13*%
X128140000Y-110867164D02*
X128140000Y-111082836D01*
X128860000Y-110867164D02*
X128860000Y-111082836D01*
%TO.C,D4*%
X169015000Y-131625000D02*
X169015000Y-132825000D01*
X170975000Y-131625000D02*
X169015000Y-131625000D01*
X170975000Y-132825000D02*
X169015000Y-132825000D01*
%TO.C,C37*%
X147765000Y-112982836D02*
X147765000Y-112767164D01*
X148485000Y-112982836D02*
X148485000Y-112767164D01*
%TO.C,TP8*%
X154350000Y-62950000D02*
G75*
G02*
X152950000Y-62950000I-700000J0D01*
G01*
X152950000Y-62950000D02*
G75*
G02*
X154350000Y-62950000I700000J0D01*
G01*
%TO.C,D6*%
X169015000Y-134575000D02*
X169015000Y-135775000D01*
X170975000Y-134575000D02*
X169015000Y-134575000D01*
X170975000Y-135775000D02*
X169015000Y-135775000D01*
%TO.C,R31*%
X179770000Y-76846359D02*
X179770000Y-77153641D01*
X180530000Y-76846359D02*
X180530000Y-77153641D01*
%TO.C,C35*%
X153190000Y-112767164D02*
X153190000Y-112982836D01*
X153910000Y-112767164D02*
X153910000Y-112982836D01*
D13*
%TO.C,U2*%
X125825063Y-67633919D02*
X125825063Y-68253919D01*
X125825063Y-69613919D02*
X125825063Y-69653919D01*
X125825063Y-71013919D02*
X125825063Y-71053919D01*
X125825063Y-72413919D02*
X125825063Y-72453919D01*
X125825063Y-73813919D02*
X125825063Y-73853919D01*
X125825063Y-75213919D02*
X125825063Y-75253919D01*
X125825063Y-76613919D02*
X125825063Y-76653919D01*
X125825063Y-78013919D02*
X125825063Y-78053919D01*
X125825063Y-79413919D02*
X125825063Y-79453919D01*
X125825063Y-80813919D02*
X125825063Y-80853919D01*
X125825063Y-82213919D02*
X125825063Y-82253919D01*
X125825063Y-83613919D02*
X125825063Y-83653919D01*
X125825063Y-85013919D02*
X125825063Y-85053919D01*
X125825063Y-86413919D02*
X125825063Y-86453919D01*
X125825063Y-87813919D02*
X125825063Y-87853919D01*
X125825063Y-89213919D02*
X125825063Y-89253919D01*
X125825063Y-90613919D02*
X125825063Y-90653919D01*
X125825063Y-92013919D02*
X125825063Y-92053919D01*
X125825063Y-93413919D02*
X125825063Y-93453919D01*
X125825063Y-94813919D02*
X125825063Y-94853919D01*
X125825063Y-96213919D02*
X125825063Y-96253919D01*
X125825063Y-97613919D02*
X125825063Y-97653919D01*
X125825063Y-99013919D02*
X125825063Y-99053919D01*
X125825063Y-100413919D02*
X125825063Y-102833919D01*
X125825063Y-102833919D02*
X144525063Y-102833919D01*
X128245063Y-67633919D02*
X125825063Y-67633919D01*
X129645063Y-67633919D02*
X129605063Y-67633919D01*
X131045063Y-67633919D02*
X131005063Y-67633919D01*
X132445063Y-67633919D02*
X132405063Y-67633919D01*
X133845063Y-67633919D02*
X133805063Y-67633919D01*
X135245063Y-67633919D02*
X135205063Y-67633919D01*
X136645063Y-67633919D02*
X136605063Y-67633919D01*
X138045063Y-67633919D02*
X138005063Y-67633919D01*
X139445063Y-67633919D02*
X139405063Y-67633919D01*
X140845063Y-67633919D02*
X140805063Y-67633919D01*
X144525063Y-67633919D02*
X142205063Y-67633919D01*
X144525063Y-67633919D02*
X144525063Y-68253919D01*
X144525063Y-69613919D02*
X144525063Y-69653919D01*
X144525063Y-71013919D02*
X144525063Y-71053919D01*
X144525063Y-72413919D02*
X144525063Y-72453919D01*
X144525063Y-73813919D02*
X144525063Y-73853919D01*
X144525063Y-75213919D02*
X144525063Y-75253919D01*
X144525063Y-76613919D02*
X144525063Y-76653919D01*
X144525063Y-78013919D02*
X144525063Y-78053919D01*
X144525063Y-79413919D02*
X144525063Y-79453919D01*
X144525063Y-80813919D02*
X144525063Y-80853919D01*
X144525063Y-82213919D02*
X144525063Y-82253919D01*
X144525063Y-83613919D02*
X144525063Y-83653919D01*
X144525063Y-85013919D02*
X144525063Y-85053919D01*
X144525063Y-86413919D02*
X144525063Y-86453919D01*
X144525063Y-87813919D02*
X144525063Y-87853919D01*
X144525063Y-89213919D02*
X144525063Y-89253919D01*
X144525063Y-90613919D02*
X144525063Y-90653919D01*
X144525063Y-92013919D02*
X144525063Y-92053919D01*
X144525063Y-93413919D02*
X144525063Y-93453919D01*
X144525063Y-94813919D02*
X144525063Y-94853919D01*
X144525063Y-96213919D02*
X144525063Y-96253919D01*
X144525063Y-97613919D02*
X144525063Y-97653919D01*
X144525063Y-99013919D02*
X144525063Y-99053919D01*
X144525063Y-100413919D02*
X144525063Y-102833919D01*
D11*
X126725063Y-79708919D02*
X124925063Y-79708919D01*
X124925063Y-80608919D01*
X126725063Y-80608919D01*
X126725063Y-79708919D01*
G36*
X126725063Y-79708919D02*
G01*
X124925063Y-79708919D01*
X124925063Y-80608919D01*
X126725063Y-80608919D01*
X126725063Y-79708919D01*
G37*
X126725063Y-81083919D02*
X124925063Y-81083919D01*
X124925063Y-81983919D01*
X126725063Y-81983919D01*
X126725063Y-81083919D01*
G36*
X126725063Y-81083919D02*
G01*
X124925063Y-81083919D01*
X124925063Y-81983919D01*
X126725063Y-81983919D01*
X126725063Y-81083919D01*
G37*
X126725063Y-82458919D02*
X124925063Y-82458919D01*
X124925063Y-83358919D01*
X126725063Y-83358919D01*
X126725063Y-82458919D01*
G36*
X126725063Y-82458919D02*
G01*
X124925063Y-82458919D01*
X124925063Y-83358919D01*
X126725063Y-83358919D01*
X126725063Y-82458919D01*
G37*
X126725063Y-83908919D02*
X124925063Y-83908919D01*
X124925063Y-84808919D01*
X126725063Y-84808919D01*
X126725063Y-83908919D01*
G36*
X126725063Y-83908919D02*
G01*
X124925063Y-83908919D01*
X124925063Y-84808919D01*
X126725063Y-84808919D01*
X126725063Y-83908919D01*
G37*
X126725063Y-85258919D02*
X124925063Y-85258919D01*
X124925063Y-86158919D01*
X126725063Y-86158919D01*
X126725063Y-85258919D01*
G36*
X126725063Y-85258919D02*
G01*
X124925063Y-85258919D01*
X124925063Y-86158919D01*
X126725063Y-86158919D01*
X126725063Y-85258919D01*
G37*
X126725063Y-86658919D02*
X124925063Y-86658919D01*
X124925063Y-87558919D01*
X126725063Y-87558919D01*
X126725063Y-86658919D01*
G36*
X126725063Y-86658919D02*
G01*
X124925063Y-86658919D01*
X124925063Y-87558919D01*
X126725063Y-87558919D01*
X126725063Y-86658919D01*
G37*
X126725063Y-88058919D02*
X124925063Y-88058919D01*
X124925063Y-88958919D01*
X126725063Y-88958919D01*
X126725063Y-88058919D01*
G36*
X126725063Y-88058919D02*
G01*
X124925063Y-88058919D01*
X124925063Y-88958919D01*
X126725063Y-88958919D01*
X126725063Y-88058919D01*
G37*
X126725063Y-89483919D02*
X124925063Y-89483919D01*
X124925063Y-90383919D01*
X126725063Y-90383919D01*
X126725063Y-89483919D01*
G36*
X126725063Y-89483919D02*
G01*
X124925063Y-89483919D01*
X124925063Y-90383919D01*
X126725063Y-90383919D01*
X126725063Y-89483919D01*
G37*
X126725063Y-90908919D02*
X124925063Y-90908919D01*
X124925063Y-91808919D01*
X126725063Y-91808919D01*
X126725063Y-90908919D01*
G36*
X126725063Y-90908919D02*
G01*
X124925063Y-90908919D01*
X124925063Y-91808919D01*
X126725063Y-91808919D01*
X126725063Y-90908919D01*
G37*
X126725063Y-92308919D02*
X124925063Y-92308919D01*
X124925063Y-93208919D01*
X126725063Y-93208919D01*
X126725063Y-92308919D01*
G36*
X126725063Y-92308919D02*
G01*
X124925063Y-92308919D01*
X124925063Y-93208919D01*
X126725063Y-93208919D01*
X126725063Y-92308919D01*
G37*
X126725063Y-93633919D02*
X124925063Y-93633919D01*
X124925063Y-94533919D01*
X126725063Y-94533919D01*
X126725063Y-93633919D01*
G36*
X126725063Y-93633919D02*
G01*
X124925063Y-93633919D01*
X124925063Y-94533919D01*
X126725063Y-94533919D01*
X126725063Y-93633919D01*
G37*
X126725063Y-95108919D02*
X124925063Y-95108919D01*
X124925063Y-96008919D01*
X126725063Y-96008919D01*
X126725063Y-95108919D01*
G36*
X126725063Y-95108919D02*
G01*
X124925063Y-95108919D01*
X124925063Y-96008919D01*
X126725063Y-96008919D01*
X126725063Y-95108919D01*
G37*
X145400063Y-69858919D02*
X143600063Y-69858919D01*
X143600063Y-70758919D01*
X145400063Y-70758919D01*
X145400063Y-69858919D01*
G36*
X145400063Y-69858919D02*
G01*
X143600063Y-69858919D01*
X143600063Y-70758919D01*
X145400063Y-70758919D01*
X145400063Y-69858919D01*
G37*
X145400063Y-78258919D02*
X143600063Y-78258919D01*
X143600063Y-79158919D01*
X145400063Y-79158919D01*
X145400063Y-78258919D01*
G36*
X145400063Y-78258919D02*
G01*
X143600063Y-78258919D01*
X143600063Y-79158919D01*
X145400063Y-79158919D01*
X145400063Y-78258919D01*
G37*
X145400063Y-79658919D02*
X143600063Y-79658919D01*
X143600063Y-80558919D01*
X145400063Y-80558919D01*
X145400063Y-79658919D01*
G36*
X145400063Y-79658919D02*
G01*
X143600063Y-79658919D01*
X143600063Y-80558919D01*
X145400063Y-80558919D01*
X145400063Y-79658919D01*
G37*
X145400063Y-83908919D02*
X143600063Y-83908919D01*
X143600063Y-84808919D01*
X145400063Y-84808919D01*
X145400063Y-83908919D01*
G36*
X145400063Y-83908919D02*
G01*
X143600063Y-83908919D01*
X143600063Y-84808919D01*
X145400063Y-84808919D01*
X145400063Y-83908919D01*
G37*
X145400063Y-90908919D02*
X143600063Y-90908919D01*
X143600063Y-91808919D01*
X145400063Y-91808919D01*
X145400063Y-90908919D01*
G36*
X145400063Y-90908919D02*
G01*
X143600063Y-90908919D01*
X143600063Y-91808919D01*
X145400063Y-91808919D01*
X145400063Y-90908919D01*
G37*
X145400063Y-92298919D02*
X143600063Y-92298919D01*
X143600063Y-93198919D01*
X145400063Y-93198919D01*
X145400063Y-92298919D01*
G36*
X145400063Y-92298919D02*
G01*
X143600063Y-92298919D01*
X143600063Y-93198919D01*
X145400063Y-93198919D01*
X145400063Y-92298919D01*
G37*
D12*
%TO.C,R18*%
X162728641Y-132170000D02*
X162421359Y-132170000D01*
X162728641Y-132930000D02*
X162421359Y-132930000D01*
%TO.C,R10*%
X169662641Y-123386000D02*
X169355359Y-123386000D01*
X169662641Y-124146000D02*
X169355359Y-124146000D01*
%TO.C,D5*%
X169015000Y-133100000D02*
X169015000Y-134300000D01*
X170975000Y-133100000D02*
X169015000Y-133100000D01*
X170975000Y-134300000D02*
X169015000Y-134300000D01*
%TO.C,C1*%
X164250000Y-126915000D02*
X164875000Y-126915000D01*
X164562500Y-126602500D02*
X164562500Y-127227500D01*
X165115000Y-126904437D02*
X165115000Y-127540000D01*
X165115000Y-126904437D02*
X166179437Y-125840000D01*
X165115000Y-130295563D02*
X165115000Y-129660000D01*
X165115000Y-130295563D02*
X166179437Y-131360000D01*
X166179437Y-125840000D02*
X170635000Y-125840000D01*
X166179437Y-131360000D02*
X170635000Y-131360000D01*
X170635000Y-125840000D02*
X170635000Y-127540000D01*
X170635000Y-131360000D02*
X170635000Y-129660000D01*
%TO.C,TP14*%
X171675000Y-64225000D02*
G75*
G02*
X170275000Y-64225000I-700000J0D01*
G01*
X170275000Y-64225000D02*
G75*
G02*
X171675000Y-64225000I700000J0D01*
G01*
%TO.C,C25*%
X165517164Y-132180000D02*
X165732836Y-132180000D01*
X165517164Y-132900000D02*
X165732836Y-132900000D01*
%TO.C,C2*%
X138890000Y-111102836D02*
X138890000Y-110887164D01*
X139610000Y-111102836D02*
X139610000Y-110887164D01*
D13*
%TO.C,RJ2*%
X125400000Y-124207500D02*
X125400000Y-129947500D01*
X125400000Y-133187500D02*
X125400000Y-139497500D01*
X125400000Y-139497500D02*
X125400000Y-139627500D01*
X125400000Y-139627500D02*
X141680000Y-139627500D01*
X129110000Y-124207500D02*
X125400000Y-124207500D01*
X131150000Y-124207500D02*
X130850000Y-124207500D01*
X133190000Y-124207500D02*
X132890000Y-124207500D01*
X135230000Y-124207500D02*
X134930000Y-124207500D01*
X141720000Y-124207500D02*
X136970000Y-124207500D01*
X141720000Y-124207500D02*
X141720000Y-129947500D01*
X141720000Y-133187500D02*
X141720000Y-139627500D01*
D14*
X138090000Y-123647500D02*
G75*
G02*
X137690000Y-123647500I-200000J0D01*
G01*
X137690000Y-123647500D02*
G75*
G02*
X138090000Y-123647500I200000J0D01*
G01*
D13*
%TO.C,CN1*%
X156808000Y-74678000D02*
X156808000Y-68688000D01*
X158688000Y-66038000D02*
X160028000Y-66038000D01*
X159628000Y-74678000D02*
X156808000Y-74678000D01*
X174498000Y-73918000D02*
X174498000Y-74678000D01*
X174498000Y-74678000D02*
X174288000Y-74678000D01*
X174688000Y-66038000D02*
X177628000Y-66038000D01*
X175008000Y-73918000D02*
X174498000Y-73918000D01*
X176528000Y-73918000D02*
X177038000Y-73918000D01*
X177038000Y-73918000D02*
X177038000Y-74678000D01*
X177038000Y-74678000D02*
X177228000Y-74678000D01*
X183888000Y-74678000D02*
X187198000Y-74678000D01*
X184288000Y-66038000D02*
X185228000Y-66038000D01*
X187198000Y-70358000D02*
X187198000Y-74678000D01*
X187198000Y-74678000D02*
X187198000Y-68688000D01*
X176528000Y-73918000D02*
G75*
G02*
X175008000Y-73918000I-760000J0D01*
G01*
X185158000Y-67058000D02*
G75*
G02*
X184658000Y-67058000I-250000J0D01*
G01*
X184658000Y-67058000D02*
G75*
G02*
X185158000Y-67058000I250000J0D01*
G01*
D12*
%TO.C,J3*%
X150555000Y-133955000D02*
X150555000Y-135755000D01*
X150555000Y-139465000D02*
X150555000Y-138005000D01*
X159495000Y-133955000D02*
X159495000Y-135755000D01*
X159495000Y-139465000D02*
X150555000Y-139465000D01*
X159495000Y-139465000D02*
X159495000Y-138005000D01*
D13*
%TO.C,SW1*%
X161834000Y-134930000D02*
X161834000Y-134790000D01*
X161834000Y-134930000D02*
X161834000Y-136180000D01*
X161834000Y-136180000D02*
X162884000Y-136180000D01*
X162884000Y-136180000D02*
X162884000Y-138430000D01*
X162884000Y-138430000D02*
X165284000Y-138430000D01*
X163084000Y-136180000D02*
X162884000Y-136180000D01*
X163514000Y-133430000D02*
X164664000Y-133430000D01*
X165284000Y-136180000D02*
X165084000Y-136180000D01*
X165284000Y-136180000D02*
X166334000Y-136180000D01*
X165284000Y-138430000D02*
X165284000Y-136180000D01*
X166334000Y-134930000D02*
X166334000Y-134790000D01*
X166334000Y-134930000D02*
X166334000Y-136180000D01*
D12*
%TO.C,R39*%
X146746359Y-74145000D02*
X147053641Y-74145000D01*
X146746359Y-74905000D02*
X147053641Y-74905000D01*
%TO.C,C29*%
X179465000Y-123115580D02*
X179465000Y-122834420D01*
X180485000Y-123115580D02*
X180485000Y-122834420D01*
%TO.C,C41*%
X154567164Y-118140000D02*
X154782836Y-118140000D01*
X154567164Y-118860000D02*
X154782836Y-118860000D01*
%TO.C,C19*%
X169626836Y-122331000D02*
X169411164Y-122331000D01*
X169626836Y-123051000D02*
X169411164Y-123051000D01*
%TO.C,C42*%
X152215000Y-121937836D02*
X152215000Y-121722164D01*
X152935000Y-121937836D02*
X152935000Y-121722164D01*
%TO.C,TP4*%
X180600000Y-120000000D02*
G75*
G02*
X179200000Y-120000000I-700000J0D01*
G01*
X179200000Y-120000000D02*
G75*
G02*
X180600000Y-120000000I700000J0D01*
G01*
D13*
%TO.C,L1*%
X160244000Y-122006000D02*
X163744000Y-122006000D01*
X160244000Y-122826000D02*
X160244000Y-122006000D01*
X160244000Y-125506000D02*
X160244000Y-124686000D01*
X163744000Y-122006000D02*
X163744000Y-122826000D01*
X163744000Y-124686000D02*
X163744000Y-125506000D01*
X163744000Y-125506000D02*
X160244000Y-125506000D01*
D12*
%TO.C,TP6*%
X150625000Y-98250000D02*
G75*
G02*
X149225000Y-98250000I-700000J0D01*
G01*
X149225000Y-98250000D02*
G75*
G02*
X150625000Y-98250000I700000J0D01*
G01*
%TO.C,C43*%
X154715000Y-121937836D02*
X154715000Y-121722164D01*
X155435000Y-121937836D02*
X155435000Y-121722164D01*
%TO.C,R38*%
X146746359Y-72745000D02*
X147053641Y-72745000D01*
X146746359Y-73505000D02*
X147053641Y-73505000D01*
%TO.C,R7*%
X152923641Y-130070000D02*
X152616359Y-130070000D01*
X152923641Y-130830000D02*
X152616359Y-130830000D01*
%TO.C,R44*%
X128398000Y-122274359D02*
X128398000Y-122581641D01*
X129158000Y-122274359D02*
X129158000Y-122581641D01*
%TO.C,R22*%
X168720000Y-76846359D02*
X168720000Y-77153641D01*
X169480000Y-76846359D02*
X169480000Y-77153641D01*
%TO.C,D7*%
X169015000Y-136050000D02*
X169015000Y-137250000D01*
X170975000Y-136050000D02*
X169015000Y-136050000D01*
X170975000Y-137250000D02*
X169015000Y-137250000D01*
%TO.C,R8*%
X157146359Y-130070000D02*
X157453641Y-130070000D01*
X157146359Y-130830000D02*
X157453641Y-130830000D01*
D13*
%TO.C,U4*%
X167219000Y-122231000D02*
X165419000Y-122231000D01*
X167219000Y-125331000D02*
X165419000Y-125331000D01*
X165049000Y-122131000D02*
G75*
G02*
X164789000Y-122131000I-130000J0D01*
G01*
X164789000Y-122131000D02*
G75*
G02*
X165049000Y-122131000I130000J0D01*
G01*
D12*
%TO.C,R13*%
X129945000Y-65421359D02*
X129945000Y-65728641D01*
X130705000Y-65421359D02*
X130705000Y-65728641D01*
%TO.C,C6*%
X146915000Y-81132836D02*
X146915000Y-80917164D01*
X147635000Y-81132836D02*
X147635000Y-80917164D01*
%TO.C,R37*%
X145845000Y-81178641D02*
X145845000Y-80871359D01*
X146605000Y-81178641D02*
X146605000Y-80871359D01*
%TO.C,TP9*%
X157425000Y-62950000D02*
G75*
G02*
X156025000Y-62950000I-700000J0D01*
G01*
X156025000Y-62950000D02*
G75*
G02*
X157425000Y-62950000I700000J0D01*
G01*
%TO.C,R21*%
X167620000Y-76846359D02*
X167620000Y-77153641D01*
X168380000Y-76846359D02*
X168380000Y-77153641D01*
%TO.C,D11*%
X165010000Y-129850000D02*
X161000000Y-129850000D01*
X165010000Y-131850000D02*
X161000000Y-131850000D01*
X165010000Y-131850000D02*
X165010000Y-129850000D01*
%TO.C,C15*%
X147015000Y-96063748D02*
X147015000Y-97486252D01*
X148835000Y-96063748D02*
X148835000Y-97486252D01*
%TO.C,R25*%
X180895000Y-122796359D02*
X180895000Y-123103641D01*
X181655000Y-122796359D02*
X181655000Y-123103641D01*
%TO.C,C7*%
X142055000Y-125405000D02*
X142055000Y-129945000D01*
X142070000Y-125405000D02*
X142055000Y-125405000D01*
X142070000Y-129945000D02*
X142055000Y-129945000D01*
X144195000Y-125405000D02*
X144180000Y-125405000D01*
X144195000Y-125405000D02*
X144195000Y-129945000D01*
X144195000Y-129945000D02*
X144180000Y-129945000D01*
%TO.C,R27*%
X173245000Y-123678641D02*
X173245000Y-123371359D01*
X174005000Y-123678641D02*
X174005000Y-123371359D01*
D13*
%TO.C,SW5*%
X148878400Y-79800000D02*
X151878400Y-79800000D01*
X148878400Y-79800000D02*
X151878400Y-79800000D01*
X148878400Y-79970000D02*
X148878400Y-79800000D01*
X148878400Y-82300000D02*
X148878400Y-82130000D01*
X148878400Y-82300000D02*
X151878400Y-82300000D01*
X151878400Y-79800000D02*
X151878400Y-79970000D01*
X151878400Y-82130000D02*
X151878400Y-82300000D01*
X151878400Y-82300000D02*
X148878400Y-82300000D01*
X151178400Y-81050000D02*
G75*
G02*
X149578400Y-81050000I-800000J0D01*
G01*
X149578400Y-81050000D02*
G75*
G02*
X151178400Y-81050000I800000J0D01*
G01*
D12*
%TO.C,Y1*%
X153025000Y-111475000D02*
X149725000Y-111475000D01*
X153025000Y-114275000D02*
X153025000Y-111475000D01*
%TO.C,TP8*%
X155900000Y-62950000D02*
G75*
G02*
X154500000Y-62950000I-700000J0D01*
G01*
X154500000Y-62950000D02*
G75*
G02*
X155900000Y-62950000I700000J0D01*
G01*
%TO.C,R32*%
X171820000Y-77198641D02*
X171820000Y-76891359D01*
X172580000Y-77198641D02*
X172580000Y-76891359D01*
%TO.C,TP3*%
X174075000Y-64225000D02*
G75*
G02*
X172675000Y-64225000I-700000J0D01*
G01*
X172675000Y-64225000D02*
G75*
G02*
X174075000Y-64225000I700000J0D01*
G01*
%TO.C,C10*%
X169790000Y-76917164D02*
X169790000Y-77132836D01*
X170510000Y-76917164D02*
X170510000Y-77132836D01*
D13*
%TO.C,SIM1*%
X171730400Y-125346400D02*
X171730400Y-125386400D01*
X171730400Y-128246400D02*
X171730400Y-137386400D01*
X171730400Y-140246400D02*
X171730400Y-140336400D01*
X171730400Y-140336400D02*
X185190400Y-140336400D01*
X173000400Y-125346400D02*
X171730400Y-125346400D01*
X181630400Y-125346400D02*
X185190400Y-125346400D01*
X185190400Y-125386400D02*
X185190400Y-125346400D01*
X185190400Y-137386400D02*
X185190400Y-128246400D01*
X185190400Y-140336400D02*
X185190400Y-140246400D01*
D11*
X177060400Y-124756400D02*
X177860400Y-124756400D01*
X177860400Y-125896400D01*
X177060400Y-125896400D01*
X177060400Y-124756400D01*
G36*
X177060400Y-124756400D02*
G01*
X177860400Y-124756400D01*
X177860400Y-125896400D01*
X177060400Y-125896400D01*
X177060400Y-124756400D01*
G37*
D12*
%TO.C,C36*%
X148815000Y-112767164D02*
X148815000Y-112982836D01*
X149535000Y-112767164D02*
X149535000Y-112982836D01*
%TO.C,C45*%
X146757836Y-115290000D02*
X146542164Y-115290000D01*
X146757836Y-116010000D02*
X146542164Y-116010000D01*
%TO.C,C38*%
X150815000Y-121965580D02*
X150815000Y-121684420D01*
X151835000Y-121965580D02*
X151835000Y-121684420D01*
%TO.C,C9*%
X160590000Y-76912164D02*
X160590000Y-77127836D01*
X161310000Y-76912164D02*
X161310000Y-77127836D01*
%TO.C,C3*%
X161763748Y-127915000D02*
X162286252Y-127915000D01*
X161763748Y-129385000D02*
X162286252Y-129385000D01*
%TO.C,C44*%
X153315000Y-121965580D02*
X153315000Y-121684420D01*
X154335000Y-121965580D02*
X154335000Y-121684420D01*
D15*
%TO.C,U7*%
X148625000Y-115110000D02*
X149025000Y-115110000D01*
X148625000Y-115510000D02*
X148625000Y-115110000D01*
X148625000Y-119410000D02*
X148625000Y-119010000D01*
X149025000Y-119410000D02*
X148625000Y-119410000D01*
X152525000Y-115110000D02*
X152925000Y-115110000D01*
X152525000Y-119410000D02*
X152925000Y-119410000D01*
X152925000Y-115110000D02*
X152925000Y-115510000D01*
X152925000Y-119410000D02*
X152925000Y-119010000D01*
D12*
%TO.C,C16*%
X163967164Y-64140000D02*
X164182836Y-64140000D01*
X163967164Y-64860000D02*
X164182836Y-64860000D01*
%TO.C,TP13*%
X160525000Y-62950000D02*
G75*
G02*
X159125000Y-62950000I-700000J0D01*
G01*
X159125000Y-62950000D02*
G75*
G02*
X160525000Y-62950000I700000J0D01*
G01*
%TO.C,C11*%
X182165000Y-76912164D02*
X182165000Y-77127836D01*
X182885000Y-76912164D02*
X182885000Y-77127836D01*
%TO.C,R28*%
X175795000Y-123653641D02*
X175795000Y-123346359D01*
X176555000Y-123653641D02*
X176555000Y-123346359D01*
%TO.C,C22*%
X145840000Y-97667164D02*
X145840000Y-97882836D01*
X146560000Y-97667164D02*
X146560000Y-97882836D01*
%TO.C,R26*%
X174520000Y-123653641D02*
X174520000Y-123346359D01*
X175280000Y-123653641D02*
X175280000Y-123346359D01*
%TO.C,J4*%
X125290000Y-61895000D02*
X125290000Y-64555000D01*
X130430000Y-61895000D02*
X125290000Y-61895000D01*
X130430000Y-61895000D02*
X130430000Y-64555000D01*
X130430000Y-64555000D02*
X125290000Y-64555000D01*
X131700000Y-61895000D02*
X133030000Y-61895000D01*
X133030000Y-61895000D02*
X133030000Y-63225000D01*
D10*
%TO.C,T1*%
X127525000Y-111940000D02*
X127525000Y-119050000D01*
X127525000Y-111940000D02*
X128775000Y-111940000D01*
X127525000Y-119050000D02*
X128775000Y-119050000D01*
X138975000Y-111940000D02*
X140225000Y-111940000D01*
X138975000Y-119050000D02*
X140225000Y-119050000D01*
X140225000Y-111940000D02*
X140225000Y-119050000D01*
D11*
X133615000Y-112010000D02*
X132855000Y-112010000D01*
X132855000Y-110350000D01*
X133615000Y-110350000D01*
X133615000Y-112010000D01*
G36*
X133615000Y-112010000D02*
G01*
X132855000Y-112010000D01*
X132855000Y-110350000D01*
X133615000Y-110350000D01*
X133615000Y-112010000D01*
G37*
X133615000Y-120650000D02*
X132855000Y-120650000D01*
X132855000Y-118990000D01*
X133615000Y-118990000D01*
X133615000Y-120650000D01*
G36*
X133615000Y-120650000D02*
G01*
X132855000Y-120650000D01*
X132855000Y-118990000D01*
X133615000Y-118990000D01*
X133615000Y-120650000D01*
G37*
X134895000Y-112010000D02*
X134135000Y-112010000D01*
X134135000Y-110350000D01*
X134895000Y-110350000D01*
X134895000Y-112010000D01*
G36*
X134895000Y-112010000D02*
G01*
X134135000Y-112010000D01*
X134135000Y-110350000D01*
X134895000Y-110350000D01*
X134895000Y-112010000D01*
G37*
X134895000Y-120650000D02*
X134135000Y-120650000D01*
X134135000Y-118990000D01*
X134895000Y-118990000D01*
X134895000Y-120650000D01*
G36*
X134895000Y-120650000D02*
G01*
X134135000Y-120650000D01*
X134135000Y-118990000D01*
X134895000Y-118990000D01*
X134895000Y-120650000D01*
G37*
D14*
X139665000Y-111180000D02*
G75*
G02*
X139265000Y-111180000I-200000J0D01*
G01*
X139265000Y-111180000D02*
G75*
G02*
X139665000Y-111180000I200000J0D01*
G01*
D12*
%TO.C,R23*%
X172853641Y-76220000D02*
X172546359Y-76220000D01*
X172853641Y-76980000D02*
X172546359Y-76980000D01*
%TD*%
M02*
