%TF.GenerationSoftware,KiCad,Pcbnew,9.0.2*%
%TF.CreationDate,2025-06-30T16:53:14+07:00*%
%TF.ProjectId,GW11LR,47573131-4c52-42e6-9b69-6361645f7063,rev?*%
%TF.SameCoordinates,Original*%
%TF.FileFunction,Soldermask,Top*%
%TF.FilePolarity,Negative*%
%FSLAX46Y46*%
G04 Gerber Fmt 4.6, Leading zero omitted, Abs format (unit mm)*
G04 Created by KiCad (PCBNEW 9.0.2) date 2025-06-30 16:53:14*
%MOMM*%
%LPD*%
G01*
G04 APERTURE LIST*
G04 Aperture macros list*
%AMRoundRect*
0 Rectangle with rounded corners*
0 $1 Rounding radius*
0 $2 $3 $4 $5 $6 $7 $8 $9 X,Y pos of 4 corners*
0 Add a 4 corners polygon primitive as box body*
4,1,4,$2,$3,$4,$5,$6,$7,$8,$9,$2,$3,0*
0 Add four circle primitives for the rounded corners*
1,1,$1+$1,$2,$3*
1,1,$1+$1,$4,$5*
1,1,$1+$1,$6,$7*
1,1,$1+$1,$8,$9*
0 Add four rect primitives between the rounded corners*
20,1,$1+$1,$2,$3,$4,$5,0*
20,1,$1+$1,$4,$5,$6,$7,0*
20,1,$1+$1,$6,$7,$8,$9,0*
20,1,$1+$1,$8,$9,$2,$3,0*%
G04 Aperture macros list end*
%ADD10RoundRect,0.140000X0.170000X-0.140000X0.170000X0.140000X-0.170000X0.140000X-0.170000X-0.140000X0*%
%ADD11RoundRect,0.135000X-0.135000X-0.185000X0.135000X-0.185000X0.135000X0.185000X-0.135000X0.185000X0*%
%ADD12C,1.000000*%
%ADD13RoundRect,0.250000X0.250000X0.475000X-0.250000X0.475000X-0.250000X-0.475000X0.250000X-0.475000X0*%
%ADD14RoundRect,0.250000X0.450000X0.425000X-0.450000X0.425000X-0.450000X-0.425000X0.450000X-0.425000X0*%
%ADD15RoundRect,0.140000X-0.170000X0.140000X-0.170000X-0.140000X0.170000X-0.140000X0.170000X0.140000X0*%
%ADD16RoundRect,0.150000X0.150000X0.200000X-0.150000X0.200000X-0.150000X-0.200000X0.150000X-0.200000X0*%
%ADD17RoundRect,0.135000X-0.185000X0.135000X-0.185000X-0.135000X0.185000X-0.135000X0.185000X0.135000X0*%
%ADD18R,1.800000X0.900000*%
%ADD19R,0.900000X1.800000*%
%ADD20R,5.600000X5.600000*%
%ADD21R,1.600000X3.100000*%
%ADD22RoundRect,0.135000X0.135000X0.185000X-0.135000X0.185000X-0.135000X-0.185000X0.135000X-0.185000X0*%
%ADD23RoundRect,0.250000X-1.250000X-0.550000X1.250000X-0.550000X1.250000X0.550000X-1.250000X0.550000X0*%
%ADD24RoundRect,0.140000X-0.140000X-0.170000X0.140000X-0.170000X0.140000X0.170000X-0.140000X0.170000X0*%
%ADD25C,1.300000*%
%ADD26C,1.500000*%
%ADD27O,1.200000X2.800000*%
%ADD28C,1.600000*%
%ADD29R,0.500000X2.000000*%
%ADD30R,2.300000X3.200000*%
%ADD31R,0.600000X1.160000*%
%ADD32R,0.300000X1.160000*%
%ADD33O,0.900000X2.000000*%
%ADD34O,0.900000X1.700000*%
%ADD35C,3.600000*%
%ADD36C,6.400000*%
%ADD37RoundRect,0.225000X0.250000X-0.225000X0.250000X0.225000X-0.250000X0.225000X-0.250000X-0.225000X0*%
%ADD38RoundRect,0.140000X0.140000X0.170000X-0.140000X0.170000X-0.140000X-0.170000X0.140000X-0.170000X0*%
%ADD39R,1.000000X1.400000*%
%ADD40R,1.100000X0.600000*%
%ADD41RoundRect,0.135000X0.185000X-0.135000X0.185000X0.135000X-0.185000X0.135000X-0.185000X-0.135000X0*%
%ADD42RoundRect,0.225000X0.225000X0.375000X-0.225000X0.375000X-0.225000X-0.375000X0.225000X-0.375000X0*%
%ADD43RoundRect,0.250000X-0.650000X0.325000X-0.650000X-0.325000X0.650000X-0.325000X0.650000X0.325000X0*%
%ADD44R,1.000000X1.700000*%
%ADD45R,1.150000X1.000000*%
%ADD46C,0.800000*%
%ADD47R,0.800000X1.140000*%
%ADD48R,0.700000X1.140000*%
%ADD49R,0.700000X2.400000*%
%ADD50RoundRect,0.250000X-0.250000X-0.475000X0.250000X-0.475000X0.250000X0.475000X-0.250000X0.475000X0*%
%ADD51O,0.700000X0.280000*%
%ADD52O,0.280000X0.700000*%
%ADD53R,2.800000X2.800000*%
%ADD54R,1.700000X1.700000*%
%ADD55O,1.700000X1.700000*%
%ADD56R,0.760000X1.660000*%
G04 APERTURE END LIST*
D10*
%TO.C,C39*%
X150130000Y-122310000D03*
X150130000Y-121350000D03*
%TD*%
D11*
%TO.C,R11*%
X168984000Y-124841000D03*
X170004000Y-124841000D03*
%TD*%
D12*
%TO.C,TP12*%
X158275000Y-62950000D03*
%TD*%
D13*
%TO.C,C14*%
X162975000Y-126600000D03*
X161075000Y-126600000D03*
%TD*%
D14*
%TO.C,C12*%
X164550000Y-62925000D03*
X161850000Y-62925000D03*
%TD*%
D15*
%TO.C,C13*%
X128500000Y-110495000D03*
X128500000Y-111455000D03*
%TD*%
D16*
%TO.C,D4*%
X169575000Y-132225000D03*
X170975000Y-132225000D03*
%TD*%
D10*
%TO.C,C37*%
X148125000Y-113355000D03*
X148125000Y-112395000D03*
%TD*%
D12*
%TO.C,TP8*%
X153650000Y-62950000D03*
%TD*%
D16*
%TO.C,D6*%
X169575000Y-135175000D03*
X170975000Y-135175000D03*
%TD*%
D17*
%TO.C,R31*%
X180150000Y-76490000D03*
X180150000Y-77510000D03*
%TD*%
D15*
%TO.C,C35*%
X153550000Y-112395000D03*
X153550000Y-113355000D03*
%TD*%
D18*
%TO.C,U2*%
X144525063Y-99733919D03*
X144525063Y-98333919D03*
X144525063Y-96933919D03*
X144525063Y-95533919D03*
X144525063Y-94133919D03*
X144525063Y-89933919D03*
X144525063Y-88533919D03*
X144525063Y-87133919D03*
X144525063Y-85733919D03*
X144525063Y-82933919D03*
X144525063Y-81533919D03*
X144525063Y-77333919D03*
X144525063Y-75933919D03*
X144525063Y-74533919D03*
X144525063Y-73133919D03*
X144525063Y-71733919D03*
X144525063Y-68933919D03*
D19*
X141525063Y-67633919D03*
X140125063Y-67633919D03*
X138725063Y-67633919D03*
X137325063Y-67633919D03*
X135925063Y-67633919D03*
X134525063Y-67633919D03*
X133125063Y-67633919D03*
X131725063Y-67633919D03*
X130325063Y-67633919D03*
X128925063Y-67633919D03*
D18*
X125825063Y-68933919D03*
X125825063Y-70333919D03*
X125825063Y-71733919D03*
X125825063Y-73133919D03*
X125825063Y-74533919D03*
X125825063Y-75933919D03*
X125825063Y-77333919D03*
X125825063Y-78733919D03*
X125825063Y-96933919D03*
X125825063Y-98333919D03*
X125825063Y-99733919D03*
D20*
X134925063Y-81633919D03*
D21*
X132625063Y-96883919D03*
X139225063Y-96883919D03*
%TD*%
D22*
%TO.C,R18*%
X163085000Y-132550000D03*
X162065000Y-132550000D03*
%TD*%
%TO.C,R10*%
X170019000Y-123766000D03*
X168999000Y-123766000D03*
%TD*%
D16*
%TO.C,D5*%
X169575000Y-133700000D03*
X170975000Y-133700000D03*
%TD*%
D23*
%TO.C,C1*%
X165675000Y-128600000D03*
X170075000Y-128600000D03*
%TD*%
D12*
%TO.C,TP14*%
X170975000Y-64225000D03*
%TD*%
D24*
%TO.C,C25*%
X165145000Y-132540000D03*
X166105000Y-132540000D03*
%TD*%
D10*
%TO.C,C2*%
X139250000Y-111475000D03*
X139250000Y-110515000D03*
%TD*%
D25*
%TO.C,RJ2*%
X137120000Y-125167500D03*
X136100000Y-124067500D03*
X135080000Y-125167500D03*
X134060000Y-124067500D03*
X133040000Y-125167500D03*
X132020000Y-124067500D03*
X131000000Y-125167500D03*
X129980000Y-124067500D03*
D26*
X140630000Y-126247500D03*
X138330000Y-126247500D03*
X128770000Y-126247500D03*
X126480000Y-126247500D03*
D27*
X141590000Y-131567500D03*
X125510000Y-131567500D03*
%TD*%
D28*
%TO.C,CN1*%
X184458000Y-70358000D03*
D29*
X183758000Y-66258000D03*
X183358000Y-74458000D03*
X182958000Y-66258000D03*
X182558000Y-74458000D03*
X182158000Y-66258000D03*
X181758000Y-74458000D03*
X181358000Y-66258000D03*
X180958000Y-74458000D03*
X180558000Y-66258000D03*
X180158000Y-74458000D03*
X179758000Y-66258000D03*
X179358000Y-74458000D03*
X178958000Y-66258000D03*
X178558000Y-74458000D03*
X178158000Y-66258000D03*
X177758000Y-74458000D03*
X174158000Y-66258000D03*
X173758000Y-74458000D03*
X173358000Y-66258000D03*
X172958000Y-74458000D03*
X172558000Y-66258000D03*
X172158000Y-74458000D03*
X171758000Y-66258000D03*
X171358000Y-74458000D03*
X170958000Y-66258000D03*
X170558000Y-74458000D03*
X170158000Y-66258000D03*
X169758000Y-74458000D03*
X169358000Y-66258000D03*
X168958000Y-74458000D03*
X168558000Y-66258000D03*
X168158000Y-74458000D03*
X167758000Y-66258000D03*
X167358000Y-74458000D03*
X166958000Y-66258000D03*
X166558000Y-74458000D03*
X166158000Y-66258000D03*
X165758000Y-74458000D03*
X165358000Y-66258000D03*
X164958000Y-74458000D03*
X164558000Y-66258000D03*
X164158000Y-74458000D03*
X163758000Y-66258000D03*
X163358000Y-74458000D03*
X162958000Y-66258000D03*
X162558000Y-74458000D03*
X162158000Y-66258000D03*
X161758000Y-74458000D03*
X161358000Y-66258000D03*
X160958000Y-74458000D03*
X160558000Y-66258000D03*
X160158000Y-74458000D03*
D30*
X157308000Y-66858000D03*
X186608000Y-66858000D03*
%TD*%
D31*
%TO.C,J3*%
X151825000Y-132115000D03*
X152625000Y-132115000D03*
D32*
X153775000Y-132115000D03*
X154775000Y-132115000D03*
X155275000Y-132115000D03*
X156275000Y-132115000D03*
D31*
X157425000Y-132115000D03*
X158225000Y-132115000D03*
X158225000Y-132115000D03*
X157425000Y-132115000D03*
D32*
X156775000Y-132115000D03*
X155775000Y-132115000D03*
X154275000Y-132115000D03*
X153275000Y-132115000D03*
D31*
X152625000Y-132115000D03*
X151825000Y-132115000D03*
D33*
X150705000Y-132695000D03*
D34*
X150705000Y-136865000D03*
D33*
X159345000Y-132695000D03*
D34*
X159345000Y-136865000D03*
%TD*%
D28*
%TO.C,SW1*%
X162584000Y-134070000D03*
X165584000Y-134070000D03*
X164084000Y-135930000D03*
%TD*%
D35*
%TO.C,H5*%
X159858000Y-118408000D03*
D36*
X159858000Y-118408000D03*
%TD*%
D11*
%TO.C,R39*%
X146390000Y-74525000D03*
X147410000Y-74525000D03*
%TD*%
D37*
%TO.C,C29*%
X179975000Y-123750000D03*
X179975000Y-122200000D03*
%TD*%
D24*
%TO.C,C41*%
X154195000Y-118500000D03*
X155155000Y-118500000D03*
%TD*%
D38*
%TO.C,C19*%
X169999000Y-122691000D03*
X169039000Y-122691000D03*
%TD*%
D10*
%TO.C,C42*%
X152575000Y-122310000D03*
X152575000Y-121350000D03*
%TD*%
D12*
%TO.C,TP4*%
X179900000Y-120000000D03*
%TD*%
D35*
%TO.C,H6*%
X184058000Y-118408000D03*
D36*
X184058000Y-118408000D03*
%TD*%
D39*
%TO.C,L1*%
X163594000Y-123756000D03*
X160394000Y-123756000D03*
%TD*%
D12*
%TO.C,TP6*%
X149925000Y-98250000D03*
%TD*%
D10*
%TO.C,C43*%
X155075000Y-122310000D03*
X155075000Y-121350000D03*
%TD*%
D11*
%TO.C,R38*%
X146390000Y-73125000D03*
X147410000Y-73125000D03*
%TD*%
D22*
%TO.C,R7*%
X153280000Y-130450000D03*
X152260000Y-130450000D03*
%TD*%
D17*
%TO.C,R44*%
X128778000Y-121918000D03*
X128778000Y-122938000D03*
%TD*%
%TO.C,R22*%
X169100000Y-76490000D03*
X169100000Y-77510000D03*
%TD*%
D16*
%TO.C,D7*%
X169575000Y-136650000D03*
X170975000Y-136650000D03*
%TD*%
D11*
%TO.C,R8*%
X156790000Y-130450000D03*
X157810000Y-130450000D03*
%TD*%
D40*
%TO.C,U4*%
X164969000Y-122831000D03*
X164969000Y-123781000D03*
X164969000Y-124731000D03*
X167669000Y-124731000D03*
X167669000Y-123781000D03*
X167669000Y-122831000D03*
%TD*%
D17*
%TO.C,R13*%
X130325000Y-65065000D03*
X130325000Y-66085000D03*
%TD*%
D10*
%TO.C,C6*%
X147275000Y-81505000D03*
X147275000Y-80545000D03*
%TD*%
D41*
%TO.C,R37*%
X146225000Y-81535000D03*
X146225000Y-80515000D03*
%TD*%
D12*
%TO.C,TP9*%
X156725000Y-62950000D03*
%TD*%
D17*
%TO.C,R21*%
X168000000Y-76490000D03*
X168000000Y-77510000D03*
%TD*%
D42*
%TO.C,D11*%
X164300000Y-130850000D03*
X161000000Y-130850000D03*
%TD*%
D43*
%TO.C,C15*%
X147925000Y-95300000D03*
X147925000Y-98250000D03*
%TD*%
D17*
%TO.C,R25*%
X181275000Y-122440000D03*
X181275000Y-123460000D03*
%TD*%
D28*
%TO.C,C7*%
X143125000Y-125175000D03*
X143125000Y-130175000D03*
%TD*%
D41*
%TO.C,R27*%
X173625000Y-124035000D03*
X173625000Y-123015000D03*
%TD*%
D44*
%TO.C,SW5*%
X148575000Y-81050000D03*
X152181800Y-81050000D03*
%TD*%
D45*
%TO.C,Y1*%
X152250000Y-112175000D03*
X150500000Y-112175000D03*
X150500000Y-113575000D03*
X152250000Y-113575000D03*
%TD*%
D12*
%TO.C,TP8*%
X155200000Y-62950000D03*
%TD*%
D41*
%TO.C,R32*%
X172200000Y-77555000D03*
X172200000Y-76535000D03*
%TD*%
D12*
%TO.C,TP3*%
X173375000Y-64225000D03*
%TD*%
D15*
%TO.C,C10*%
X170150000Y-76545000D03*
X170150000Y-77505000D03*
%TD*%
D46*
%TO.C,SIM1*%
X173460400Y-137566400D03*
X181960400Y-137566400D03*
D47*
X178710400Y-125336400D03*
X176170400Y-125336400D03*
X173630400Y-125336400D03*
D48*
X179980400Y-125336400D03*
D47*
X174900400Y-125336400D03*
D48*
X180930400Y-125336400D03*
D49*
X171960400Y-126816400D03*
X171960400Y-138816400D03*
X184960400Y-138816400D03*
X184960400Y-126816400D03*
%TD*%
D15*
%TO.C,C36*%
X149175000Y-112395000D03*
X149175000Y-113355000D03*
%TD*%
D38*
%TO.C,C45*%
X147130000Y-115650000D03*
X146170000Y-115650000D03*
%TD*%
D37*
%TO.C,C38*%
X151325000Y-122600000D03*
X151325000Y-121050000D03*
%TD*%
D15*
%TO.C,C9*%
X160950000Y-76540000D03*
X160950000Y-77500000D03*
%TD*%
D50*
%TO.C,C3*%
X161075000Y-128650000D03*
X162975000Y-128650000D03*
%TD*%
D37*
%TO.C,C44*%
X153825000Y-122600000D03*
X153825000Y-121050000D03*
%TD*%
D51*
%TO.C,U7*%
X148775000Y-116000000D03*
X148775000Y-116500000D03*
X148775000Y-117000000D03*
X148775000Y-117500000D03*
X148775000Y-118000000D03*
X148775000Y-118500000D03*
D52*
X149525000Y-119250000D03*
X150025000Y-119250000D03*
X150525000Y-119250000D03*
X151025000Y-119250000D03*
X151525000Y-119250000D03*
X152025000Y-119250000D03*
D51*
X152775000Y-118500000D03*
X152775000Y-118000000D03*
X152775000Y-117500000D03*
X152775000Y-117000000D03*
X152775000Y-116500000D03*
X152775000Y-116000000D03*
D52*
X152025000Y-115250000D03*
X151525000Y-115250000D03*
X151025000Y-115250000D03*
X150525000Y-115250000D03*
X150025000Y-115250000D03*
X149525000Y-115250000D03*
D53*
X150775000Y-117260000D03*
%TD*%
D24*
%TO.C,C16*%
X163595000Y-64500000D03*
X164555000Y-64500000D03*
%TD*%
D12*
%TO.C,TP13*%
X159825000Y-62950000D03*
%TD*%
D15*
%TO.C,C11*%
X182525000Y-76540000D03*
X182525000Y-77500000D03*
%TD*%
D41*
%TO.C,R28*%
X176175000Y-124010000D03*
X176175000Y-122990000D03*
%TD*%
D15*
%TO.C,C22*%
X146200000Y-97295000D03*
X146200000Y-98255000D03*
%TD*%
D41*
%TO.C,R26*%
X174900000Y-124010000D03*
X174900000Y-122990000D03*
%TD*%
D54*
%TO.C,J4*%
X131700000Y-63225000D03*
D55*
X129160000Y-63225000D03*
X126620000Y-63225000D03*
%TD*%
D56*
%TO.C,T1*%
X138325000Y-111180000D03*
X137045000Y-111180000D03*
X135785000Y-111180000D03*
X131965000Y-111180000D03*
X130705000Y-111180000D03*
X129435000Y-111180000D03*
X129435000Y-119820000D03*
X130705000Y-119820000D03*
X131965000Y-119820000D03*
X135785000Y-119820000D03*
X137045000Y-119820000D03*
X138325000Y-119820000D03*
%TD*%
D22*
%TO.C,R23*%
X173210000Y-76600000D03*
X172190000Y-76600000D03*
%TD*%
M02*
