M48
; DRILL file {KiCad 9.0.2} date 2025-06-30T16:53:22+0700
; FORMAT={-:-/ absolute / metric / decimal}
; #@! TF.CreationDate,2025-06-30T16:53:22+07:00
; #@! TF.GenerationSoftware,Kicad,Pcbnew,9.0.2
; #@! TF.FileFunction,Plated,1,2,PTH
FMAT,2
METRIC
; #@! TA.AperFunction,Plated,PTH,ViaDrill
T1C0.300
; #@! TA.AperFunction,Plated,PTH,ComponentDrill
T2C0.600
; #@! TA.AperFunction,Plated,PTH,ComponentDrill
T3C0.700
; #@! TA.AperFunction,Plated,PTH,ComponentDrill
T4C0.800
; #@! TA.AperFunction,Plated,PTH,ComponentDrill
T5C0.900
; #@! TA.AperFunction,Plated,PTH,ComponentDrill
T6C1.000
; #@! TA.AperFunction,Plated,PTH,ComponentDrill
T7C1.000
; #@! TA.AperFunction,Plated,PTH,ComponentDrill
T8C1.600
; #@! TA.AperFunction,Plated,PTH,ComponentDrill
T9C3.200
%
G90
G05
T1
X124.024Y-97.232
X124.024Y-98.036
X124.25Y-68.925
X124.275Y-74.55
X124.3Y-70.35
X124.3Y-77.325
X124.325Y-75.975
X124.35Y-78.75
X127.228Y-96.925
X127.228Y-98.3
X127.25Y-71.75
X127.3Y-73.175
X128.5Y-109.575
X128.8Y-121.325
X128.925Y-65.025
X129.425Y-112.575
X130.7Y-118.875
X131.95Y-112.55
X133.05Y-66.45
X135.75Y-109.847
X137.025Y-118.875
X138.3Y-109.825
X139.25Y-112.375
X145.75Y-71.75
X145.775Y-68.95
X145.825Y-95.525
X145.925Y-82.925
X146.85Y-67.97
X147.275Y-79.925
X147.637Y-115.688
X148.2Y-73.125
X148.2Y-74.525
X149.95Y-116.5
X149.95Y-117.25
X149.95Y-118.025
X150.35Y-95.23
X150.775Y-116.51
X150.775Y-117.26
X150.775Y-118.035
X151.55Y-116.5
X151.55Y-117.25
X151.55Y-118.025
X152.625Y-82.225
X153.075Y-83.5
X154.798Y-76.677
X154.8Y-75.948
X154.906Y-83.5
X155.64Y-66.85
X156.076Y-115.65
X158.225Y-133.2
X158.35Y-84.25
X158.77Y-66.86
X159.442Y-120.725
X160.1Y-126.6
X160.558Y-67.7
X160.96Y-72.93
X162.075Y-131.875
X162.5Y-80.31
X162.875Y-62.925
X163.76Y-67.77
X163.825Y-126.0
X163.825Y-126.6
X163.825Y-127.2
X164.52Y-80.29
X164.725Y-127.275
X164.96Y-72.95
X165.4Y-127.275
X166.075Y-127.275
X166.14Y-67.77
X166.75Y-127.25
X166.96Y-67.78
X167.5Y-112.081
X167.75Y-64.7
X168.158Y-72.975
X168.55Y-64.7
X168.958Y-72.95
X169.35Y-67.6
X169.5Y-110.275
X170.16Y-67.59
X170.5Y-110.3
X171.449Y-76.677
X172.51Y-107.19
X172.51Y-110.27
X173.625Y-122.425
X173.75Y-73.13
X174.5Y-80.1
X174.5Y-82.281
X174.875Y-122.375
X176.175Y-122.375
X177.5Y-110.27
X177.54Y-107.23
X178.52Y-80.08
X179.325Y-75.958
X180.0Y-121.4
X180.475Y-116.325
X180.56Y-67.77
X181.5Y-80.06
X181.975Y-123.45
X182.55Y-73.14
X182.56Y-75.79
X184.825Y-109.118
X184.825Y-110.319
X184.847Y-108.292
X188.225Y-105.4
X188.5Y-100.225
X188.5Y-101.275
X190.75Y-111.2
X190.925Y-113.025
X191.1Y-101.175
X193.1Y-86.75
X193.125Y-111.925
X193.125Y-115.325
X193.125Y-118.75
X193.125Y-122.15
T4
X143.125Y-125.175
X143.125Y-130.175
X173.46Y-137.566
X181.96Y-137.566
T5
X129.98Y-124.067
X131.0Y-125.167
X132.02Y-124.067
X133.04Y-125.167
X134.06Y-124.067
X135.08Y-125.167
X136.1Y-124.067
X137.12Y-125.167
T6
X126.48Y-126.247
X128.77Y-126.247
X138.33Y-126.247
X140.63Y-126.247
X162.584Y-134.07
X164.084Y-135.93
X165.584Y-134.07
T7
X126.62Y-63.225
X129.16Y-63.225
X131.7Y-63.225
T8
X184.458Y-70.358
T9
X159.858Y-118.408
X184.058Y-118.408
T2
G00X150.705Y-133.245
M15
G01X150.705Y-132.145
M16
G05
G00X150.705Y-137.265
M15
G01X150.705Y-136.465
M16
G05
G00X159.345Y-133.245
M15
G01X159.345Y-132.145
M16
G05
G00X159.345Y-137.265
M15
G01X159.345Y-136.465
M16
G05
T3
G00X125.51Y-130.818
M15
G01X125.51Y-132.317
M16
G05
G00X141.59Y-130.818
M15
G01X141.59Y-132.317
M16
G05
M30
