%TF.GenerationSoftware,KiCad,Pcbnew,9.0.2*%
%TF.CreationDate,2025-06-30T16:53:14+07:00*%
%TF.ProjectId,GW11LR,47573131-4c52-42e6-9b69-6361645f7063,rev?*%
%TF.SameCoordinates,Original*%
%TF.FileFunction,Legend,Bot*%
%TF.FilePolarity,Positive*%
%FSLAX46Y46*%
G04 Gerber Fmt 4.6, Leading zero omitted, Abs format (unit mm)*
G04 Created by KiCad (PCBNEW 9.0.2) date 2025-06-30 16:53:14*
%MOMM*%
%LPD*%
G01*
G04 APERTURE LIST*
%ADD10C,0.100000*%
%ADD11C,0.150000*%
%ADD12C,0.120000*%
%ADD13C,0.250000*%
%ADD14C,0.750000*%
G04 APERTURE END LIST*
D10*
X177998960Y-123702600D02*
X179360400Y-123702600D01*
X179360400Y-126575340D01*
X177998960Y-126575340D01*
X177998960Y-123702600D01*
X167483360Y-123728000D02*
X168844800Y-123728000D01*
X168844800Y-126600740D01*
X167483360Y-126600740D01*
X167483360Y-123728000D01*
X170648972Y-71999800D02*
X170577544Y-72023609D01*
X170577544Y-72023609D02*
X170458496Y-72023609D01*
X170458496Y-72023609D02*
X170410877Y-71999800D01*
X170410877Y-71999800D02*
X170387068Y-71975990D01*
X170387068Y-71975990D02*
X170363258Y-71928371D01*
X170363258Y-71928371D02*
X170363258Y-71880752D01*
X170363258Y-71880752D02*
X170387068Y-71833133D01*
X170387068Y-71833133D02*
X170410877Y-71809323D01*
X170410877Y-71809323D02*
X170458496Y-71785514D01*
X170458496Y-71785514D02*
X170553734Y-71761704D01*
X170553734Y-71761704D02*
X170601353Y-71737895D01*
X170601353Y-71737895D02*
X170625163Y-71714085D01*
X170625163Y-71714085D02*
X170648972Y-71666466D01*
X170648972Y-71666466D02*
X170648972Y-71618847D01*
X170648972Y-71618847D02*
X170625163Y-71571228D01*
X170625163Y-71571228D02*
X170601353Y-71547419D01*
X170601353Y-71547419D02*
X170553734Y-71523609D01*
X170553734Y-71523609D02*
X170434687Y-71523609D01*
X170434687Y-71523609D02*
X170363258Y-71547419D01*
X169863259Y-71975990D02*
X169887068Y-71999800D01*
X169887068Y-71999800D02*
X169958497Y-72023609D01*
X169958497Y-72023609D02*
X170006116Y-72023609D01*
X170006116Y-72023609D02*
X170077544Y-71999800D01*
X170077544Y-71999800D02*
X170125163Y-71952180D01*
X170125163Y-71952180D02*
X170148973Y-71904561D01*
X170148973Y-71904561D02*
X170172782Y-71809323D01*
X170172782Y-71809323D02*
X170172782Y-71737895D01*
X170172782Y-71737895D02*
X170148973Y-71642657D01*
X170148973Y-71642657D02*
X170125163Y-71595038D01*
X170125163Y-71595038D02*
X170077544Y-71547419D01*
X170077544Y-71547419D02*
X170006116Y-71523609D01*
X170006116Y-71523609D02*
X169958497Y-71523609D01*
X169958497Y-71523609D02*
X169887068Y-71547419D01*
X169887068Y-71547419D02*
X169863259Y-71571228D01*
X169410878Y-72023609D02*
X169648973Y-72023609D01*
X169648973Y-72023609D02*
X169648973Y-71523609D01*
X191165163Y-82118133D02*
X190784211Y-82118133D01*
X190974687Y-82308609D02*
X190974687Y-81927657D01*
X190593734Y-81808609D02*
X190284210Y-81808609D01*
X190284210Y-81808609D02*
X190450877Y-81999085D01*
X190450877Y-81999085D02*
X190379448Y-81999085D01*
X190379448Y-81999085D02*
X190331829Y-82022895D01*
X190331829Y-82022895D02*
X190308020Y-82046704D01*
X190308020Y-82046704D02*
X190284210Y-82094323D01*
X190284210Y-82094323D02*
X190284210Y-82213371D01*
X190284210Y-82213371D02*
X190308020Y-82260990D01*
X190308020Y-82260990D02*
X190331829Y-82284800D01*
X190331829Y-82284800D02*
X190379448Y-82308609D01*
X190379448Y-82308609D02*
X190522305Y-82308609D01*
X190522305Y-82308609D02*
X190569924Y-82284800D01*
X190569924Y-82284800D02*
X190593734Y-82260990D01*
X190141353Y-81808609D02*
X189974687Y-82308609D01*
X189974687Y-82308609D02*
X189808020Y-81808609D01*
X189569925Y-82022895D02*
X189617544Y-81999085D01*
X189617544Y-81999085D02*
X189641354Y-81975276D01*
X189641354Y-81975276D02*
X189665163Y-81927657D01*
X189665163Y-81927657D02*
X189665163Y-81903847D01*
X189665163Y-81903847D02*
X189641354Y-81856228D01*
X189641354Y-81856228D02*
X189617544Y-81832419D01*
X189617544Y-81832419D02*
X189569925Y-81808609D01*
X189569925Y-81808609D02*
X189474687Y-81808609D01*
X189474687Y-81808609D02*
X189427068Y-81832419D01*
X189427068Y-81832419D02*
X189403259Y-81856228D01*
X189403259Y-81856228D02*
X189379449Y-81903847D01*
X189379449Y-81903847D02*
X189379449Y-81927657D01*
X189379449Y-81927657D02*
X189403259Y-81975276D01*
X189403259Y-81975276D02*
X189427068Y-81999085D01*
X189427068Y-81999085D02*
X189474687Y-82022895D01*
X189474687Y-82022895D02*
X189569925Y-82022895D01*
X189569925Y-82022895D02*
X189617544Y-82046704D01*
X189617544Y-82046704D02*
X189641354Y-82070514D01*
X189641354Y-82070514D02*
X189665163Y-82118133D01*
X189665163Y-82118133D02*
X189665163Y-82213371D01*
X189665163Y-82213371D02*
X189641354Y-82260990D01*
X189641354Y-82260990D02*
X189617544Y-82284800D01*
X189617544Y-82284800D02*
X189569925Y-82308609D01*
X189569925Y-82308609D02*
X189474687Y-82308609D01*
X189474687Y-82308609D02*
X189427068Y-82284800D01*
X189427068Y-82284800D02*
X189403259Y-82260990D01*
X189403259Y-82260990D02*
X189379449Y-82213371D01*
X189379449Y-82213371D02*
X189379449Y-82118133D01*
X189379449Y-82118133D02*
X189403259Y-82070514D01*
X189403259Y-82070514D02*
X189427068Y-82046704D01*
X189427068Y-82046704D02*
X189474687Y-82022895D01*
X193428258Y-81857419D02*
X193475877Y-81833609D01*
X193475877Y-81833609D02*
X193547306Y-81833609D01*
X193547306Y-81833609D02*
X193618734Y-81857419D01*
X193618734Y-81857419D02*
X193666353Y-81905038D01*
X193666353Y-81905038D02*
X193690163Y-81952657D01*
X193690163Y-81952657D02*
X193713972Y-82047895D01*
X193713972Y-82047895D02*
X193713972Y-82119323D01*
X193713972Y-82119323D02*
X193690163Y-82214561D01*
X193690163Y-82214561D02*
X193666353Y-82262180D01*
X193666353Y-82262180D02*
X193618734Y-82309800D01*
X193618734Y-82309800D02*
X193547306Y-82333609D01*
X193547306Y-82333609D02*
X193499687Y-82333609D01*
X193499687Y-82333609D02*
X193428258Y-82309800D01*
X193428258Y-82309800D02*
X193404449Y-82285990D01*
X193404449Y-82285990D02*
X193404449Y-82119323D01*
X193404449Y-82119323D02*
X193499687Y-82119323D01*
X193190163Y-82333609D02*
X193190163Y-81833609D01*
X193190163Y-81833609D02*
X192904449Y-82333609D01*
X192904449Y-82333609D02*
X192904449Y-81833609D01*
X192666353Y-82333609D02*
X192666353Y-81833609D01*
X192666353Y-81833609D02*
X192547305Y-81833609D01*
X192547305Y-81833609D02*
X192475877Y-81857419D01*
X192475877Y-81857419D02*
X192428258Y-81905038D01*
X192428258Y-81905038D02*
X192404448Y-81952657D01*
X192404448Y-81952657D02*
X192380639Y-82047895D01*
X192380639Y-82047895D02*
X192380639Y-82119323D01*
X192380639Y-82119323D02*
X192404448Y-82214561D01*
X192404448Y-82214561D02*
X192428258Y-82262180D01*
X192428258Y-82262180D02*
X192475877Y-82309800D01*
X192475877Y-82309800D02*
X192547305Y-82333609D01*
X192547305Y-82333609D02*
X192666353Y-82333609D01*
X167618972Y-72029800D02*
X167547544Y-72053609D01*
X167547544Y-72053609D02*
X167428496Y-72053609D01*
X167428496Y-72053609D02*
X167380877Y-72029800D01*
X167380877Y-72029800D02*
X167357068Y-72005990D01*
X167357068Y-72005990D02*
X167333258Y-71958371D01*
X167333258Y-71958371D02*
X167333258Y-71910752D01*
X167333258Y-71910752D02*
X167357068Y-71863133D01*
X167357068Y-71863133D02*
X167380877Y-71839323D01*
X167380877Y-71839323D02*
X167428496Y-71815514D01*
X167428496Y-71815514D02*
X167523734Y-71791704D01*
X167523734Y-71791704D02*
X167571353Y-71767895D01*
X167571353Y-71767895D02*
X167595163Y-71744085D01*
X167595163Y-71744085D02*
X167618972Y-71696466D01*
X167618972Y-71696466D02*
X167618972Y-71648847D01*
X167618972Y-71648847D02*
X167595163Y-71601228D01*
X167595163Y-71601228D02*
X167571353Y-71577419D01*
X167571353Y-71577419D02*
X167523734Y-71553609D01*
X167523734Y-71553609D02*
X167404687Y-71553609D01*
X167404687Y-71553609D02*
X167333258Y-71577419D01*
X167118973Y-72053609D02*
X167118973Y-71553609D01*
X167118973Y-71553609D02*
X166999925Y-71553609D01*
X166999925Y-71553609D02*
X166928497Y-71577419D01*
X166928497Y-71577419D02*
X166880878Y-71625038D01*
X166880878Y-71625038D02*
X166857068Y-71672657D01*
X166857068Y-71672657D02*
X166833259Y-71767895D01*
X166833259Y-71767895D02*
X166833259Y-71839323D01*
X166833259Y-71839323D02*
X166857068Y-71934561D01*
X166857068Y-71934561D02*
X166880878Y-71982180D01*
X166880878Y-71982180D02*
X166928497Y-72029800D01*
X166928497Y-72029800D02*
X166999925Y-72053609D01*
X166999925Y-72053609D02*
X167118973Y-72053609D01*
X166642782Y-71910752D02*
X166404687Y-71910752D01*
X166690401Y-72053609D02*
X166523735Y-71553609D01*
X166523735Y-71553609D02*
X166357068Y-72053609D01*
D11*
X191154164Y-116442856D02*
X190797021Y-116192856D01*
X191154164Y-116014285D02*
X190404164Y-116014285D01*
X190404164Y-116014285D02*
X190404164Y-116299999D01*
X190404164Y-116299999D02*
X190439878Y-116371428D01*
X190439878Y-116371428D02*
X190475592Y-116407142D01*
X190475592Y-116407142D02*
X190547021Y-116442856D01*
X190547021Y-116442856D02*
X190654164Y-116442856D01*
X190654164Y-116442856D02*
X190725592Y-116407142D01*
X190725592Y-116407142D02*
X190761307Y-116371428D01*
X190761307Y-116371428D02*
X190797021Y-116299999D01*
X190797021Y-116299999D02*
X190797021Y-116014285D01*
X190654164Y-117085714D02*
X191154164Y-117085714D01*
X190368450Y-116907142D02*
X190904164Y-116728571D01*
X190904164Y-116728571D02*
X190904164Y-117192856D01*
X191154164Y-117871428D02*
X191154164Y-117442857D01*
X191154164Y-117657142D02*
X190404164Y-117657142D01*
X190404164Y-117657142D02*
X190511307Y-117585714D01*
X190511307Y-117585714D02*
X190582735Y-117514285D01*
X190582735Y-117514285D02*
X190618450Y-117442857D01*
X136194164Y-121847856D02*
X135837021Y-121597856D01*
X136194164Y-121419285D02*
X135444164Y-121419285D01*
X135444164Y-121419285D02*
X135444164Y-121704999D01*
X135444164Y-121704999D02*
X135479878Y-121776428D01*
X135479878Y-121776428D02*
X135515592Y-121812142D01*
X135515592Y-121812142D02*
X135587021Y-121847856D01*
X135587021Y-121847856D02*
X135694164Y-121847856D01*
X135694164Y-121847856D02*
X135765592Y-121812142D01*
X135765592Y-121812142D02*
X135801307Y-121776428D01*
X135801307Y-121776428D02*
X135837021Y-121704999D01*
X135837021Y-121704999D02*
X135837021Y-121419285D01*
X135694164Y-122490714D02*
X136194164Y-122490714D01*
X135408450Y-122312142D02*
X135944164Y-122133571D01*
X135944164Y-122133571D02*
X135944164Y-122597856D01*
X135444164Y-123205000D02*
X135444164Y-123062142D01*
X135444164Y-123062142D02*
X135479878Y-122990714D01*
X135479878Y-122990714D02*
X135515592Y-122955000D01*
X135515592Y-122955000D02*
X135622735Y-122883571D01*
X135622735Y-122883571D02*
X135765592Y-122847857D01*
X135765592Y-122847857D02*
X136051307Y-122847857D01*
X136051307Y-122847857D02*
X136122735Y-122883571D01*
X136122735Y-122883571D02*
X136158450Y-122919285D01*
X136158450Y-122919285D02*
X136194164Y-122990714D01*
X136194164Y-122990714D02*
X136194164Y-123133571D01*
X136194164Y-123133571D02*
X136158450Y-123205000D01*
X136158450Y-123205000D02*
X136122735Y-123240714D01*
X136122735Y-123240714D02*
X136051307Y-123276428D01*
X136051307Y-123276428D02*
X135872735Y-123276428D01*
X135872735Y-123276428D02*
X135801307Y-123240714D01*
X135801307Y-123240714D02*
X135765592Y-123205000D01*
X135765592Y-123205000D02*
X135729878Y-123133571D01*
X135729878Y-123133571D02*
X135729878Y-122990714D01*
X135729878Y-122990714D02*
X135765592Y-122919285D01*
X135765592Y-122919285D02*
X135801307Y-122883571D01*
X135801307Y-122883571D02*
X135872735Y-122847857D01*
X130049164Y-119637856D02*
X129692021Y-119387856D01*
X130049164Y-119209285D02*
X129299164Y-119209285D01*
X129299164Y-119209285D02*
X129299164Y-119494999D01*
X129299164Y-119494999D02*
X129334878Y-119566428D01*
X129334878Y-119566428D02*
X129370592Y-119602142D01*
X129370592Y-119602142D02*
X129442021Y-119637856D01*
X129442021Y-119637856D02*
X129549164Y-119637856D01*
X129549164Y-119637856D02*
X129620592Y-119602142D01*
X129620592Y-119602142D02*
X129656307Y-119566428D01*
X129656307Y-119566428D02*
X129692021Y-119494999D01*
X129692021Y-119494999D02*
X129692021Y-119209285D01*
X129549164Y-120280714D02*
X130049164Y-120280714D01*
X129263450Y-120102142D02*
X129799164Y-119923571D01*
X129799164Y-119923571D02*
X129799164Y-120387856D01*
X129299164Y-120602142D02*
X129299164Y-121102142D01*
X129299164Y-121102142D02*
X130049164Y-120780714D01*
X190292143Y-101377735D02*
X190327857Y-101413450D01*
X190327857Y-101413450D02*
X190435000Y-101449164D01*
X190435000Y-101449164D02*
X190506428Y-101449164D01*
X190506428Y-101449164D02*
X190613571Y-101413450D01*
X190613571Y-101413450D02*
X190685000Y-101342021D01*
X190685000Y-101342021D02*
X190720714Y-101270592D01*
X190720714Y-101270592D02*
X190756428Y-101127735D01*
X190756428Y-101127735D02*
X190756428Y-101020592D01*
X190756428Y-101020592D02*
X190720714Y-100877735D01*
X190720714Y-100877735D02*
X190685000Y-100806307D01*
X190685000Y-100806307D02*
X190613571Y-100734878D01*
X190613571Y-100734878D02*
X190506428Y-100699164D01*
X190506428Y-100699164D02*
X190435000Y-100699164D01*
X190435000Y-100699164D02*
X190327857Y-100734878D01*
X190327857Y-100734878D02*
X190292143Y-100770592D01*
X190006428Y-100770592D02*
X189970714Y-100734878D01*
X189970714Y-100734878D02*
X189899286Y-100699164D01*
X189899286Y-100699164D02*
X189720714Y-100699164D01*
X189720714Y-100699164D02*
X189649286Y-100734878D01*
X189649286Y-100734878D02*
X189613571Y-100770592D01*
X189613571Y-100770592D02*
X189577857Y-100842021D01*
X189577857Y-100842021D02*
X189577857Y-100913450D01*
X189577857Y-100913450D02*
X189613571Y-101020592D01*
X189613571Y-101020592D02*
X190042143Y-101449164D01*
X190042143Y-101449164D02*
X189577857Y-101449164D01*
X188935000Y-100699164D02*
X189077857Y-100699164D01*
X189077857Y-100699164D02*
X189149285Y-100734878D01*
X189149285Y-100734878D02*
X189185000Y-100770592D01*
X189185000Y-100770592D02*
X189256428Y-100877735D01*
X189256428Y-100877735D02*
X189292142Y-101020592D01*
X189292142Y-101020592D02*
X189292142Y-101306307D01*
X189292142Y-101306307D02*
X189256428Y-101377735D01*
X189256428Y-101377735D02*
X189220714Y-101413450D01*
X189220714Y-101413450D02*
X189149285Y-101449164D01*
X189149285Y-101449164D02*
X189006428Y-101449164D01*
X189006428Y-101449164D02*
X188935000Y-101413450D01*
X188935000Y-101413450D02*
X188899285Y-101377735D01*
X188899285Y-101377735D02*
X188863571Y-101306307D01*
X188863571Y-101306307D02*
X188863571Y-101127735D01*
X188863571Y-101127735D02*
X188899285Y-101056307D01*
X188899285Y-101056307D02*
X188935000Y-101020592D01*
X188935000Y-101020592D02*
X189006428Y-100984878D01*
X189006428Y-100984878D02*
X189149285Y-100984878D01*
X189149285Y-100984878D02*
X189220714Y-101020592D01*
X189220714Y-101020592D02*
X189256428Y-101056307D01*
X189256428Y-101056307D02*
X189292142Y-101127735D01*
X149241428Y-87689164D02*
X149241428Y-88296307D01*
X149241428Y-88296307D02*
X149205714Y-88367735D01*
X149205714Y-88367735D02*
X149170000Y-88403450D01*
X149170000Y-88403450D02*
X149098571Y-88439164D01*
X149098571Y-88439164D02*
X148955714Y-88439164D01*
X148955714Y-88439164D02*
X148884285Y-88403450D01*
X148884285Y-88403450D02*
X148848571Y-88367735D01*
X148848571Y-88367735D02*
X148812857Y-88296307D01*
X148812857Y-88296307D02*
X148812857Y-87689164D01*
X148098571Y-87689164D02*
X148455714Y-87689164D01*
X148455714Y-87689164D02*
X148491428Y-88046307D01*
X148491428Y-88046307D02*
X148455714Y-88010592D01*
X148455714Y-88010592D02*
X148384286Y-87974878D01*
X148384286Y-87974878D02*
X148205714Y-87974878D01*
X148205714Y-87974878D02*
X148134286Y-88010592D01*
X148134286Y-88010592D02*
X148098571Y-88046307D01*
X148098571Y-88046307D02*
X148062857Y-88117735D01*
X148062857Y-88117735D02*
X148062857Y-88296307D01*
X148062857Y-88296307D02*
X148098571Y-88367735D01*
X148098571Y-88367735D02*
X148134286Y-88403450D01*
X148134286Y-88403450D02*
X148205714Y-88439164D01*
X148205714Y-88439164D02*
X148384286Y-88439164D01*
X148384286Y-88439164D02*
X148455714Y-88403450D01*
X148455714Y-88403450D02*
X148491428Y-88367735D01*
X191044164Y-123232856D02*
X190687021Y-122982856D01*
X191044164Y-122804285D02*
X190294164Y-122804285D01*
X190294164Y-122804285D02*
X190294164Y-123089999D01*
X190294164Y-123089999D02*
X190329878Y-123161428D01*
X190329878Y-123161428D02*
X190365592Y-123197142D01*
X190365592Y-123197142D02*
X190437021Y-123232856D01*
X190437021Y-123232856D02*
X190544164Y-123232856D01*
X190544164Y-123232856D02*
X190615592Y-123197142D01*
X190615592Y-123197142D02*
X190651307Y-123161428D01*
X190651307Y-123161428D02*
X190687021Y-123089999D01*
X190687021Y-123089999D02*
X190687021Y-122804285D01*
X190294164Y-123482856D02*
X190294164Y-123947142D01*
X190294164Y-123947142D02*
X190579878Y-123697142D01*
X190579878Y-123697142D02*
X190579878Y-123804285D01*
X190579878Y-123804285D02*
X190615592Y-123875714D01*
X190615592Y-123875714D02*
X190651307Y-123911428D01*
X190651307Y-123911428D02*
X190722735Y-123947142D01*
X190722735Y-123947142D02*
X190901307Y-123947142D01*
X190901307Y-123947142D02*
X190972735Y-123911428D01*
X190972735Y-123911428D02*
X191008450Y-123875714D01*
X191008450Y-123875714D02*
X191044164Y-123804285D01*
X191044164Y-123804285D02*
X191044164Y-123589999D01*
X191044164Y-123589999D02*
X191008450Y-123518571D01*
X191008450Y-123518571D02*
X190972735Y-123482856D01*
X190294164Y-124590000D02*
X190294164Y-124447142D01*
X190294164Y-124447142D02*
X190329878Y-124375714D01*
X190329878Y-124375714D02*
X190365592Y-124340000D01*
X190365592Y-124340000D02*
X190472735Y-124268571D01*
X190472735Y-124268571D02*
X190615592Y-124232857D01*
X190615592Y-124232857D02*
X190901307Y-124232857D01*
X190901307Y-124232857D02*
X190972735Y-124268571D01*
X190972735Y-124268571D02*
X191008450Y-124304285D01*
X191008450Y-124304285D02*
X191044164Y-124375714D01*
X191044164Y-124375714D02*
X191044164Y-124518571D01*
X191044164Y-124518571D02*
X191008450Y-124590000D01*
X191008450Y-124590000D02*
X190972735Y-124625714D01*
X190972735Y-124625714D02*
X190901307Y-124661428D01*
X190901307Y-124661428D02*
X190722735Y-124661428D01*
X190722735Y-124661428D02*
X190651307Y-124625714D01*
X190651307Y-124625714D02*
X190615592Y-124590000D01*
X190615592Y-124590000D02*
X190579878Y-124518571D01*
X190579878Y-124518571D02*
X190579878Y-124375714D01*
X190579878Y-124375714D02*
X190615592Y-124304285D01*
X190615592Y-124304285D02*
X190651307Y-124268571D01*
X190651307Y-124268571D02*
X190722735Y-124232857D01*
X130069164Y-121907856D02*
X129712021Y-121657856D01*
X130069164Y-121479285D02*
X129319164Y-121479285D01*
X129319164Y-121479285D02*
X129319164Y-121764999D01*
X129319164Y-121764999D02*
X129354878Y-121836428D01*
X129354878Y-121836428D02*
X129390592Y-121872142D01*
X129390592Y-121872142D02*
X129462021Y-121907856D01*
X129462021Y-121907856D02*
X129569164Y-121907856D01*
X129569164Y-121907856D02*
X129640592Y-121872142D01*
X129640592Y-121872142D02*
X129676307Y-121836428D01*
X129676307Y-121836428D02*
X129712021Y-121764999D01*
X129712021Y-121764999D02*
X129712021Y-121479285D01*
X129569164Y-122550714D02*
X130069164Y-122550714D01*
X129283450Y-122372142D02*
X129819164Y-122193571D01*
X129819164Y-122193571D02*
X129819164Y-122657856D01*
X129319164Y-123300714D02*
X129319164Y-122943571D01*
X129319164Y-122943571D02*
X129676307Y-122907857D01*
X129676307Y-122907857D02*
X129640592Y-122943571D01*
X129640592Y-122943571D02*
X129604878Y-123015000D01*
X129604878Y-123015000D02*
X129604878Y-123193571D01*
X129604878Y-123193571D02*
X129640592Y-123265000D01*
X129640592Y-123265000D02*
X129676307Y-123300714D01*
X129676307Y-123300714D02*
X129747735Y-123336428D01*
X129747735Y-123336428D02*
X129926307Y-123336428D01*
X129926307Y-123336428D02*
X129997735Y-123300714D01*
X129997735Y-123300714D02*
X130033450Y-123265000D01*
X130033450Y-123265000D02*
X130069164Y-123193571D01*
X130069164Y-123193571D02*
X130069164Y-123015000D01*
X130069164Y-123015000D02*
X130033450Y-122943571D01*
X130033450Y-122943571D02*
X129997735Y-122907857D01*
X143862143Y-89667735D02*
X143897857Y-89703450D01*
X143897857Y-89703450D02*
X144005000Y-89739164D01*
X144005000Y-89739164D02*
X144076428Y-89739164D01*
X144076428Y-89739164D02*
X144183571Y-89703450D01*
X144183571Y-89703450D02*
X144255000Y-89632021D01*
X144255000Y-89632021D02*
X144290714Y-89560592D01*
X144290714Y-89560592D02*
X144326428Y-89417735D01*
X144326428Y-89417735D02*
X144326428Y-89310592D01*
X144326428Y-89310592D02*
X144290714Y-89167735D01*
X144290714Y-89167735D02*
X144255000Y-89096307D01*
X144255000Y-89096307D02*
X144183571Y-89024878D01*
X144183571Y-89024878D02*
X144076428Y-88989164D01*
X144076428Y-88989164D02*
X144005000Y-88989164D01*
X144005000Y-88989164D02*
X143897857Y-89024878D01*
X143897857Y-89024878D02*
X143862143Y-89060592D01*
X143576428Y-89060592D02*
X143540714Y-89024878D01*
X143540714Y-89024878D02*
X143469286Y-88989164D01*
X143469286Y-88989164D02*
X143290714Y-88989164D01*
X143290714Y-88989164D02*
X143219286Y-89024878D01*
X143219286Y-89024878D02*
X143183571Y-89060592D01*
X143183571Y-89060592D02*
X143147857Y-89132021D01*
X143147857Y-89132021D02*
X143147857Y-89203450D01*
X143147857Y-89203450D02*
X143183571Y-89310592D01*
X143183571Y-89310592D02*
X143612143Y-89739164D01*
X143612143Y-89739164D02*
X143147857Y-89739164D01*
X142897857Y-88989164D02*
X142397857Y-88989164D01*
X142397857Y-88989164D02*
X142719285Y-89739164D01*
X192107143Y-87187735D02*
X192142857Y-87223450D01*
X192142857Y-87223450D02*
X192250000Y-87259164D01*
X192250000Y-87259164D02*
X192321428Y-87259164D01*
X192321428Y-87259164D02*
X192428571Y-87223450D01*
X192428571Y-87223450D02*
X192500000Y-87152021D01*
X192500000Y-87152021D02*
X192535714Y-87080592D01*
X192535714Y-87080592D02*
X192571428Y-86937735D01*
X192571428Y-86937735D02*
X192571428Y-86830592D01*
X192571428Y-86830592D02*
X192535714Y-86687735D01*
X192535714Y-86687735D02*
X192500000Y-86616307D01*
X192500000Y-86616307D02*
X192428571Y-86544878D01*
X192428571Y-86544878D02*
X192321428Y-86509164D01*
X192321428Y-86509164D02*
X192250000Y-86509164D01*
X192250000Y-86509164D02*
X192142857Y-86544878D01*
X192142857Y-86544878D02*
X192107143Y-86580592D01*
X191821428Y-86580592D02*
X191785714Y-86544878D01*
X191785714Y-86544878D02*
X191714286Y-86509164D01*
X191714286Y-86509164D02*
X191535714Y-86509164D01*
X191535714Y-86509164D02*
X191464286Y-86544878D01*
X191464286Y-86544878D02*
X191428571Y-86580592D01*
X191428571Y-86580592D02*
X191392857Y-86652021D01*
X191392857Y-86652021D02*
X191392857Y-86723450D01*
X191392857Y-86723450D02*
X191428571Y-86830592D01*
X191428571Y-86830592D02*
X191857143Y-87259164D01*
X191857143Y-87259164D02*
X191392857Y-87259164D01*
X191142857Y-86509164D02*
X190678571Y-86509164D01*
X190678571Y-86509164D02*
X190928571Y-86794878D01*
X190928571Y-86794878D02*
X190821428Y-86794878D01*
X190821428Y-86794878D02*
X190750000Y-86830592D01*
X190750000Y-86830592D02*
X190714285Y-86866307D01*
X190714285Y-86866307D02*
X190678571Y-86937735D01*
X190678571Y-86937735D02*
X190678571Y-87116307D01*
X190678571Y-87116307D02*
X190714285Y-87187735D01*
X190714285Y-87187735D02*
X190750000Y-87223450D01*
X190750000Y-87223450D02*
X190821428Y-87259164D01*
X190821428Y-87259164D02*
X191035714Y-87259164D01*
X191035714Y-87259164D02*
X191107142Y-87223450D01*
X191107142Y-87223450D02*
X191142857Y-87187735D01*
X189485000Y-92639164D02*
X189735000Y-92282021D01*
X189913571Y-92639164D02*
X189913571Y-91889164D01*
X189913571Y-91889164D02*
X189627857Y-91889164D01*
X189627857Y-91889164D02*
X189556428Y-91924878D01*
X189556428Y-91924878D02*
X189520714Y-91960592D01*
X189520714Y-91960592D02*
X189485000Y-92032021D01*
X189485000Y-92032021D02*
X189485000Y-92139164D01*
X189485000Y-92139164D02*
X189520714Y-92210592D01*
X189520714Y-92210592D02*
X189556428Y-92246307D01*
X189556428Y-92246307D02*
X189627857Y-92282021D01*
X189627857Y-92282021D02*
X189913571Y-92282021D01*
X188842143Y-92139164D02*
X188842143Y-92639164D01*
X189020714Y-91853450D02*
X189199285Y-92389164D01*
X189199285Y-92389164D02*
X188735000Y-92389164D01*
X178749164Y-116587856D02*
X178392021Y-116337856D01*
X178749164Y-116159285D02*
X177999164Y-116159285D01*
X177999164Y-116159285D02*
X177999164Y-116444999D01*
X177999164Y-116444999D02*
X178034878Y-116516428D01*
X178034878Y-116516428D02*
X178070592Y-116552142D01*
X178070592Y-116552142D02*
X178142021Y-116587856D01*
X178142021Y-116587856D02*
X178249164Y-116587856D01*
X178249164Y-116587856D02*
X178320592Y-116552142D01*
X178320592Y-116552142D02*
X178356307Y-116516428D01*
X178356307Y-116516428D02*
X178392021Y-116444999D01*
X178392021Y-116444999D02*
X178392021Y-116159285D01*
X177999164Y-116837856D02*
X177999164Y-117302142D01*
X177999164Y-117302142D02*
X178284878Y-117052142D01*
X178284878Y-117052142D02*
X178284878Y-117159285D01*
X178284878Y-117159285D02*
X178320592Y-117230714D01*
X178320592Y-117230714D02*
X178356307Y-117266428D01*
X178356307Y-117266428D02*
X178427735Y-117302142D01*
X178427735Y-117302142D02*
X178606307Y-117302142D01*
X178606307Y-117302142D02*
X178677735Y-117266428D01*
X178677735Y-117266428D02*
X178713450Y-117230714D01*
X178713450Y-117230714D02*
X178749164Y-117159285D01*
X178749164Y-117159285D02*
X178749164Y-116944999D01*
X178749164Y-116944999D02*
X178713450Y-116873571D01*
X178713450Y-116873571D02*
X178677735Y-116837856D01*
X178249164Y-117945000D02*
X178749164Y-117945000D01*
X177963450Y-117766428D02*
X178499164Y-117587857D01*
X178499164Y-117587857D02*
X178499164Y-118052142D01*
X146095000Y-93447735D02*
X146130714Y-93483450D01*
X146130714Y-93483450D02*
X146237857Y-93519164D01*
X146237857Y-93519164D02*
X146309285Y-93519164D01*
X146309285Y-93519164D02*
X146416428Y-93483450D01*
X146416428Y-93483450D02*
X146487857Y-93412021D01*
X146487857Y-93412021D02*
X146523571Y-93340592D01*
X146523571Y-93340592D02*
X146559285Y-93197735D01*
X146559285Y-93197735D02*
X146559285Y-93090592D01*
X146559285Y-93090592D02*
X146523571Y-92947735D01*
X146523571Y-92947735D02*
X146487857Y-92876307D01*
X146487857Y-92876307D02*
X146416428Y-92804878D01*
X146416428Y-92804878D02*
X146309285Y-92769164D01*
X146309285Y-92769164D02*
X146237857Y-92769164D01*
X146237857Y-92769164D02*
X146130714Y-92804878D01*
X146130714Y-92804878D02*
X146095000Y-92840592D01*
X145666428Y-93090592D02*
X145737857Y-93054878D01*
X145737857Y-93054878D02*
X145773571Y-93019164D01*
X145773571Y-93019164D02*
X145809285Y-92947735D01*
X145809285Y-92947735D02*
X145809285Y-92912021D01*
X145809285Y-92912021D02*
X145773571Y-92840592D01*
X145773571Y-92840592D02*
X145737857Y-92804878D01*
X145737857Y-92804878D02*
X145666428Y-92769164D01*
X145666428Y-92769164D02*
X145523571Y-92769164D01*
X145523571Y-92769164D02*
X145452143Y-92804878D01*
X145452143Y-92804878D02*
X145416428Y-92840592D01*
X145416428Y-92840592D02*
X145380714Y-92912021D01*
X145380714Y-92912021D02*
X145380714Y-92947735D01*
X145380714Y-92947735D02*
X145416428Y-93019164D01*
X145416428Y-93019164D02*
X145452143Y-93054878D01*
X145452143Y-93054878D02*
X145523571Y-93090592D01*
X145523571Y-93090592D02*
X145666428Y-93090592D01*
X145666428Y-93090592D02*
X145737857Y-93126307D01*
X145737857Y-93126307D02*
X145773571Y-93162021D01*
X145773571Y-93162021D02*
X145809285Y-93233450D01*
X145809285Y-93233450D02*
X145809285Y-93376307D01*
X145809285Y-93376307D02*
X145773571Y-93447735D01*
X145773571Y-93447735D02*
X145737857Y-93483450D01*
X145737857Y-93483450D02*
X145666428Y-93519164D01*
X145666428Y-93519164D02*
X145523571Y-93519164D01*
X145523571Y-93519164D02*
X145452143Y-93483450D01*
X145452143Y-93483450D02*
X145416428Y-93447735D01*
X145416428Y-93447735D02*
X145380714Y-93376307D01*
X145380714Y-93376307D02*
X145380714Y-93233450D01*
X145380714Y-93233450D02*
X145416428Y-93162021D01*
X145416428Y-93162021D02*
X145452143Y-93126307D01*
X145452143Y-93126307D02*
X145523571Y-93090592D01*
X149572143Y-85517735D02*
X149607857Y-85553450D01*
X149607857Y-85553450D02*
X149715000Y-85589164D01*
X149715000Y-85589164D02*
X149786428Y-85589164D01*
X149786428Y-85589164D02*
X149893571Y-85553450D01*
X149893571Y-85553450D02*
X149965000Y-85482021D01*
X149965000Y-85482021D02*
X150000714Y-85410592D01*
X150000714Y-85410592D02*
X150036428Y-85267735D01*
X150036428Y-85267735D02*
X150036428Y-85160592D01*
X150036428Y-85160592D02*
X150000714Y-85017735D01*
X150000714Y-85017735D02*
X149965000Y-84946307D01*
X149965000Y-84946307D02*
X149893571Y-84874878D01*
X149893571Y-84874878D02*
X149786428Y-84839164D01*
X149786428Y-84839164D02*
X149715000Y-84839164D01*
X149715000Y-84839164D02*
X149607857Y-84874878D01*
X149607857Y-84874878D02*
X149572143Y-84910592D01*
X148857857Y-85589164D02*
X149286428Y-85589164D01*
X149072143Y-85589164D02*
X149072143Y-84839164D01*
X149072143Y-84839164D02*
X149143571Y-84946307D01*
X149143571Y-84946307D02*
X149215000Y-85017735D01*
X149215000Y-85017735D02*
X149286428Y-85053450D01*
X148429285Y-85160592D02*
X148500714Y-85124878D01*
X148500714Y-85124878D02*
X148536428Y-85089164D01*
X148536428Y-85089164D02*
X148572142Y-85017735D01*
X148572142Y-85017735D02*
X148572142Y-84982021D01*
X148572142Y-84982021D02*
X148536428Y-84910592D01*
X148536428Y-84910592D02*
X148500714Y-84874878D01*
X148500714Y-84874878D02*
X148429285Y-84839164D01*
X148429285Y-84839164D02*
X148286428Y-84839164D01*
X148286428Y-84839164D02*
X148215000Y-84874878D01*
X148215000Y-84874878D02*
X148179285Y-84910592D01*
X148179285Y-84910592D02*
X148143571Y-84982021D01*
X148143571Y-84982021D02*
X148143571Y-85017735D01*
X148143571Y-85017735D02*
X148179285Y-85089164D01*
X148179285Y-85089164D02*
X148215000Y-85124878D01*
X148215000Y-85124878D02*
X148286428Y-85160592D01*
X148286428Y-85160592D02*
X148429285Y-85160592D01*
X148429285Y-85160592D02*
X148500714Y-85196307D01*
X148500714Y-85196307D02*
X148536428Y-85232021D01*
X148536428Y-85232021D02*
X148572142Y-85303450D01*
X148572142Y-85303450D02*
X148572142Y-85446307D01*
X148572142Y-85446307D02*
X148536428Y-85517735D01*
X148536428Y-85517735D02*
X148500714Y-85553450D01*
X148500714Y-85553450D02*
X148429285Y-85589164D01*
X148429285Y-85589164D02*
X148286428Y-85589164D01*
X148286428Y-85589164D02*
X148215000Y-85553450D01*
X148215000Y-85553450D02*
X148179285Y-85517735D01*
X148179285Y-85517735D02*
X148143571Y-85446307D01*
X148143571Y-85446307D02*
X148143571Y-85303450D01*
X148143571Y-85303450D02*
X148179285Y-85232021D01*
X148179285Y-85232021D02*
X148215000Y-85196307D01*
X148215000Y-85196307D02*
X148286428Y-85160592D01*
X171829164Y-113629285D02*
X171079164Y-113629285D01*
X171079164Y-113629285D02*
X171079164Y-113807856D01*
X171079164Y-113807856D02*
X171114878Y-113914999D01*
X171114878Y-113914999D02*
X171186307Y-113986428D01*
X171186307Y-113986428D02*
X171257735Y-114022142D01*
X171257735Y-114022142D02*
X171400592Y-114057856D01*
X171400592Y-114057856D02*
X171507735Y-114057856D01*
X171507735Y-114057856D02*
X171650592Y-114022142D01*
X171650592Y-114022142D02*
X171722021Y-113986428D01*
X171722021Y-113986428D02*
X171793450Y-113914999D01*
X171793450Y-113914999D02*
X171829164Y-113807856D01*
X171829164Y-113807856D02*
X171829164Y-113629285D01*
X171829164Y-114772142D02*
X171829164Y-114343571D01*
X171829164Y-114557856D02*
X171079164Y-114557856D01*
X171079164Y-114557856D02*
X171186307Y-114486428D01*
X171186307Y-114486428D02*
X171257735Y-114414999D01*
X171257735Y-114414999D02*
X171293450Y-114343571D01*
X171079164Y-115236428D02*
X171079164Y-115307857D01*
X171079164Y-115307857D02*
X171114878Y-115379285D01*
X171114878Y-115379285D02*
X171150592Y-115415000D01*
X171150592Y-115415000D02*
X171222021Y-115450714D01*
X171222021Y-115450714D02*
X171364878Y-115486428D01*
X171364878Y-115486428D02*
X171543450Y-115486428D01*
X171543450Y-115486428D02*
X171686307Y-115450714D01*
X171686307Y-115450714D02*
X171757735Y-115415000D01*
X171757735Y-115415000D02*
X171793450Y-115379285D01*
X171793450Y-115379285D02*
X171829164Y-115307857D01*
X171829164Y-115307857D02*
X171829164Y-115236428D01*
X171829164Y-115236428D02*
X171793450Y-115165000D01*
X171793450Y-115165000D02*
X171757735Y-115129285D01*
X171757735Y-115129285D02*
X171686307Y-115093571D01*
X171686307Y-115093571D02*
X171543450Y-115057857D01*
X171543450Y-115057857D02*
X171364878Y-115057857D01*
X171364878Y-115057857D02*
X171222021Y-115093571D01*
X171222021Y-115093571D02*
X171150592Y-115129285D01*
X171150592Y-115129285D02*
X171114878Y-115165000D01*
X171114878Y-115165000D02*
X171079164Y-115236428D01*
X181869164Y-116577856D02*
X181512021Y-116327856D01*
X181869164Y-116149285D02*
X181119164Y-116149285D01*
X181119164Y-116149285D02*
X181119164Y-116434999D01*
X181119164Y-116434999D02*
X181154878Y-116506428D01*
X181154878Y-116506428D02*
X181190592Y-116542142D01*
X181190592Y-116542142D02*
X181262021Y-116577856D01*
X181262021Y-116577856D02*
X181369164Y-116577856D01*
X181369164Y-116577856D02*
X181440592Y-116542142D01*
X181440592Y-116542142D02*
X181476307Y-116506428D01*
X181476307Y-116506428D02*
X181512021Y-116434999D01*
X181512021Y-116434999D02*
X181512021Y-116149285D01*
X181190592Y-116863571D02*
X181154878Y-116899285D01*
X181154878Y-116899285D02*
X181119164Y-116970714D01*
X181119164Y-116970714D02*
X181119164Y-117149285D01*
X181119164Y-117149285D02*
X181154878Y-117220714D01*
X181154878Y-117220714D02*
X181190592Y-117256428D01*
X181190592Y-117256428D02*
X181262021Y-117292142D01*
X181262021Y-117292142D02*
X181333450Y-117292142D01*
X181333450Y-117292142D02*
X181440592Y-117256428D01*
X181440592Y-117256428D02*
X181869164Y-116827856D01*
X181869164Y-116827856D02*
X181869164Y-117292142D01*
X181369164Y-117935000D02*
X181869164Y-117935000D01*
X181083450Y-117756428D02*
X181619164Y-117577857D01*
X181619164Y-117577857D02*
X181619164Y-118042142D01*
X179759164Y-116577856D02*
X179402021Y-116327856D01*
X179759164Y-116149285D02*
X179009164Y-116149285D01*
X179009164Y-116149285D02*
X179009164Y-116434999D01*
X179009164Y-116434999D02*
X179044878Y-116506428D01*
X179044878Y-116506428D02*
X179080592Y-116542142D01*
X179080592Y-116542142D02*
X179152021Y-116577856D01*
X179152021Y-116577856D02*
X179259164Y-116577856D01*
X179259164Y-116577856D02*
X179330592Y-116542142D01*
X179330592Y-116542142D02*
X179366307Y-116506428D01*
X179366307Y-116506428D02*
X179402021Y-116434999D01*
X179402021Y-116434999D02*
X179402021Y-116149285D01*
X179009164Y-116827856D02*
X179009164Y-117292142D01*
X179009164Y-117292142D02*
X179294878Y-117042142D01*
X179294878Y-117042142D02*
X179294878Y-117149285D01*
X179294878Y-117149285D02*
X179330592Y-117220714D01*
X179330592Y-117220714D02*
X179366307Y-117256428D01*
X179366307Y-117256428D02*
X179437735Y-117292142D01*
X179437735Y-117292142D02*
X179616307Y-117292142D01*
X179616307Y-117292142D02*
X179687735Y-117256428D01*
X179687735Y-117256428D02*
X179723450Y-117220714D01*
X179723450Y-117220714D02*
X179759164Y-117149285D01*
X179759164Y-117149285D02*
X179759164Y-116934999D01*
X179759164Y-116934999D02*
X179723450Y-116863571D01*
X179723450Y-116863571D02*
X179687735Y-116827856D01*
X179009164Y-117970714D02*
X179009164Y-117613571D01*
X179009164Y-117613571D02*
X179366307Y-117577857D01*
X179366307Y-117577857D02*
X179330592Y-117613571D01*
X179330592Y-117613571D02*
X179294878Y-117685000D01*
X179294878Y-117685000D02*
X179294878Y-117863571D01*
X179294878Y-117863571D02*
X179330592Y-117935000D01*
X179330592Y-117935000D02*
X179366307Y-117970714D01*
X179366307Y-117970714D02*
X179437735Y-118006428D01*
X179437735Y-118006428D02*
X179616307Y-118006428D01*
X179616307Y-118006428D02*
X179687735Y-117970714D01*
X179687735Y-117970714D02*
X179723450Y-117935000D01*
X179723450Y-117935000D02*
X179759164Y-117863571D01*
X179759164Y-117863571D02*
X179759164Y-117685000D01*
X179759164Y-117685000D02*
X179723450Y-117613571D01*
X179723450Y-117613571D02*
X179687735Y-117577857D01*
X191109164Y-119817856D02*
X190752021Y-119567856D01*
X191109164Y-119389285D02*
X190359164Y-119389285D01*
X190359164Y-119389285D02*
X190359164Y-119674999D01*
X190359164Y-119674999D02*
X190394878Y-119746428D01*
X190394878Y-119746428D02*
X190430592Y-119782142D01*
X190430592Y-119782142D02*
X190502021Y-119817856D01*
X190502021Y-119817856D02*
X190609164Y-119817856D01*
X190609164Y-119817856D02*
X190680592Y-119782142D01*
X190680592Y-119782142D02*
X190716307Y-119746428D01*
X190716307Y-119746428D02*
X190752021Y-119674999D01*
X190752021Y-119674999D02*
X190752021Y-119389285D01*
X190609164Y-120460714D02*
X191109164Y-120460714D01*
X190323450Y-120282142D02*
X190859164Y-120103571D01*
X190859164Y-120103571D02*
X190859164Y-120567856D01*
X190359164Y-120996428D02*
X190359164Y-121067857D01*
X190359164Y-121067857D02*
X190394878Y-121139285D01*
X190394878Y-121139285D02*
X190430592Y-121175000D01*
X190430592Y-121175000D02*
X190502021Y-121210714D01*
X190502021Y-121210714D02*
X190644878Y-121246428D01*
X190644878Y-121246428D02*
X190823450Y-121246428D01*
X190823450Y-121246428D02*
X190966307Y-121210714D01*
X190966307Y-121210714D02*
X191037735Y-121175000D01*
X191037735Y-121175000D02*
X191073450Y-121139285D01*
X191073450Y-121139285D02*
X191109164Y-121067857D01*
X191109164Y-121067857D02*
X191109164Y-120996428D01*
X191109164Y-120996428D02*
X191073450Y-120925000D01*
X191073450Y-120925000D02*
X191037735Y-120889285D01*
X191037735Y-120889285D02*
X190966307Y-120853571D01*
X190966307Y-120853571D02*
X190823450Y-120817857D01*
X190823450Y-120817857D02*
X190644878Y-120817857D01*
X190644878Y-120817857D02*
X190502021Y-120853571D01*
X190502021Y-120853571D02*
X190430592Y-120889285D01*
X190430592Y-120889285D02*
X190394878Y-120925000D01*
X190394878Y-120925000D02*
X190359164Y-120996428D01*
X180809164Y-116577856D02*
X180452021Y-116327856D01*
X180809164Y-116149285D02*
X180059164Y-116149285D01*
X180059164Y-116149285D02*
X180059164Y-116434999D01*
X180059164Y-116434999D02*
X180094878Y-116506428D01*
X180094878Y-116506428D02*
X180130592Y-116542142D01*
X180130592Y-116542142D02*
X180202021Y-116577856D01*
X180202021Y-116577856D02*
X180309164Y-116577856D01*
X180309164Y-116577856D02*
X180380592Y-116542142D01*
X180380592Y-116542142D02*
X180416307Y-116506428D01*
X180416307Y-116506428D02*
X180452021Y-116434999D01*
X180452021Y-116434999D02*
X180452021Y-116149285D01*
X180059164Y-116827856D02*
X180059164Y-117292142D01*
X180059164Y-117292142D02*
X180344878Y-117042142D01*
X180344878Y-117042142D02*
X180344878Y-117149285D01*
X180344878Y-117149285D02*
X180380592Y-117220714D01*
X180380592Y-117220714D02*
X180416307Y-117256428D01*
X180416307Y-117256428D02*
X180487735Y-117292142D01*
X180487735Y-117292142D02*
X180666307Y-117292142D01*
X180666307Y-117292142D02*
X180737735Y-117256428D01*
X180737735Y-117256428D02*
X180773450Y-117220714D01*
X180773450Y-117220714D02*
X180809164Y-117149285D01*
X180809164Y-117149285D02*
X180809164Y-116934999D01*
X180809164Y-116934999D02*
X180773450Y-116863571D01*
X180773450Y-116863571D02*
X180737735Y-116827856D01*
X180059164Y-117542142D02*
X180059164Y-118006428D01*
X180059164Y-118006428D02*
X180344878Y-117756428D01*
X180344878Y-117756428D02*
X180344878Y-117863571D01*
X180344878Y-117863571D02*
X180380592Y-117935000D01*
X180380592Y-117935000D02*
X180416307Y-117970714D01*
X180416307Y-117970714D02*
X180487735Y-118006428D01*
X180487735Y-118006428D02*
X180666307Y-118006428D01*
X180666307Y-118006428D02*
X180737735Y-117970714D01*
X180737735Y-117970714D02*
X180773450Y-117935000D01*
X180773450Y-117935000D02*
X180809164Y-117863571D01*
X180809164Y-117863571D02*
X180809164Y-117649285D01*
X180809164Y-117649285D02*
X180773450Y-117577857D01*
X180773450Y-117577857D02*
X180737735Y-117542142D01*
X153264999Y-93329164D02*
X153622142Y-93329164D01*
X153622142Y-93329164D02*
X153622142Y-92579164D01*
X153050713Y-92650592D02*
X153014999Y-92614878D01*
X153014999Y-92614878D02*
X152943571Y-92579164D01*
X152943571Y-92579164D02*
X152764999Y-92579164D01*
X152764999Y-92579164D02*
X152693571Y-92614878D01*
X152693571Y-92614878D02*
X152657856Y-92650592D01*
X152657856Y-92650592D02*
X152622142Y-92722021D01*
X152622142Y-92722021D02*
X152622142Y-92793450D01*
X152622142Y-92793450D02*
X152657856Y-92900592D01*
X152657856Y-92900592D02*
X153086428Y-93329164D01*
X153086428Y-93329164D02*
X152622142Y-93329164D01*
X191184164Y-109979999D02*
X190827021Y-109729999D01*
X191184164Y-109551428D02*
X190434164Y-109551428D01*
X190434164Y-109551428D02*
X190434164Y-109837142D01*
X190434164Y-109837142D02*
X190469878Y-109908571D01*
X190469878Y-109908571D02*
X190505592Y-109944285D01*
X190505592Y-109944285D02*
X190577021Y-109979999D01*
X190577021Y-109979999D02*
X190684164Y-109979999D01*
X190684164Y-109979999D02*
X190755592Y-109944285D01*
X190755592Y-109944285D02*
X190791307Y-109908571D01*
X190791307Y-109908571D02*
X190827021Y-109837142D01*
X190827021Y-109837142D02*
X190827021Y-109551428D01*
X190434164Y-110229999D02*
X190434164Y-110694285D01*
X190434164Y-110694285D02*
X190719878Y-110444285D01*
X190719878Y-110444285D02*
X190719878Y-110551428D01*
X190719878Y-110551428D02*
X190755592Y-110622857D01*
X190755592Y-110622857D02*
X190791307Y-110658571D01*
X190791307Y-110658571D02*
X190862735Y-110694285D01*
X190862735Y-110694285D02*
X191041307Y-110694285D01*
X191041307Y-110694285D02*
X191112735Y-110658571D01*
X191112735Y-110658571D02*
X191148450Y-110622857D01*
X191148450Y-110622857D02*
X191184164Y-110551428D01*
X191184164Y-110551428D02*
X191184164Y-110337142D01*
X191184164Y-110337142D02*
X191148450Y-110265714D01*
X191148450Y-110265714D02*
X191112735Y-110229999D01*
X172691428Y-94331664D02*
X172691428Y-94938807D01*
X172691428Y-94938807D02*
X172655714Y-95010235D01*
X172655714Y-95010235D02*
X172620000Y-95045950D01*
X172620000Y-95045950D02*
X172548571Y-95081664D01*
X172548571Y-95081664D02*
X172405714Y-95081664D01*
X172405714Y-95081664D02*
X172334285Y-95045950D01*
X172334285Y-95045950D02*
X172298571Y-95010235D01*
X172298571Y-95010235D02*
X172262857Y-94938807D01*
X172262857Y-94938807D02*
X172262857Y-94331664D01*
X171512857Y-95081664D02*
X171941428Y-95081664D01*
X171727143Y-95081664D02*
X171727143Y-94331664D01*
X171727143Y-94331664D02*
X171798571Y-94438807D01*
X171798571Y-94438807D02*
X171870000Y-94510235D01*
X171870000Y-94510235D02*
X171941428Y-94545950D01*
X192491428Y-91510592D02*
X192562857Y-91474878D01*
X192562857Y-91474878D02*
X192634285Y-91403450D01*
X192634285Y-91403450D02*
X192741428Y-91296307D01*
X192741428Y-91296307D02*
X192812857Y-91260592D01*
X192812857Y-91260592D02*
X192884285Y-91260592D01*
X192848571Y-91439164D02*
X192920000Y-91403450D01*
X192920000Y-91403450D02*
X192991428Y-91332021D01*
X192991428Y-91332021D02*
X193027142Y-91189164D01*
X193027142Y-91189164D02*
X193027142Y-90939164D01*
X193027142Y-90939164D02*
X192991428Y-90796307D01*
X192991428Y-90796307D02*
X192920000Y-90724878D01*
X192920000Y-90724878D02*
X192848571Y-90689164D01*
X192848571Y-90689164D02*
X192705714Y-90689164D01*
X192705714Y-90689164D02*
X192634285Y-90724878D01*
X192634285Y-90724878D02*
X192562857Y-90796307D01*
X192562857Y-90796307D02*
X192527142Y-90939164D01*
X192527142Y-90939164D02*
X192527142Y-91189164D01*
X192527142Y-91189164D02*
X192562857Y-91332021D01*
X192562857Y-91332021D02*
X192634285Y-91403450D01*
X192634285Y-91403450D02*
X192705714Y-91439164D01*
X192705714Y-91439164D02*
X192848571Y-91439164D01*
X191812857Y-91439164D02*
X192241428Y-91439164D01*
X192027143Y-91439164D02*
X192027143Y-90689164D01*
X192027143Y-90689164D02*
X192098571Y-90796307D01*
X192098571Y-90796307D02*
X192170000Y-90867735D01*
X192170000Y-90867735D02*
X192241428Y-90903450D01*
X190292143Y-100389164D02*
X190542143Y-100032021D01*
X190720714Y-100389164D02*
X190720714Y-99639164D01*
X190720714Y-99639164D02*
X190435000Y-99639164D01*
X190435000Y-99639164D02*
X190363571Y-99674878D01*
X190363571Y-99674878D02*
X190327857Y-99710592D01*
X190327857Y-99710592D02*
X190292143Y-99782021D01*
X190292143Y-99782021D02*
X190292143Y-99889164D01*
X190292143Y-99889164D02*
X190327857Y-99960592D01*
X190327857Y-99960592D02*
X190363571Y-99996307D01*
X190363571Y-99996307D02*
X190435000Y-100032021D01*
X190435000Y-100032021D02*
X190720714Y-100032021D01*
X190006428Y-99710592D02*
X189970714Y-99674878D01*
X189970714Y-99674878D02*
X189899286Y-99639164D01*
X189899286Y-99639164D02*
X189720714Y-99639164D01*
X189720714Y-99639164D02*
X189649286Y-99674878D01*
X189649286Y-99674878D02*
X189613571Y-99710592D01*
X189613571Y-99710592D02*
X189577857Y-99782021D01*
X189577857Y-99782021D02*
X189577857Y-99853450D01*
X189577857Y-99853450D02*
X189613571Y-99960592D01*
X189613571Y-99960592D02*
X190042143Y-100389164D01*
X190042143Y-100389164D02*
X189577857Y-100389164D01*
X189220714Y-100389164D02*
X189077857Y-100389164D01*
X189077857Y-100389164D02*
X189006428Y-100353450D01*
X189006428Y-100353450D02*
X188970714Y-100317735D01*
X188970714Y-100317735D02*
X188899285Y-100210592D01*
X188899285Y-100210592D02*
X188863571Y-100067735D01*
X188863571Y-100067735D02*
X188863571Y-99782021D01*
X188863571Y-99782021D02*
X188899285Y-99710592D01*
X188899285Y-99710592D02*
X188935000Y-99674878D01*
X188935000Y-99674878D02*
X189006428Y-99639164D01*
X189006428Y-99639164D02*
X189149285Y-99639164D01*
X189149285Y-99639164D02*
X189220714Y-99674878D01*
X189220714Y-99674878D02*
X189256428Y-99710592D01*
X189256428Y-99710592D02*
X189292142Y-99782021D01*
X189292142Y-99782021D02*
X189292142Y-99960592D01*
X189292142Y-99960592D02*
X189256428Y-100032021D01*
X189256428Y-100032021D02*
X189220714Y-100067735D01*
X189220714Y-100067735D02*
X189149285Y-100103450D01*
X189149285Y-100103450D02*
X189006428Y-100103450D01*
X189006428Y-100103450D02*
X188935000Y-100067735D01*
X188935000Y-100067735D02*
X188899285Y-100032021D01*
X188899285Y-100032021D02*
X188863571Y-99960592D01*
X136179164Y-119647856D02*
X135822021Y-119397856D01*
X136179164Y-119219285D02*
X135429164Y-119219285D01*
X135429164Y-119219285D02*
X135429164Y-119504999D01*
X135429164Y-119504999D02*
X135464878Y-119576428D01*
X135464878Y-119576428D02*
X135500592Y-119612142D01*
X135500592Y-119612142D02*
X135572021Y-119647856D01*
X135572021Y-119647856D02*
X135679164Y-119647856D01*
X135679164Y-119647856D02*
X135750592Y-119612142D01*
X135750592Y-119612142D02*
X135786307Y-119576428D01*
X135786307Y-119576428D02*
X135822021Y-119504999D01*
X135822021Y-119504999D02*
X135822021Y-119219285D01*
X135679164Y-120290714D02*
X136179164Y-120290714D01*
X135393450Y-120112142D02*
X135929164Y-119933571D01*
X135929164Y-119933571D02*
X135929164Y-120397856D01*
X135750592Y-120790714D02*
X135714878Y-120719285D01*
X135714878Y-120719285D02*
X135679164Y-120683571D01*
X135679164Y-120683571D02*
X135607735Y-120647857D01*
X135607735Y-120647857D02*
X135572021Y-120647857D01*
X135572021Y-120647857D02*
X135500592Y-120683571D01*
X135500592Y-120683571D02*
X135464878Y-120719285D01*
X135464878Y-120719285D02*
X135429164Y-120790714D01*
X135429164Y-120790714D02*
X135429164Y-120933571D01*
X135429164Y-120933571D02*
X135464878Y-121005000D01*
X135464878Y-121005000D02*
X135500592Y-121040714D01*
X135500592Y-121040714D02*
X135572021Y-121076428D01*
X135572021Y-121076428D02*
X135607735Y-121076428D01*
X135607735Y-121076428D02*
X135679164Y-121040714D01*
X135679164Y-121040714D02*
X135714878Y-121005000D01*
X135714878Y-121005000D02*
X135750592Y-120933571D01*
X135750592Y-120933571D02*
X135750592Y-120790714D01*
X135750592Y-120790714D02*
X135786307Y-120719285D01*
X135786307Y-120719285D02*
X135822021Y-120683571D01*
X135822021Y-120683571D02*
X135893450Y-120647857D01*
X135893450Y-120647857D02*
X136036307Y-120647857D01*
X136036307Y-120647857D02*
X136107735Y-120683571D01*
X136107735Y-120683571D02*
X136143450Y-120719285D01*
X136143450Y-120719285D02*
X136179164Y-120790714D01*
X136179164Y-120790714D02*
X136179164Y-120933571D01*
X136179164Y-120933571D02*
X136143450Y-121005000D01*
X136143450Y-121005000D02*
X136107735Y-121040714D01*
X136107735Y-121040714D02*
X136036307Y-121076428D01*
X136036307Y-121076428D02*
X135893450Y-121076428D01*
X135893450Y-121076428D02*
X135822021Y-121040714D01*
X135822021Y-121040714D02*
X135786307Y-121005000D01*
X135786307Y-121005000D02*
X135750592Y-120933571D01*
X150782143Y-87757735D02*
X150817857Y-87793450D01*
X150817857Y-87793450D02*
X150925000Y-87829164D01*
X150925000Y-87829164D02*
X150996428Y-87829164D01*
X150996428Y-87829164D02*
X151103571Y-87793450D01*
X151103571Y-87793450D02*
X151175000Y-87722021D01*
X151175000Y-87722021D02*
X151210714Y-87650592D01*
X151210714Y-87650592D02*
X151246428Y-87507735D01*
X151246428Y-87507735D02*
X151246428Y-87400592D01*
X151246428Y-87400592D02*
X151210714Y-87257735D01*
X151210714Y-87257735D02*
X151175000Y-87186307D01*
X151175000Y-87186307D02*
X151103571Y-87114878D01*
X151103571Y-87114878D02*
X150996428Y-87079164D01*
X150996428Y-87079164D02*
X150925000Y-87079164D01*
X150925000Y-87079164D02*
X150817857Y-87114878D01*
X150817857Y-87114878D02*
X150782143Y-87150592D01*
X150067857Y-87829164D02*
X150496428Y-87829164D01*
X150282143Y-87829164D02*
X150282143Y-87079164D01*
X150282143Y-87079164D02*
X150353571Y-87186307D01*
X150353571Y-87186307D02*
X150425000Y-87257735D01*
X150425000Y-87257735D02*
X150496428Y-87293450D01*
X149817857Y-87079164D02*
X149317857Y-87079164D01*
X149317857Y-87079164D02*
X149639285Y-87829164D01*
X143842143Y-91829164D02*
X144092143Y-91472021D01*
X144270714Y-91829164D02*
X144270714Y-91079164D01*
X144270714Y-91079164D02*
X143985000Y-91079164D01*
X143985000Y-91079164D02*
X143913571Y-91114878D01*
X143913571Y-91114878D02*
X143877857Y-91150592D01*
X143877857Y-91150592D02*
X143842143Y-91222021D01*
X143842143Y-91222021D02*
X143842143Y-91329164D01*
X143842143Y-91329164D02*
X143877857Y-91400592D01*
X143877857Y-91400592D02*
X143913571Y-91436307D01*
X143913571Y-91436307D02*
X143985000Y-91472021D01*
X143985000Y-91472021D02*
X144270714Y-91472021D01*
X143127857Y-91829164D02*
X143556428Y-91829164D01*
X143342143Y-91829164D02*
X143342143Y-91079164D01*
X143342143Y-91079164D02*
X143413571Y-91186307D01*
X143413571Y-91186307D02*
X143485000Y-91257735D01*
X143485000Y-91257735D02*
X143556428Y-91293450D01*
X142485000Y-91079164D02*
X142627857Y-91079164D01*
X142627857Y-91079164D02*
X142699285Y-91114878D01*
X142699285Y-91114878D02*
X142735000Y-91150592D01*
X142735000Y-91150592D02*
X142806428Y-91257735D01*
X142806428Y-91257735D02*
X142842142Y-91400592D01*
X142842142Y-91400592D02*
X142842142Y-91686307D01*
X142842142Y-91686307D02*
X142806428Y-91757735D01*
X142806428Y-91757735D02*
X142770714Y-91793450D01*
X142770714Y-91793450D02*
X142699285Y-91829164D01*
X142699285Y-91829164D02*
X142556428Y-91829164D01*
X142556428Y-91829164D02*
X142485000Y-91793450D01*
X142485000Y-91793450D02*
X142449285Y-91757735D01*
X142449285Y-91757735D02*
X142413571Y-91686307D01*
X142413571Y-91686307D02*
X142413571Y-91507735D01*
X142413571Y-91507735D02*
X142449285Y-91436307D01*
X142449285Y-91436307D02*
X142485000Y-91400592D01*
X142485000Y-91400592D02*
X142556428Y-91364878D01*
X142556428Y-91364878D02*
X142699285Y-91364878D01*
X142699285Y-91364878D02*
X142770714Y-91400592D01*
X142770714Y-91400592D02*
X142806428Y-91436307D01*
X142806428Y-91436307D02*
X142842142Y-91507735D01*
X192734999Y-103719164D02*
X193092142Y-103719164D01*
X193092142Y-103719164D02*
X193092142Y-102969164D01*
X192163571Y-103219164D02*
X192163571Y-103719164D01*
X192342142Y-102933450D02*
X192520713Y-103469164D01*
X192520713Y-103469164D02*
X192056428Y-103469164D01*
X189485000Y-95799164D02*
X189735000Y-95442021D01*
X189913571Y-95799164D02*
X189913571Y-95049164D01*
X189913571Y-95049164D02*
X189627857Y-95049164D01*
X189627857Y-95049164D02*
X189556428Y-95084878D01*
X189556428Y-95084878D02*
X189520714Y-95120592D01*
X189520714Y-95120592D02*
X189485000Y-95192021D01*
X189485000Y-95192021D02*
X189485000Y-95299164D01*
X189485000Y-95299164D02*
X189520714Y-95370592D01*
X189520714Y-95370592D02*
X189556428Y-95406307D01*
X189556428Y-95406307D02*
X189627857Y-95442021D01*
X189627857Y-95442021D02*
X189913571Y-95442021D01*
X188806428Y-95049164D02*
X189163571Y-95049164D01*
X189163571Y-95049164D02*
X189199285Y-95406307D01*
X189199285Y-95406307D02*
X189163571Y-95370592D01*
X189163571Y-95370592D02*
X189092143Y-95334878D01*
X189092143Y-95334878D02*
X188913571Y-95334878D01*
X188913571Y-95334878D02*
X188842143Y-95370592D01*
X188842143Y-95370592D02*
X188806428Y-95406307D01*
X188806428Y-95406307D02*
X188770714Y-95477735D01*
X188770714Y-95477735D02*
X188770714Y-95656307D01*
X188770714Y-95656307D02*
X188806428Y-95727735D01*
X188806428Y-95727735D02*
X188842143Y-95763450D01*
X188842143Y-95763450D02*
X188913571Y-95799164D01*
X188913571Y-95799164D02*
X189092143Y-95799164D01*
X189092143Y-95799164D02*
X189163571Y-95763450D01*
X189163571Y-95763450D02*
X189199285Y-95727735D01*
X190312143Y-99267735D02*
X190347857Y-99303450D01*
X190347857Y-99303450D02*
X190455000Y-99339164D01*
X190455000Y-99339164D02*
X190526428Y-99339164D01*
X190526428Y-99339164D02*
X190633571Y-99303450D01*
X190633571Y-99303450D02*
X190705000Y-99232021D01*
X190705000Y-99232021D02*
X190740714Y-99160592D01*
X190740714Y-99160592D02*
X190776428Y-99017735D01*
X190776428Y-99017735D02*
X190776428Y-98910592D01*
X190776428Y-98910592D02*
X190740714Y-98767735D01*
X190740714Y-98767735D02*
X190705000Y-98696307D01*
X190705000Y-98696307D02*
X190633571Y-98624878D01*
X190633571Y-98624878D02*
X190526428Y-98589164D01*
X190526428Y-98589164D02*
X190455000Y-98589164D01*
X190455000Y-98589164D02*
X190347857Y-98624878D01*
X190347857Y-98624878D02*
X190312143Y-98660592D01*
X190026428Y-98660592D02*
X189990714Y-98624878D01*
X189990714Y-98624878D02*
X189919286Y-98589164D01*
X189919286Y-98589164D02*
X189740714Y-98589164D01*
X189740714Y-98589164D02*
X189669286Y-98624878D01*
X189669286Y-98624878D02*
X189633571Y-98660592D01*
X189633571Y-98660592D02*
X189597857Y-98732021D01*
X189597857Y-98732021D02*
X189597857Y-98803450D01*
X189597857Y-98803450D02*
X189633571Y-98910592D01*
X189633571Y-98910592D02*
X190062143Y-99339164D01*
X190062143Y-99339164D02*
X189597857Y-99339164D01*
X189169285Y-98910592D02*
X189240714Y-98874878D01*
X189240714Y-98874878D02*
X189276428Y-98839164D01*
X189276428Y-98839164D02*
X189312142Y-98767735D01*
X189312142Y-98767735D02*
X189312142Y-98732021D01*
X189312142Y-98732021D02*
X189276428Y-98660592D01*
X189276428Y-98660592D02*
X189240714Y-98624878D01*
X189240714Y-98624878D02*
X189169285Y-98589164D01*
X189169285Y-98589164D02*
X189026428Y-98589164D01*
X189026428Y-98589164D02*
X188955000Y-98624878D01*
X188955000Y-98624878D02*
X188919285Y-98660592D01*
X188919285Y-98660592D02*
X188883571Y-98732021D01*
X188883571Y-98732021D02*
X188883571Y-98767735D01*
X188883571Y-98767735D02*
X188919285Y-98839164D01*
X188919285Y-98839164D02*
X188955000Y-98874878D01*
X188955000Y-98874878D02*
X189026428Y-98910592D01*
X189026428Y-98910592D02*
X189169285Y-98910592D01*
X189169285Y-98910592D02*
X189240714Y-98946307D01*
X189240714Y-98946307D02*
X189276428Y-98982021D01*
X189276428Y-98982021D02*
X189312142Y-99053450D01*
X189312142Y-99053450D02*
X189312142Y-99196307D01*
X189312142Y-99196307D02*
X189276428Y-99267735D01*
X189276428Y-99267735D02*
X189240714Y-99303450D01*
X189240714Y-99303450D02*
X189169285Y-99339164D01*
X189169285Y-99339164D02*
X189026428Y-99339164D01*
X189026428Y-99339164D02*
X188955000Y-99303450D01*
X188955000Y-99303450D02*
X188919285Y-99267735D01*
X188919285Y-99267735D02*
X188883571Y-99196307D01*
X188883571Y-99196307D02*
X188883571Y-99053450D01*
X188883571Y-99053450D02*
X188919285Y-98982021D01*
X188919285Y-98982021D02*
X188955000Y-98946307D01*
X188955000Y-98946307D02*
X189026428Y-98910592D01*
X188997735Y-86377856D02*
X189033450Y-86342142D01*
X189033450Y-86342142D02*
X189069164Y-86234999D01*
X189069164Y-86234999D02*
X189069164Y-86163571D01*
X189069164Y-86163571D02*
X189033450Y-86056428D01*
X189033450Y-86056428D02*
X188962021Y-85984999D01*
X188962021Y-85984999D02*
X188890592Y-85949285D01*
X188890592Y-85949285D02*
X188747735Y-85913571D01*
X188747735Y-85913571D02*
X188640592Y-85913571D01*
X188640592Y-85913571D02*
X188497735Y-85949285D01*
X188497735Y-85949285D02*
X188426307Y-85984999D01*
X188426307Y-85984999D02*
X188354878Y-86056428D01*
X188354878Y-86056428D02*
X188319164Y-86163571D01*
X188319164Y-86163571D02*
X188319164Y-86234999D01*
X188319164Y-86234999D02*
X188354878Y-86342142D01*
X188354878Y-86342142D02*
X188390592Y-86377856D01*
X188390592Y-86663571D02*
X188354878Y-86699285D01*
X188354878Y-86699285D02*
X188319164Y-86770714D01*
X188319164Y-86770714D02*
X188319164Y-86949285D01*
X188319164Y-86949285D02*
X188354878Y-87020714D01*
X188354878Y-87020714D02*
X188390592Y-87056428D01*
X188390592Y-87056428D02*
X188462021Y-87092142D01*
X188462021Y-87092142D02*
X188533450Y-87092142D01*
X188533450Y-87092142D02*
X188640592Y-87056428D01*
X188640592Y-87056428D02*
X189069164Y-86627856D01*
X189069164Y-86627856D02*
X189069164Y-87092142D01*
X189069164Y-87806428D02*
X189069164Y-87377857D01*
X189069164Y-87592142D02*
X188319164Y-87592142D01*
X188319164Y-87592142D02*
X188426307Y-87520714D01*
X188426307Y-87520714D02*
X188497735Y-87449285D01*
X188497735Y-87449285D02*
X188533450Y-87377857D01*
X181273092Y-112003571D02*
X181237378Y-111932142D01*
X181237378Y-111932142D02*
X181165950Y-111860714D01*
X181165950Y-111860714D02*
X181058807Y-111753571D01*
X181058807Y-111753571D02*
X181023092Y-111682142D01*
X181023092Y-111682142D02*
X181023092Y-111610714D01*
X181201664Y-111646428D02*
X181165950Y-111575000D01*
X181165950Y-111575000D02*
X181094521Y-111503571D01*
X181094521Y-111503571D02*
X180951664Y-111467857D01*
X180951664Y-111467857D02*
X180701664Y-111467857D01*
X180701664Y-111467857D02*
X180558807Y-111503571D01*
X180558807Y-111503571D02*
X180487378Y-111575000D01*
X180487378Y-111575000D02*
X180451664Y-111646428D01*
X180451664Y-111646428D02*
X180451664Y-111789285D01*
X180451664Y-111789285D02*
X180487378Y-111860714D01*
X180487378Y-111860714D02*
X180558807Y-111932142D01*
X180558807Y-111932142D02*
X180701664Y-111967857D01*
X180701664Y-111967857D02*
X180951664Y-111967857D01*
X180951664Y-111967857D02*
X181094521Y-111932142D01*
X181094521Y-111932142D02*
X181165950Y-111860714D01*
X181165950Y-111860714D02*
X181201664Y-111789285D01*
X181201664Y-111789285D02*
X181201664Y-111646428D01*
X180451664Y-112646428D02*
X180451664Y-112289285D01*
X180451664Y-112289285D02*
X180808807Y-112253571D01*
X180808807Y-112253571D02*
X180773092Y-112289285D01*
X180773092Y-112289285D02*
X180737378Y-112360714D01*
X180737378Y-112360714D02*
X180737378Y-112539285D01*
X180737378Y-112539285D02*
X180773092Y-112610714D01*
X180773092Y-112610714D02*
X180808807Y-112646428D01*
X180808807Y-112646428D02*
X180880235Y-112682142D01*
X180880235Y-112682142D02*
X181058807Y-112682142D01*
X181058807Y-112682142D02*
X181130235Y-112646428D01*
X181130235Y-112646428D02*
X181165950Y-112610714D01*
X181165950Y-112610714D02*
X181201664Y-112539285D01*
X181201664Y-112539285D02*
X181201664Y-112360714D01*
X181201664Y-112360714D02*
X181165950Y-112289285D01*
X181165950Y-112289285D02*
X181130235Y-112253571D01*
X191089164Y-113414999D02*
X190732021Y-113164999D01*
X191089164Y-112986428D02*
X190339164Y-112986428D01*
X190339164Y-112986428D02*
X190339164Y-113272142D01*
X190339164Y-113272142D02*
X190374878Y-113343571D01*
X190374878Y-113343571D02*
X190410592Y-113379285D01*
X190410592Y-113379285D02*
X190482021Y-113414999D01*
X190482021Y-113414999D02*
X190589164Y-113414999D01*
X190589164Y-113414999D02*
X190660592Y-113379285D01*
X190660592Y-113379285D02*
X190696307Y-113343571D01*
X190696307Y-113343571D02*
X190732021Y-113272142D01*
X190732021Y-113272142D02*
X190732021Y-112986428D01*
X191089164Y-114129285D02*
X191089164Y-113700714D01*
X191089164Y-113914999D02*
X190339164Y-113914999D01*
X190339164Y-113914999D02*
X190446307Y-113843571D01*
X190446307Y-113843571D02*
X190517735Y-113772142D01*
X190517735Y-113772142D02*
X190553450Y-113700714D01*
X143852143Y-90779164D02*
X144102143Y-90422021D01*
X144280714Y-90779164D02*
X144280714Y-90029164D01*
X144280714Y-90029164D02*
X143995000Y-90029164D01*
X143995000Y-90029164D02*
X143923571Y-90064878D01*
X143923571Y-90064878D02*
X143887857Y-90100592D01*
X143887857Y-90100592D02*
X143852143Y-90172021D01*
X143852143Y-90172021D02*
X143852143Y-90279164D01*
X143852143Y-90279164D02*
X143887857Y-90350592D01*
X143887857Y-90350592D02*
X143923571Y-90386307D01*
X143923571Y-90386307D02*
X143995000Y-90422021D01*
X143995000Y-90422021D02*
X144280714Y-90422021D01*
X143137857Y-90779164D02*
X143566428Y-90779164D01*
X143352143Y-90779164D02*
X143352143Y-90029164D01*
X143352143Y-90029164D02*
X143423571Y-90136307D01*
X143423571Y-90136307D02*
X143495000Y-90207735D01*
X143495000Y-90207735D02*
X143566428Y-90243450D01*
X142852142Y-90100592D02*
X142816428Y-90064878D01*
X142816428Y-90064878D02*
X142745000Y-90029164D01*
X142745000Y-90029164D02*
X142566428Y-90029164D01*
X142566428Y-90029164D02*
X142495000Y-90064878D01*
X142495000Y-90064878D02*
X142459285Y-90100592D01*
X142459285Y-90100592D02*
X142423571Y-90172021D01*
X142423571Y-90172021D02*
X142423571Y-90243450D01*
X142423571Y-90243450D02*
X142459285Y-90350592D01*
X142459285Y-90350592D02*
X142887857Y-90779164D01*
X142887857Y-90779164D02*
X142423571Y-90779164D01*
X155587735Y-81697856D02*
X155623450Y-81662142D01*
X155623450Y-81662142D02*
X155659164Y-81554999D01*
X155659164Y-81554999D02*
X155659164Y-81483571D01*
X155659164Y-81483571D02*
X155623450Y-81376428D01*
X155623450Y-81376428D02*
X155552021Y-81304999D01*
X155552021Y-81304999D02*
X155480592Y-81269285D01*
X155480592Y-81269285D02*
X155337735Y-81233571D01*
X155337735Y-81233571D02*
X155230592Y-81233571D01*
X155230592Y-81233571D02*
X155087735Y-81269285D01*
X155087735Y-81269285D02*
X155016307Y-81304999D01*
X155016307Y-81304999D02*
X154944878Y-81376428D01*
X154944878Y-81376428D02*
X154909164Y-81483571D01*
X154909164Y-81483571D02*
X154909164Y-81554999D01*
X154909164Y-81554999D02*
X154944878Y-81662142D01*
X154944878Y-81662142D02*
X154980592Y-81697856D01*
X154980592Y-81983571D02*
X154944878Y-82019285D01*
X154944878Y-82019285D02*
X154909164Y-82090714D01*
X154909164Y-82090714D02*
X154909164Y-82269285D01*
X154909164Y-82269285D02*
X154944878Y-82340714D01*
X154944878Y-82340714D02*
X154980592Y-82376428D01*
X154980592Y-82376428D02*
X155052021Y-82412142D01*
X155052021Y-82412142D02*
X155123450Y-82412142D01*
X155123450Y-82412142D02*
X155230592Y-82376428D01*
X155230592Y-82376428D02*
X155659164Y-81947856D01*
X155659164Y-81947856D02*
X155659164Y-82412142D01*
X154909164Y-82876428D02*
X154909164Y-82947857D01*
X154909164Y-82947857D02*
X154944878Y-83019285D01*
X154944878Y-83019285D02*
X154980592Y-83055000D01*
X154980592Y-83055000D02*
X155052021Y-83090714D01*
X155052021Y-83090714D02*
X155194878Y-83126428D01*
X155194878Y-83126428D02*
X155373450Y-83126428D01*
X155373450Y-83126428D02*
X155516307Y-83090714D01*
X155516307Y-83090714D02*
X155587735Y-83055000D01*
X155587735Y-83055000D02*
X155623450Y-83019285D01*
X155623450Y-83019285D02*
X155659164Y-82947857D01*
X155659164Y-82947857D02*
X155659164Y-82876428D01*
X155659164Y-82876428D02*
X155623450Y-82805000D01*
X155623450Y-82805000D02*
X155587735Y-82769285D01*
X155587735Y-82769285D02*
X155516307Y-82733571D01*
X155516307Y-82733571D02*
X155373450Y-82697857D01*
X155373450Y-82697857D02*
X155194878Y-82697857D01*
X155194878Y-82697857D02*
X155052021Y-82733571D01*
X155052021Y-82733571D02*
X154980592Y-82769285D01*
X154980592Y-82769285D02*
X154944878Y-82805000D01*
X154944878Y-82805000D02*
X154909164Y-82876428D01*
D12*
%TO.C,R41*%
X191395000Y-116771359D02*
X191395000Y-117078641D01*
X192155000Y-116771359D02*
X192155000Y-117078641D01*
%TO.C,R46*%
X136645000Y-122121359D02*
X136645000Y-122428641D01*
X137405000Y-122121359D02*
X137405000Y-122428641D01*
%TO.C,R47*%
X130320000Y-120403641D02*
X130320000Y-120096359D01*
X131080000Y-120403641D02*
X131080000Y-120096359D01*
%TO.C,C26*%
X190357836Y-101890000D02*
X190142164Y-101890000D01*
X190357836Y-102610000D02*
X190142164Y-102610000D01*
%TO.C,D8*%
X192390000Y-125185000D02*
X192390000Y-122900000D01*
X193860000Y-122900000D02*
X193860000Y-125185000D01*
X193860000Y-125185000D02*
X192390000Y-125185000D01*
D13*
%TO.C,U5*%
X147725000Y-88850000D02*
X149525000Y-88850000D01*
X147725000Y-91950000D02*
X149525000Y-91950000D01*
X150155000Y-88750000D02*
G75*
G02*
X149895000Y-88750000I-130000J0D01*
G01*
X149895000Y-88750000D02*
G75*
G02*
X150155000Y-88750000I130000J0D01*
G01*
D12*
%TO.C,R36*%
X191395000Y-123546359D02*
X191395000Y-123853641D01*
X192155000Y-123546359D02*
X192155000Y-123853641D01*
%TO.C,TP10*%
X190850000Y-83275000D02*
G75*
G02*
X189450000Y-83275000I-700000J0D01*
G01*
X189450000Y-83275000D02*
G75*
G02*
X190850000Y-83275000I700000J0D01*
G01*
%TO.C,R45*%
X130320000Y-122121359D02*
X130320000Y-122428641D01*
X131080000Y-122121359D02*
X131080000Y-122428641D01*
%TO.C,C27*%
X145282164Y-89040000D02*
X145497836Y-89040000D01*
X145282164Y-89760000D02*
X145497836Y-89760000D01*
%TO.C,C23*%
X190913748Y-84340000D02*
X192336252Y-84340000D01*
X190913748Y-86160000D02*
X192336252Y-86160000D01*
%TO.C,R4*%
X189516141Y-92907500D02*
X189208859Y-92907500D01*
X189516141Y-93667500D02*
X189208859Y-93667500D01*
%TO.C,R34*%
X178020000Y-114881359D02*
X178020000Y-115188641D01*
X178780000Y-114881359D02*
X178780000Y-115188641D01*
%TO.C,TP20*%
X170800000Y-72950000D02*
G75*
G02*
X169400000Y-72950000I-700000J0D01*
G01*
X169400000Y-72950000D02*
G75*
G02*
X170800000Y-72950000I700000J0D01*
G01*
%TO.C,C8*%
X148223748Y-92440000D02*
X148746252Y-92440000D01*
X148223748Y-93910000D02*
X148746252Y-93910000D01*
%TO.C,D9*%
X192390000Y-121785000D02*
X192390000Y-119500000D01*
X193860000Y-119500000D02*
X193860000Y-121785000D01*
X193860000Y-121785000D02*
X192390000Y-121785000D01*
%TO.C,C18*%
X151838748Y-84340000D02*
X153261252Y-84340000D01*
X151838748Y-86160000D02*
X153261252Y-86160000D01*
%TO.C,J1*%
X189350000Y-104040000D02*
X189990000Y-104040000D01*
X189400000Y-106760000D02*
X192100000Y-106760000D01*
X189990000Y-104040000D02*
X189990000Y-103410000D01*
X192150000Y-104040000D02*
X191510000Y-104040000D01*
%TO.C,D10*%
X170650000Y-110165000D02*
X170650000Y-112825000D01*
X170650000Y-110165000D02*
X172350000Y-110165000D01*
X172350000Y-110165000D02*
X172350000Y-112825000D01*
%TO.C,R24*%
X181145000Y-114881359D02*
X181145000Y-115188641D01*
X181905000Y-114881359D02*
X181905000Y-115188641D01*
%TO.C,D12*%
X192390000Y-118385000D02*
X192390000Y-116100000D01*
X193860000Y-116100000D02*
X193860000Y-118385000D01*
X193860000Y-118385000D02*
X192390000Y-118385000D01*
%TO.C,R35*%
X179045000Y-114881359D02*
X179045000Y-115188641D01*
X179805000Y-114881359D02*
X179805000Y-115188641D01*
%TO.C,R40*%
X191395000Y-120146359D02*
X191395000Y-120453641D01*
X192155000Y-120146359D02*
X192155000Y-120453641D01*
%TO.C,R33*%
X180095000Y-115178641D02*
X180095000Y-114871359D01*
X180855000Y-115178641D02*
X180855000Y-114871359D01*
D13*
%TO.C,L2*%
X151400000Y-88675000D02*
X151400000Y-89495000D01*
X151400000Y-91355000D02*
X151400000Y-92175000D01*
X151400000Y-92175000D02*
X154900000Y-92175000D01*
X154900000Y-88675000D02*
X151400000Y-88675000D01*
X154900000Y-89495000D02*
X154900000Y-88675000D01*
X154900000Y-92175000D02*
X154900000Y-91355000D01*
D12*
%TO.C,R3*%
X191495000Y-109946359D02*
X191495000Y-110253641D01*
X192255000Y-109946359D02*
X192255000Y-110253641D01*
D14*
%TO.C,U1*%
X156375000Y-83250000D02*
X157625000Y-83250000D01*
X156375000Y-88250000D02*
X157625000Y-88250000D01*
X156375000Y-90250000D02*
X157625000Y-90250000D01*
X156375000Y-91250000D02*
X157625000Y-91250000D01*
X156375000Y-92250000D02*
X157625000Y-92250000D01*
X156375000Y-93250000D02*
X157625000Y-93250000D01*
X156375000Y-94250000D02*
X157625000Y-94250000D01*
X156375000Y-95250000D02*
X157625000Y-95250000D01*
X156375000Y-96250000D02*
X157625000Y-96250000D01*
X156375000Y-97250000D02*
X157625000Y-97250000D01*
X156375000Y-98250000D02*
X157625000Y-98250000D01*
X156375000Y-99250000D02*
X157625000Y-99250000D01*
X156375000Y-100250000D02*
X157625000Y-100250000D01*
X156375000Y-101250000D02*
X157625000Y-101250000D01*
X156375000Y-102250000D02*
X157625000Y-102250000D01*
X156375000Y-103250000D02*
X157625000Y-103250000D01*
X156375000Y-104250000D02*
X157625000Y-104250000D01*
X156377485Y-89248503D02*
X157627485Y-89248503D01*
D13*
X157000000Y-78750000D02*
X157000000Y-82640000D01*
X157000000Y-104860000D02*
X157000000Y-108750000D01*
X157000000Y-108750000D02*
X160890000Y-108750000D01*
X160890000Y-78750000D02*
X157000000Y-78750000D01*
D14*
X163500000Y-78125000D02*
X163500000Y-79375000D01*
X165500000Y-78125000D02*
X165500000Y-79375000D01*
X166500000Y-78125000D02*
X166500000Y-79375000D01*
X166500000Y-109375000D02*
X166500000Y-108125000D01*
X167500000Y-78125000D02*
X167500000Y-79375000D01*
X168500000Y-78125000D02*
X168500000Y-79375000D01*
X169500000Y-78125000D02*
X169500000Y-79375000D01*
X170500000Y-78125000D02*
X170500000Y-79375000D01*
X171500000Y-78125000D02*
X171500000Y-79375000D01*
X173500000Y-78125000D02*
X173500000Y-79375000D01*
X173500000Y-109375000D02*
X173500000Y-108125000D01*
X174500000Y-109375000D02*
X174500000Y-108125000D01*
X175500000Y-78125000D02*
X175500000Y-79375000D01*
X175500000Y-109375000D02*
X175500000Y-108125000D01*
X176500000Y-78125000D02*
X176500000Y-79375000D01*
X176500000Y-109375000D02*
X176500000Y-108125000D01*
X177500000Y-78125000D02*
X177500000Y-79375000D01*
X180500000Y-78125000D02*
X180500000Y-79375000D01*
D13*
X181000000Y-110600000D02*
X181500000Y-110100000D01*
X181500000Y-110100000D02*
X182000000Y-110600000D01*
X182000000Y-110600000D02*
X181000000Y-110600000D01*
X182110000Y-108750000D02*
X187000000Y-108750000D01*
D14*
X182500000Y-78125000D02*
X182500000Y-79375000D01*
D13*
X187000000Y-78750000D02*
X183110000Y-78750000D01*
X187000000Y-82640000D02*
X187000000Y-78750000D01*
X187000000Y-106750000D02*
X185000000Y-108750000D01*
X187000000Y-108750000D02*
X187000000Y-104860000D01*
D14*
X187625000Y-83250000D02*
X186375000Y-83250000D01*
X187625000Y-89250000D02*
X186375000Y-89250000D01*
X187625000Y-90250000D02*
X186375000Y-90250000D01*
X187625000Y-91250000D02*
X186375000Y-91250000D01*
X187625000Y-92250000D02*
X186375000Y-92250000D01*
X187625000Y-93250000D02*
X186375000Y-93250000D01*
X187625000Y-94250000D02*
X186375000Y-94250000D01*
X187625000Y-95250000D02*
X186375000Y-95250000D01*
X187625000Y-96250000D02*
X186375000Y-96250000D01*
X187625000Y-97250000D02*
X186375000Y-97250000D01*
X187625000Y-98250000D02*
X186375000Y-98250000D01*
X187625000Y-99250000D02*
X186375000Y-99250000D01*
X187625000Y-104250000D02*
X186375000Y-104250000D01*
D12*
%TO.C,TP19*%
X167750000Y-72975000D02*
G75*
G02*
X166350000Y-72975000I-700000J0D01*
G01*
X166350000Y-72975000D02*
G75*
G02*
X167750000Y-72975000I700000J0D01*
G01*
%TO.C,D1*%
X192390000Y-108615000D02*
X193860000Y-108615000D01*
X192390000Y-110900000D02*
X192390000Y-108615000D01*
X193860000Y-108615000D02*
X193860000Y-110900000D01*
%TO.C,Q1*%
X192137500Y-91865000D02*
X191487500Y-91865000D01*
X192137500Y-91865000D02*
X192787500Y-91865000D01*
X192137500Y-94985000D02*
X191487500Y-94985000D01*
X192137500Y-94985000D02*
X192787500Y-94985000D01*
X191215000Y-95265000D02*
X190735000Y-95265000D01*
X190975000Y-94935000D01*
X191215000Y-95265000D01*
G36*
X191215000Y-95265000D02*
G01*
X190735000Y-95265000D01*
X190975000Y-94935000D01*
X191215000Y-95265000D01*
G37*
%TO.C,TP11*%
X193825000Y-83275000D02*
G75*
G02*
X192425000Y-83275000I-700000J0D01*
G01*
X192425000Y-83275000D02*
G75*
G02*
X193825000Y-83275000I700000J0D01*
G01*
%TO.C,R29*%
X192081359Y-100795000D02*
X192388641Y-100795000D01*
X192081359Y-101555000D02*
X192388641Y-101555000D01*
%TO.C,R48*%
X136645000Y-120403641D02*
X136645000Y-120096359D01*
X137405000Y-120403641D02*
X137405000Y-120096359D01*
%TO.C,C17*%
X152888748Y-86740000D02*
X153411252Y-86740000D01*
X152888748Y-88210000D02*
X153411252Y-88210000D01*
%TO.C,R16*%
X145543641Y-91120000D02*
X145236359Y-91120000D01*
X145543641Y-91880000D02*
X145236359Y-91880000D01*
%TO.C,R5*%
X189516141Y-93982500D02*
X189208859Y-93982500D01*
X189516141Y-94742500D02*
X189208859Y-94742500D01*
%TO.C,D3*%
X192390000Y-114985000D02*
X192390000Y-112700000D01*
X193860000Y-112700000D02*
X193860000Y-114985000D01*
X193860000Y-114985000D02*
X192390000Y-114985000D01*
%TO.C,C28*%
X192362836Y-99765000D02*
X192147164Y-99765000D01*
X192362836Y-100485000D02*
X192147164Y-100485000D01*
%TO.C,C21*%
X188390000Y-84877836D02*
X188390000Y-84662164D01*
X189110000Y-84877836D02*
X189110000Y-84662164D01*
%TO.C,Q5*%
X176902500Y-112075000D02*
X176902500Y-111425000D01*
X176902500Y-112075000D02*
X176902500Y-112725000D01*
X180022500Y-112075000D02*
X180022500Y-111425000D01*
X180022500Y-112075000D02*
X180022500Y-112725000D01*
X180302500Y-113477500D02*
X179972500Y-113237500D01*
X180302500Y-112997500D01*
X180302500Y-113477500D01*
G36*
X180302500Y-113477500D02*
G01*
X179972500Y-113237500D01*
X180302500Y-112997500D01*
X180302500Y-113477500D01*
G37*
%TO.C,R1*%
X191395000Y-113371359D02*
X191395000Y-113678641D01*
X192155000Y-113371359D02*
X192155000Y-113678641D01*
%TO.C,R12*%
X145236359Y-90070000D02*
X145543641Y-90070000D01*
X145236359Y-90830000D02*
X145543641Y-90830000D01*
%TO.C,J2*%
X149295000Y-77425000D02*
X149295000Y-80125000D01*
X152015000Y-77375000D02*
X152015000Y-78015000D01*
X152015000Y-78015000D02*
X152645000Y-78015000D01*
X152015000Y-80175000D02*
X152015000Y-79535000D01*
%TO.C,C20*%
X155040000Y-84857836D02*
X155040000Y-84642164D01*
X155760000Y-84857836D02*
X155760000Y-84642164D01*
%TD*%
M02*
